%TF.GenerationSoftware,KiCad,Pcbnew,8.0.3*%
%TF.CreationDate,2024-10-06T14:44:46+03:00*%
%TF.ProjectId,DistorsionPedals,44697374-6f72-4736-996f-6e506564616c,rev?*%
%TF.SameCoordinates,Original*%
%TF.FileFunction,Soldermask,Top*%
%TF.FilePolarity,Negative*%
%FSLAX46Y46*%
G04 Gerber Fmt 4.6, Leading zero omitted, Abs format (unit mm)*
G04 Created by KiCad (PCBNEW 8.0.3) date 2024-10-06 14:44:46*
%MOMM*%
%LPD*%
G01*
G04 APERTURE LIST*
G04 Aperture macros list*
%AMRoundRect*
0 Rectangle with rounded corners*
0 $1 Rounding radius*
0 $2 $3 $4 $5 $6 $7 $8 $9 X,Y pos of 4 corners*
0 Add a 4 corners polygon primitive as box body*
4,1,4,$2,$3,$4,$5,$6,$7,$8,$9,$2,$3,0*
0 Add four circle primitives for the rounded corners*
1,1,$1+$1,$2,$3*
1,1,$1+$1,$4,$5*
1,1,$1+$1,$6,$7*
1,1,$1+$1,$8,$9*
0 Add four rect primitives between the rounded corners*
20,1,$1+$1,$2,$3,$4,$5,0*
20,1,$1+$1,$4,$5,$6,$7,0*
20,1,$1+$1,$6,$7,$8,$9,0*
20,1,$1+$1,$8,$9,$2,$3,0*%
G04 Aperture macros list end*
%ADD10R,3.500000X3.500000*%
%ADD11RoundRect,0.750000X-0.750000X-1.000000X0.750000X-1.000000X0.750000X1.000000X-0.750000X1.000000X0*%
%ADD12RoundRect,0.875000X-0.875000X-0.875000X0.875000X-0.875000X0.875000X0.875000X-0.875000X0.875000X0*%
%ADD13O,1.800000X2.200000*%
%ADD14C,2.400000*%
%ADD15R,1.700000X1.700000*%
%ADD16O,1.700000X1.700000*%
%ADD17C,1.600000*%
%ADD18O,1.600000X1.600000*%
%ADD19O,2.400000X3.000000*%
%ADD20R,1.800000X1.800000*%
%ADD21C,1.800000*%
%ADD22R,2.200000X2.200000*%
%ADD23O,2.200000X2.200000*%
%ADD24R,1.050000X1.500000*%
%ADD25O,1.050000X1.500000*%
%ADD26R,1.600000X1.600000*%
%ADD27O,3.500000X2.200000*%
%ADD28R,2.500000X1.500000*%
%ADD29O,2.500000X1.500000*%
%ADD30R,1.000000X1.500000*%
G04 APERTURE END LIST*
D10*
%TO.C,J1*%
X97212479Y-93299589D03*
D11*
X91212479Y-93299589D03*
D12*
X94212479Y-97999589D03*
%TD*%
D13*
%TO.C,SW1*%
X55731157Y-118254446D03*
X60431157Y-118254446D03*
X65131157Y-118254446D03*
X55731157Y-123554446D03*
X60431157Y-123554446D03*
X65131157Y-123554446D03*
X55731157Y-128854446D03*
X60431157Y-128854446D03*
X65131157Y-128854446D03*
%TD*%
D14*
%TO.C,J2*%
X81431157Y-136054446D03*
X81431157Y-152254446D03*
X68831157Y-152254446D03*
X68831157Y-136054446D03*
X75131157Y-152254446D03*
X75131157Y-136054446D03*
%TD*%
D15*
%TO.C,J2*%
X40156157Y-119104446D03*
D16*
X40156157Y-116564446D03*
%TD*%
D17*
%TO.C,R10*%
X72431157Y-130154446D03*
D18*
X72431157Y-119994446D03*
%TD*%
D17*
%TO.C,C1*%
X48731157Y-110654446D03*
X48731157Y-105654446D03*
%TD*%
D19*
%TO.C,RV2*%
X55431157Y-78379446D03*
X65031157Y-78379446D03*
D20*
X57731157Y-85879446D03*
D21*
X60231157Y-85879446D03*
X62731157Y-85879446D03*
%TD*%
D17*
%TO.C,R7*%
X61691157Y-111354446D03*
D18*
X61691157Y-101194446D03*
%TD*%
D17*
%TO.C,R6*%
X47831157Y-90854446D03*
D18*
X47831157Y-101014446D03*
%TD*%
D17*
%TO.C,C3*%
X64441157Y-108464446D03*
X69441157Y-108464446D03*
%TD*%
%TO.C,R8*%
X51191157Y-90864446D03*
D18*
X51191157Y-101024446D03*
%TD*%
D22*
%TO.C,D2*%
X58171157Y-90924446D03*
D23*
X58171157Y-101084446D03*
%TD*%
D17*
%TO.C,C7*%
X64411157Y-105754446D03*
X69411157Y-105754446D03*
%TD*%
D24*
%TO.C,Q1*%
X54331157Y-106054446D03*
D25*
X53061157Y-106054446D03*
X51791157Y-106054446D03*
%TD*%
D20*
%TO.C,D3*%
X46131157Y-116654446D03*
D21*
X48671157Y-116654446D03*
%TD*%
D19*
%TO.C,RV1*%
X40931157Y-78379446D03*
X50531157Y-78379446D03*
D20*
X43231157Y-85879446D03*
D21*
X45731157Y-85879446D03*
X48231157Y-85879446D03*
%TD*%
D17*
%TO.C,R3*%
X44531157Y-101034446D03*
D18*
X44531157Y-90874446D03*
%TD*%
D17*
%TO.C,R5*%
X37931157Y-90874446D03*
D18*
X37931157Y-101034446D03*
%TD*%
D14*
%TO.C,J1*%
X39031157Y-152154446D03*
X39031157Y-135954446D03*
X51631157Y-135954446D03*
X51631157Y-152154446D03*
X45331157Y-135954446D03*
X45331157Y-152154446D03*
%TD*%
D17*
%TO.C,R4*%
X41231157Y-101034446D03*
D18*
X41231157Y-90874446D03*
%TD*%
D17*
%TO.C,C9*%
X78011157Y-90064446D03*
X78011157Y-95064446D03*
%TD*%
D19*
%TO.C,RV3*%
X69931157Y-78379446D03*
X79531157Y-78379446D03*
D20*
X72231157Y-85879446D03*
D21*
X74731157Y-85879446D03*
X77231157Y-85879446D03*
%TD*%
D17*
%TO.C,R9*%
X71881157Y-90344446D03*
D18*
X61721157Y-90344446D03*
%TD*%
D17*
%TO.C,R1*%
X75651157Y-130124446D03*
D18*
X75651157Y-119964446D03*
%TD*%
D17*
%TO.C,R11*%
X75031157Y-90034446D03*
D18*
X75031157Y-100194446D03*
%TD*%
D17*
%TO.C,R12*%
X80871157Y-116914446D03*
D18*
X70711157Y-116914446D03*
%TD*%
D26*
%TO.C,C2*%
X38631157Y-108854446D03*
D17*
X42131157Y-108854446D03*
%TD*%
%TO.C,C6*%
X61861157Y-98424446D03*
X61861157Y-93424446D03*
%TD*%
D22*
%TO.C,D1*%
X54651157Y-101054446D03*
D23*
X54651157Y-90894446D03*
%TD*%
D17*
%TO.C,C8*%
X74891157Y-110374446D03*
X74891157Y-105374446D03*
%TD*%
%TO.C,C5*%
X57271157Y-103934446D03*
X57271157Y-108934446D03*
%TD*%
D26*
%TO.C,U1*%
X64461157Y-95054446D03*
D18*
X64461157Y-97594446D03*
X64461157Y-100134446D03*
X64461157Y-102674446D03*
X72081157Y-102674446D03*
X72081157Y-100134446D03*
X72081157Y-97594446D03*
X72081157Y-95054446D03*
%TD*%
D17*
%TO.C,R13*%
X82031157Y-119974446D03*
D18*
X82031157Y-130134446D03*
%TD*%
D17*
%TO.C,C4*%
X46131157Y-105654446D03*
X46131157Y-110654446D03*
%TD*%
%TO.C,R2*%
X78891157Y-119994446D03*
D18*
X78891157Y-130154446D03*
%TD*%
D27*
%TO.C,SW1*%
X89312479Y-102399589D03*
X89312479Y-110599589D03*
D28*
X89312479Y-104499589D03*
D29*
X89312479Y-106499589D03*
X89312479Y-108499589D03*
%TD*%
D14*
%TO.C,J2*%
X132687351Y-136024716D03*
X132687351Y-152224716D03*
X120087351Y-152224716D03*
X120087351Y-136024716D03*
X126387351Y-152224716D03*
X126387351Y-136024716D03*
%TD*%
D17*
%TO.C,R6*%
X128912479Y-90619589D03*
D18*
X128912479Y-100779589D03*
%TD*%
D19*
%TO.C,RV3*%
X121187351Y-78349716D03*
X130787351Y-78349716D03*
D20*
X123487351Y-85849716D03*
D21*
X125987351Y-85849716D03*
X128487351Y-85849716D03*
%TD*%
D14*
%TO.C,J1*%
X90287351Y-152124716D03*
X90287351Y-135924716D03*
X102887351Y-135924716D03*
X102887351Y-152124716D03*
X96587351Y-135924716D03*
X96587351Y-152124716D03*
%TD*%
D17*
%TO.C,R7*%
X122112479Y-113839589D03*
D18*
X122112479Y-123999589D03*
%TD*%
D17*
%TO.C,C2*%
X111312479Y-92399589D03*
X116312479Y-92399589D03*
%TD*%
%TO.C,R8*%
X100812479Y-113719589D03*
D18*
X100812479Y-123879589D03*
%TD*%
D20*
%TO.C,D3*%
X125052479Y-128899589D03*
D21*
X122512479Y-128899589D03*
%TD*%
D19*
%TO.C,RV2*%
X106687351Y-78349716D03*
X116287351Y-78349716D03*
D20*
X108987351Y-85849716D03*
D21*
X111487351Y-85849716D03*
X113987351Y-85849716D03*
%TD*%
D17*
%TO.C,R3*%
X101212479Y-100819589D03*
D18*
X101212479Y-90659589D03*
%TD*%
D22*
%TO.C,D2*%
X119712479Y-106599589D03*
D23*
X129872479Y-106599589D03*
%TD*%
D13*
%TO.C,SW2*%
X106987351Y-118224716D03*
X111687351Y-118224716D03*
X116387351Y-118224716D03*
X106987351Y-123524716D03*
X111687351Y-123524716D03*
X116387351Y-123524716D03*
X106987351Y-128824716D03*
X111687351Y-128824716D03*
X116387351Y-128824716D03*
%TD*%
D17*
%TO.C,C3*%
X116212479Y-89599589D03*
X111212479Y-89599589D03*
%TD*%
D26*
%TO.C,U1*%
X111412479Y-95699589D03*
D18*
X111412479Y-98239589D03*
X111412479Y-100779589D03*
X111412479Y-103319589D03*
X119032479Y-103319589D03*
X119032479Y-100779589D03*
X119032479Y-98239589D03*
X119032479Y-95699589D03*
%TD*%
D15*
%TO.C,J2*%
X97412479Y-102199589D03*
D16*
X94872479Y-102199589D03*
%TD*%
D17*
%TO.C,C6*%
X129912479Y-103479589D03*
X124912479Y-103479589D03*
%TD*%
%TO.C,C1*%
X102812479Y-103699589D03*
X107812479Y-103699589D03*
%TD*%
D19*
%TO.C,RV1*%
X92187351Y-78349716D03*
X101787351Y-78349716D03*
D20*
X94487351Y-85849716D03*
D21*
X96987351Y-85849716D03*
X99487351Y-85849716D03*
%TD*%
D17*
%TO.C,R5*%
X125512479Y-90599589D03*
D18*
X125512479Y-100759589D03*
%TD*%
D17*
%TO.C,C4*%
X107752479Y-106349589D03*
X102752479Y-106349589D03*
%TD*%
D22*
%TO.C,D1*%
X129892479Y-110099589D03*
D23*
X119732479Y-110099589D03*
%TD*%
D17*
%TO.C,R1*%
X107812479Y-100779589D03*
D18*
X107812479Y-90619589D03*
%TD*%
D30*
%TO.C,JP1*%
X106062479Y-86399589D03*
X104762479Y-86399589D03*
%TD*%
D17*
%TO.C,C5*%
X107812479Y-109039589D03*
X102812479Y-109039589D03*
%TD*%
%TO.C,R4*%
X122212479Y-100779589D03*
D18*
X122212479Y-90619589D03*
%TD*%
D20*
%TO.C,D4*%
X98012479Y-128799589D03*
D21*
X100552479Y-128799589D03*
%TD*%
D17*
%TO.C,R2*%
X104512479Y-90619589D03*
D18*
X104512479Y-100779589D03*
%TD*%
M02*
