%TF.GenerationSoftware,KiCad,Pcbnew,8.0.3*%
%TF.CreationDate,2024-10-06T14:44:46+03:00*%
%TF.ProjectId,DistorsionPedals,44697374-6f72-4736-996f-6e506564616c,rev?*%
%TF.SameCoordinates,Original*%
%TF.FileFunction,Legend,Top*%
%TF.FilePolarity,Positive*%
%FSLAX46Y46*%
G04 Gerber Fmt 4.6, Leading zero omitted, Abs format (unit mm)*
G04 Created by KiCad (PCBNEW 8.0.3) date 2024-10-06 14:44:46*
%MOMM*%
%LPD*%
G01*
G04 APERTURE LIST*
%ADD10C,2.000000*%
%ADD11C,0.250000*%
%ADD12C,0.150000*%
%ADD13C,1.000000*%
%ADD14C,0.200000*%
%ADD15C,0.300000*%
%ADD16C,0.625000*%
%ADD17C,0.100000*%
%ADD18C,0.120000*%
G04 APERTURE END LIST*
D10*
X85850000Y-67650000D02*
X85850000Y-167650000D01*
D11*
X45240680Y-159123231D02*
X45240680Y-154623231D01*
X45240680Y-154623231D02*
X45835918Y-154623231D01*
X45835918Y-154623231D02*
X46193061Y-154837517D01*
X46193061Y-154837517D02*
X46431156Y-155266088D01*
X46431156Y-155266088D02*
X46550203Y-155694660D01*
X46550203Y-155694660D02*
X46669251Y-156551803D01*
X46669251Y-156551803D02*
X46669251Y-157194660D01*
X46669251Y-157194660D02*
X46550203Y-158051803D01*
X46550203Y-158051803D02*
X46431156Y-158480374D01*
X46431156Y-158480374D02*
X46193061Y-158908946D01*
X46193061Y-158908946D02*
X45835918Y-159123231D01*
X45835918Y-159123231D02*
X45240680Y-159123231D01*
X47740680Y-159123231D02*
X47740680Y-156123231D01*
X47740680Y-154623231D02*
X47621632Y-154837517D01*
X47621632Y-154837517D02*
X47740680Y-155051803D01*
X47740680Y-155051803D02*
X47859727Y-154837517D01*
X47859727Y-154837517D02*
X47740680Y-154623231D01*
X47740680Y-154623231D02*
X47740680Y-155051803D01*
X48812108Y-158908946D02*
X49050203Y-159123231D01*
X49050203Y-159123231D02*
X49526394Y-159123231D01*
X49526394Y-159123231D02*
X49764489Y-158908946D01*
X49764489Y-158908946D02*
X49883537Y-158480374D01*
X49883537Y-158480374D02*
X49883537Y-158266088D01*
X49883537Y-158266088D02*
X49764489Y-157837517D01*
X49764489Y-157837517D02*
X49526394Y-157623231D01*
X49526394Y-157623231D02*
X49169251Y-157623231D01*
X49169251Y-157623231D02*
X48931156Y-157408946D01*
X48931156Y-157408946D02*
X48812108Y-156980374D01*
X48812108Y-156980374D02*
X48812108Y-156766088D01*
X48812108Y-156766088D02*
X48931156Y-156337517D01*
X48931156Y-156337517D02*
X49169251Y-156123231D01*
X49169251Y-156123231D02*
X49526394Y-156123231D01*
X49526394Y-156123231D02*
X49764489Y-156337517D01*
X50597823Y-156123231D02*
X51550204Y-156123231D01*
X50954966Y-154623231D02*
X50954966Y-158480374D01*
X50954966Y-158480374D02*
X51074013Y-158908946D01*
X51074013Y-158908946D02*
X51312108Y-159123231D01*
X51312108Y-159123231D02*
X51550204Y-159123231D01*
X52740679Y-159123231D02*
X52502584Y-158908946D01*
X52502584Y-158908946D02*
X52383537Y-158694660D01*
X52383537Y-158694660D02*
X52264489Y-158266088D01*
X52264489Y-158266088D02*
X52264489Y-156980374D01*
X52264489Y-156980374D02*
X52383537Y-156551803D01*
X52383537Y-156551803D02*
X52502584Y-156337517D01*
X52502584Y-156337517D02*
X52740679Y-156123231D01*
X52740679Y-156123231D02*
X53097822Y-156123231D01*
X53097822Y-156123231D02*
X53335918Y-156337517D01*
X53335918Y-156337517D02*
X53454965Y-156551803D01*
X53454965Y-156551803D02*
X53574013Y-156980374D01*
X53574013Y-156980374D02*
X53574013Y-158266088D01*
X53574013Y-158266088D02*
X53454965Y-158694660D01*
X53454965Y-158694660D02*
X53335918Y-158908946D01*
X53335918Y-158908946D02*
X53097822Y-159123231D01*
X53097822Y-159123231D02*
X52740679Y-159123231D01*
X54645442Y-159123231D02*
X54645442Y-156123231D01*
X54645442Y-156980374D02*
X54764489Y-156551803D01*
X54764489Y-156551803D02*
X54883537Y-156337517D01*
X54883537Y-156337517D02*
X55121632Y-156123231D01*
X55121632Y-156123231D02*
X55359727Y-156123231D01*
X56074013Y-158908946D02*
X56312108Y-159123231D01*
X56312108Y-159123231D02*
X56788299Y-159123231D01*
X56788299Y-159123231D02*
X57026394Y-158908946D01*
X57026394Y-158908946D02*
X57145442Y-158480374D01*
X57145442Y-158480374D02*
X57145442Y-158266088D01*
X57145442Y-158266088D02*
X57026394Y-157837517D01*
X57026394Y-157837517D02*
X56788299Y-157623231D01*
X56788299Y-157623231D02*
X56431156Y-157623231D01*
X56431156Y-157623231D02*
X56193061Y-157408946D01*
X56193061Y-157408946D02*
X56074013Y-156980374D01*
X56074013Y-156980374D02*
X56074013Y-156766088D01*
X56074013Y-156766088D02*
X56193061Y-156337517D01*
X56193061Y-156337517D02*
X56431156Y-156123231D01*
X56431156Y-156123231D02*
X56788299Y-156123231D01*
X56788299Y-156123231D02*
X57026394Y-156337517D01*
X58216871Y-159123231D02*
X58216871Y-156123231D01*
X58216871Y-154623231D02*
X58097823Y-154837517D01*
X58097823Y-154837517D02*
X58216871Y-155051803D01*
X58216871Y-155051803D02*
X58335918Y-154837517D01*
X58335918Y-154837517D02*
X58216871Y-154623231D01*
X58216871Y-154623231D02*
X58216871Y-155051803D01*
X59764489Y-159123231D02*
X59526394Y-158908946D01*
X59526394Y-158908946D02*
X59407347Y-158694660D01*
X59407347Y-158694660D02*
X59288299Y-158266088D01*
X59288299Y-158266088D02*
X59288299Y-156980374D01*
X59288299Y-156980374D02*
X59407347Y-156551803D01*
X59407347Y-156551803D02*
X59526394Y-156337517D01*
X59526394Y-156337517D02*
X59764489Y-156123231D01*
X59764489Y-156123231D02*
X60121632Y-156123231D01*
X60121632Y-156123231D02*
X60359728Y-156337517D01*
X60359728Y-156337517D02*
X60478775Y-156551803D01*
X60478775Y-156551803D02*
X60597823Y-156980374D01*
X60597823Y-156980374D02*
X60597823Y-158266088D01*
X60597823Y-158266088D02*
X60478775Y-158694660D01*
X60478775Y-158694660D02*
X60359728Y-158908946D01*
X60359728Y-158908946D02*
X60121632Y-159123231D01*
X60121632Y-159123231D02*
X59764489Y-159123231D01*
X61669252Y-156123231D02*
X61669252Y-159123231D01*
X61669252Y-156551803D02*
X61788299Y-156337517D01*
X61788299Y-156337517D02*
X62026394Y-156123231D01*
X62026394Y-156123231D02*
X62383537Y-156123231D01*
X62383537Y-156123231D02*
X62621633Y-156337517D01*
X62621633Y-156337517D02*
X62740680Y-156766088D01*
X62740680Y-156766088D02*
X62740680Y-159123231D01*
X65835919Y-159123231D02*
X65835919Y-154623231D01*
X65835919Y-154623231D02*
X66788300Y-154623231D01*
X66788300Y-154623231D02*
X67026395Y-154837517D01*
X67026395Y-154837517D02*
X67145442Y-155051803D01*
X67145442Y-155051803D02*
X67264490Y-155480374D01*
X67264490Y-155480374D02*
X67264490Y-156123231D01*
X67264490Y-156123231D02*
X67145442Y-156551803D01*
X67145442Y-156551803D02*
X67026395Y-156766088D01*
X67026395Y-156766088D02*
X66788300Y-156980374D01*
X66788300Y-156980374D02*
X65835919Y-156980374D01*
X69288300Y-158908946D02*
X69050204Y-159123231D01*
X69050204Y-159123231D02*
X68574014Y-159123231D01*
X68574014Y-159123231D02*
X68335919Y-158908946D01*
X68335919Y-158908946D02*
X68216871Y-158480374D01*
X68216871Y-158480374D02*
X68216871Y-156766088D01*
X68216871Y-156766088D02*
X68335919Y-156337517D01*
X68335919Y-156337517D02*
X68574014Y-156123231D01*
X68574014Y-156123231D02*
X69050204Y-156123231D01*
X69050204Y-156123231D02*
X69288300Y-156337517D01*
X69288300Y-156337517D02*
X69407347Y-156766088D01*
X69407347Y-156766088D02*
X69407347Y-157194660D01*
X69407347Y-157194660D02*
X68216871Y-157623231D01*
X71550204Y-159123231D02*
X71550204Y-154623231D01*
X71550204Y-158908946D02*
X71312109Y-159123231D01*
X71312109Y-159123231D02*
X70835918Y-159123231D01*
X70835918Y-159123231D02*
X70597823Y-158908946D01*
X70597823Y-158908946D02*
X70478776Y-158694660D01*
X70478776Y-158694660D02*
X70359728Y-158266088D01*
X70359728Y-158266088D02*
X70359728Y-156980374D01*
X70359728Y-156980374D02*
X70478776Y-156551803D01*
X70478776Y-156551803D02*
X70597823Y-156337517D01*
X70597823Y-156337517D02*
X70835918Y-156123231D01*
X70835918Y-156123231D02*
X71312109Y-156123231D01*
X71312109Y-156123231D02*
X71550204Y-156337517D01*
X73812109Y-159123231D02*
X73812109Y-156766088D01*
X73812109Y-156766088D02*
X73693062Y-156337517D01*
X73693062Y-156337517D02*
X73454966Y-156123231D01*
X73454966Y-156123231D02*
X72978776Y-156123231D01*
X72978776Y-156123231D02*
X72740681Y-156337517D01*
X73812109Y-158908946D02*
X73574014Y-159123231D01*
X73574014Y-159123231D02*
X72978776Y-159123231D01*
X72978776Y-159123231D02*
X72740681Y-158908946D01*
X72740681Y-158908946D02*
X72621633Y-158480374D01*
X72621633Y-158480374D02*
X72621633Y-158051803D01*
X72621633Y-158051803D02*
X72740681Y-157623231D01*
X72740681Y-157623231D02*
X72978776Y-157408946D01*
X72978776Y-157408946D02*
X73574014Y-157408946D01*
X73574014Y-157408946D02*
X73812109Y-157194660D01*
X75359728Y-159123231D02*
X75121633Y-158908946D01*
X75121633Y-158908946D02*
X75002586Y-158480374D01*
X75002586Y-158480374D02*
X75002586Y-154623231D01*
D12*
X37612166Y-119478255D02*
X37659785Y-119335398D01*
X37659785Y-119335398D02*
X37707404Y-119287779D01*
X37707404Y-119287779D02*
X37802642Y-119240160D01*
X37802642Y-119240160D02*
X37945499Y-119240160D01*
X37945499Y-119240160D02*
X38040737Y-119287779D01*
X38040737Y-119287779D02*
X38088357Y-119335398D01*
X38088357Y-119335398D02*
X38135976Y-119430636D01*
X38135976Y-119430636D02*
X38135976Y-119811588D01*
X38135976Y-119811588D02*
X37135976Y-119811588D01*
X37135976Y-119811588D02*
X37135976Y-119478255D01*
X37135976Y-119478255D02*
X37183595Y-119383017D01*
X37183595Y-119383017D02*
X37231214Y-119335398D01*
X37231214Y-119335398D02*
X37326452Y-119287779D01*
X37326452Y-119287779D02*
X37421690Y-119287779D01*
X37421690Y-119287779D02*
X37516928Y-119335398D01*
X37516928Y-119335398D02*
X37564547Y-119383017D01*
X37564547Y-119383017D02*
X37612166Y-119478255D01*
X37612166Y-119478255D02*
X37612166Y-119811588D01*
X37941690Y-118859207D02*
X37941690Y-118249684D01*
X38246452Y-118554445D02*
X37636928Y-118554445D01*
D11*
X45640680Y-159123231D02*
X45640680Y-154623231D01*
X45640680Y-154623231D02*
X46235918Y-154623231D01*
X46235918Y-154623231D02*
X46593061Y-154837517D01*
X46593061Y-154837517D02*
X46831156Y-155266088D01*
X46831156Y-155266088D02*
X46950203Y-155694660D01*
X46950203Y-155694660D02*
X47069251Y-156551803D01*
X47069251Y-156551803D02*
X47069251Y-157194660D01*
X47069251Y-157194660D02*
X46950203Y-158051803D01*
X46950203Y-158051803D02*
X46831156Y-158480374D01*
X46831156Y-158480374D02*
X46593061Y-158908946D01*
X46593061Y-158908946D02*
X46235918Y-159123231D01*
X46235918Y-159123231D02*
X45640680Y-159123231D01*
X48140680Y-159123231D02*
X48140680Y-156123231D01*
X48140680Y-154623231D02*
X48021632Y-154837517D01*
X48021632Y-154837517D02*
X48140680Y-155051803D01*
X48140680Y-155051803D02*
X48259727Y-154837517D01*
X48259727Y-154837517D02*
X48140680Y-154623231D01*
X48140680Y-154623231D02*
X48140680Y-155051803D01*
X49212108Y-158908946D02*
X49450203Y-159123231D01*
X49450203Y-159123231D02*
X49926394Y-159123231D01*
X49926394Y-159123231D02*
X50164489Y-158908946D01*
X50164489Y-158908946D02*
X50283537Y-158480374D01*
X50283537Y-158480374D02*
X50283537Y-158266088D01*
X50283537Y-158266088D02*
X50164489Y-157837517D01*
X50164489Y-157837517D02*
X49926394Y-157623231D01*
X49926394Y-157623231D02*
X49569251Y-157623231D01*
X49569251Y-157623231D02*
X49331156Y-157408946D01*
X49331156Y-157408946D02*
X49212108Y-156980374D01*
X49212108Y-156980374D02*
X49212108Y-156766088D01*
X49212108Y-156766088D02*
X49331156Y-156337517D01*
X49331156Y-156337517D02*
X49569251Y-156123231D01*
X49569251Y-156123231D02*
X49926394Y-156123231D01*
X49926394Y-156123231D02*
X50164489Y-156337517D01*
X50997823Y-156123231D02*
X51950204Y-156123231D01*
X51354966Y-154623231D02*
X51354966Y-158480374D01*
X51354966Y-158480374D02*
X51474013Y-158908946D01*
X51474013Y-158908946D02*
X51712108Y-159123231D01*
X51712108Y-159123231D02*
X51950204Y-159123231D01*
X53140679Y-159123231D02*
X52902584Y-158908946D01*
X52902584Y-158908946D02*
X52783537Y-158694660D01*
X52783537Y-158694660D02*
X52664489Y-158266088D01*
X52664489Y-158266088D02*
X52664489Y-156980374D01*
X52664489Y-156980374D02*
X52783537Y-156551803D01*
X52783537Y-156551803D02*
X52902584Y-156337517D01*
X52902584Y-156337517D02*
X53140679Y-156123231D01*
X53140679Y-156123231D02*
X53497822Y-156123231D01*
X53497822Y-156123231D02*
X53735918Y-156337517D01*
X53735918Y-156337517D02*
X53854965Y-156551803D01*
X53854965Y-156551803D02*
X53974013Y-156980374D01*
X53974013Y-156980374D02*
X53974013Y-158266088D01*
X53974013Y-158266088D02*
X53854965Y-158694660D01*
X53854965Y-158694660D02*
X53735918Y-158908946D01*
X53735918Y-158908946D02*
X53497822Y-159123231D01*
X53497822Y-159123231D02*
X53140679Y-159123231D01*
X55045442Y-159123231D02*
X55045442Y-156123231D01*
X55045442Y-156980374D02*
X55164489Y-156551803D01*
X55164489Y-156551803D02*
X55283537Y-156337517D01*
X55283537Y-156337517D02*
X55521632Y-156123231D01*
X55521632Y-156123231D02*
X55759727Y-156123231D01*
X56474013Y-158908946D02*
X56712108Y-159123231D01*
X56712108Y-159123231D02*
X57188299Y-159123231D01*
X57188299Y-159123231D02*
X57426394Y-158908946D01*
X57426394Y-158908946D02*
X57545442Y-158480374D01*
X57545442Y-158480374D02*
X57545442Y-158266088D01*
X57545442Y-158266088D02*
X57426394Y-157837517D01*
X57426394Y-157837517D02*
X57188299Y-157623231D01*
X57188299Y-157623231D02*
X56831156Y-157623231D01*
X56831156Y-157623231D02*
X56593061Y-157408946D01*
X56593061Y-157408946D02*
X56474013Y-156980374D01*
X56474013Y-156980374D02*
X56474013Y-156766088D01*
X56474013Y-156766088D02*
X56593061Y-156337517D01*
X56593061Y-156337517D02*
X56831156Y-156123231D01*
X56831156Y-156123231D02*
X57188299Y-156123231D01*
X57188299Y-156123231D02*
X57426394Y-156337517D01*
X58616871Y-159123231D02*
X58616871Y-156123231D01*
X58616871Y-154623231D02*
X58497823Y-154837517D01*
X58497823Y-154837517D02*
X58616871Y-155051803D01*
X58616871Y-155051803D02*
X58735918Y-154837517D01*
X58735918Y-154837517D02*
X58616871Y-154623231D01*
X58616871Y-154623231D02*
X58616871Y-155051803D01*
X60164489Y-159123231D02*
X59926394Y-158908946D01*
X59926394Y-158908946D02*
X59807347Y-158694660D01*
X59807347Y-158694660D02*
X59688299Y-158266088D01*
X59688299Y-158266088D02*
X59688299Y-156980374D01*
X59688299Y-156980374D02*
X59807347Y-156551803D01*
X59807347Y-156551803D02*
X59926394Y-156337517D01*
X59926394Y-156337517D02*
X60164489Y-156123231D01*
X60164489Y-156123231D02*
X60521632Y-156123231D01*
X60521632Y-156123231D02*
X60759728Y-156337517D01*
X60759728Y-156337517D02*
X60878775Y-156551803D01*
X60878775Y-156551803D02*
X60997823Y-156980374D01*
X60997823Y-156980374D02*
X60997823Y-158266088D01*
X60997823Y-158266088D02*
X60878775Y-158694660D01*
X60878775Y-158694660D02*
X60759728Y-158908946D01*
X60759728Y-158908946D02*
X60521632Y-159123231D01*
X60521632Y-159123231D02*
X60164489Y-159123231D01*
X62069252Y-156123231D02*
X62069252Y-159123231D01*
X62069252Y-156551803D02*
X62188299Y-156337517D01*
X62188299Y-156337517D02*
X62426394Y-156123231D01*
X62426394Y-156123231D02*
X62783537Y-156123231D01*
X62783537Y-156123231D02*
X63021633Y-156337517D01*
X63021633Y-156337517D02*
X63140680Y-156766088D01*
X63140680Y-156766088D02*
X63140680Y-159123231D01*
X66235919Y-159123231D02*
X66235919Y-154623231D01*
X66235919Y-154623231D02*
X67188300Y-154623231D01*
X67188300Y-154623231D02*
X67426395Y-154837517D01*
X67426395Y-154837517D02*
X67545442Y-155051803D01*
X67545442Y-155051803D02*
X67664490Y-155480374D01*
X67664490Y-155480374D02*
X67664490Y-156123231D01*
X67664490Y-156123231D02*
X67545442Y-156551803D01*
X67545442Y-156551803D02*
X67426395Y-156766088D01*
X67426395Y-156766088D02*
X67188300Y-156980374D01*
X67188300Y-156980374D02*
X66235919Y-156980374D01*
X69688300Y-158908946D02*
X69450204Y-159123231D01*
X69450204Y-159123231D02*
X68974014Y-159123231D01*
X68974014Y-159123231D02*
X68735919Y-158908946D01*
X68735919Y-158908946D02*
X68616871Y-158480374D01*
X68616871Y-158480374D02*
X68616871Y-156766088D01*
X68616871Y-156766088D02*
X68735919Y-156337517D01*
X68735919Y-156337517D02*
X68974014Y-156123231D01*
X68974014Y-156123231D02*
X69450204Y-156123231D01*
X69450204Y-156123231D02*
X69688300Y-156337517D01*
X69688300Y-156337517D02*
X69807347Y-156766088D01*
X69807347Y-156766088D02*
X69807347Y-157194660D01*
X69807347Y-157194660D02*
X68616871Y-157623231D01*
X71950204Y-159123231D02*
X71950204Y-154623231D01*
X71950204Y-158908946D02*
X71712109Y-159123231D01*
X71712109Y-159123231D02*
X71235918Y-159123231D01*
X71235918Y-159123231D02*
X70997823Y-158908946D01*
X70997823Y-158908946D02*
X70878776Y-158694660D01*
X70878776Y-158694660D02*
X70759728Y-158266088D01*
X70759728Y-158266088D02*
X70759728Y-156980374D01*
X70759728Y-156980374D02*
X70878776Y-156551803D01*
X70878776Y-156551803D02*
X70997823Y-156337517D01*
X70997823Y-156337517D02*
X71235918Y-156123231D01*
X71235918Y-156123231D02*
X71712109Y-156123231D01*
X71712109Y-156123231D02*
X71950204Y-156337517D01*
X74212109Y-159123231D02*
X74212109Y-156766088D01*
X74212109Y-156766088D02*
X74093062Y-156337517D01*
X74093062Y-156337517D02*
X73854966Y-156123231D01*
X73854966Y-156123231D02*
X73378776Y-156123231D01*
X73378776Y-156123231D02*
X73140681Y-156337517D01*
X74212109Y-158908946D02*
X73974014Y-159123231D01*
X73974014Y-159123231D02*
X73378776Y-159123231D01*
X73378776Y-159123231D02*
X73140681Y-158908946D01*
X73140681Y-158908946D02*
X73021633Y-158480374D01*
X73021633Y-158480374D02*
X73021633Y-158051803D01*
X73021633Y-158051803D02*
X73140681Y-157623231D01*
X73140681Y-157623231D02*
X73378776Y-157408946D01*
X73378776Y-157408946D02*
X73974014Y-157408946D01*
X73974014Y-157408946D02*
X74212109Y-157194660D01*
X75759728Y-159123231D02*
X75521633Y-158908946D01*
X75521633Y-158908946D02*
X75402586Y-158480374D01*
X75402586Y-158480374D02*
X75402586Y-154623231D01*
X45590680Y-159173231D02*
X45590680Y-154673231D01*
X45590680Y-154673231D02*
X46185918Y-154673231D01*
X46185918Y-154673231D02*
X46543061Y-154887517D01*
X46543061Y-154887517D02*
X46781156Y-155316088D01*
X46781156Y-155316088D02*
X46900203Y-155744660D01*
X46900203Y-155744660D02*
X47019251Y-156601803D01*
X47019251Y-156601803D02*
X47019251Y-157244660D01*
X47019251Y-157244660D02*
X46900203Y-158101803D01*
X46900203Y-158101803D02*
X46781156Y-158530374D01*
X46781156Y-158530374D02*
X46543061Y-158958946D01*
X46543061Y-158958946D02*
X46185918Y-159173231D01*
X46185918Y-159173231D02*
X45590680Y-159173231D01*
X48090680Y-159173231D02*
X48090680Y-156173231D01*
X48090680Y-154673231D02*
X47971632Y-154887517D01*
X47971632Y-154887517D02*
X48090680Y-155101803D01*
X48090680Y-155101803D02*
X48209727Y-154887517D01*
X48209727Y-154887517D02*
X48090680Y-154673231D01*
X48090680Y-154673231D02*
X48090680Y-155101803D01*
X49162108Y-158958946D02*
X49400203Y-159173231D01*
X49400203Y-159173231D02*
X49876394Y-159173231D01*
X49876394Y-159173231D02*
X50114489Y-158958946D01*
X50114489Y-158958946D02*
X50233537Y-158530374D01*
X50233537Y-158530374D02*
X50233537Y-158316088D01*
X50233537Y-158316088D02*
X50114489Y-157887517D01*
X50114489Y-157887517D02*
X49876394Y-157673231D01*
X49876394Y-157673231D02*
X49519251Y-157673231D01*
X49519251Y-157673231D02*
X49281156Y-157458946D01*
X49281156Y-157458946D02*
X49162108Y-157030374D01*
X49162108Y-157030374D02*
X49162108Y-156816088D01*
X49162108Y-156816088D02*
X49281156Y-156387517D01*
X49281156Y-156387517D02*
X49519251Y-156173231D01*
X49519251Y-156173231D02*
X49876394Y-156173231D01*
X49876394Y-156173231D02*
X50114489Y-156387517D01*
X50947823Y-156173231D02*
X51900204Y-156173231D01*
X51304966Y-154673231D02*
X51304966Y-158530374D01*
X51304966Y-158530374D02*
X51424013Y-158958946D01*
X51424013Y-158958946D02*
X51662108Y-159173231D01*
X51662108Y-159173231D02*
X51900204Y-159173231D01*
X53090679Y-159173231D02*
X52852584Y-158958946D01*
X52852584Y-158958946D02*
X52733537Y-158744660D01*
X52733537Y-158744660D02*
X52614489Y-158316088D01*
X52614489Y-158316088D02*
X52614489Y-157030374D01*
X52614489Y-157030374D02*
X52733537Y-156601803D01*
X52733537Y-156601803D02*
X52852584Y-156387517D01*
X52852584Y-156387517D02*
X53090679Y-156173231D01*
X53090679Y-156173231D02*
X53447822Y-156173231D01*
X53447822Y-156173231D02*
X53685918Y-156387517D01*
X53685918Y-156387517D02*
X53804965Y-156601803D01*
X53804965Y-156601803D02*
X53924013Y-157030374D01*
X53924013Y-157030374D02*
X53924013Y-158316088D01*
X53924013Y-158316088D02*
X53804965Y-158744660D01*
X53804965Y-158744660D02*
X53685918Y-158958946D01*
X53685918Y-158958946D02*
X53447822Y-159173231D01*
X53447822Y-159173231D02*
X53090679Y-159173231D01*
X54995442Y-159173231D02*
X54995442Y-156173231D01*
X54995442Y-157030374D02*
X55114489Y-156601803D01*
X55114489Y-156601803D02*
X55233537Y-156387517D01*
X55233537Y-156387517D02*
X55471632Y-156173231D01*
X55471632Y-156173231D02*
X55709727Y-156173231D01*
X56424013Y-158958946D02*
X56662108Y-159173231D01*
X56662108Y-159173231D02*
X57138299Y-159173231D01*
X57138299Y-159173231D02*
X57376394Y-158958946D01*
X57376394Y-158958946D02*
X57495442Y-158530374D01*
X57495442Y-158530374D02*
X57495442Y-158316088D01*
X57495442Y-158316088D02*
X57376394Y-157887517D01*
X57376394Y-157887517D02*
X57138299Y-157673231D01*
X57138299Y-157673231D02*
X56781156Y-157673231D01*
X56781156Y-157673231D02*
X56543061Y-157458946D01*
X56543061Y-157458946D02*
X56424013Y-157030374D01*
X56424013Y-157030374D02*
X56424013Y-156816088D01*
X56424013Y-156816088D02*
X56543061Y-156387517D01*
X56543061Y-156387517D02*
X56781156Y-156173231D01*
X56781156Y-156173231D02*
X57138299Y-156173231D01*
X57138299Y-156173231D02*
X57376394Y-156387517D01*
X58566871Y-159173231D02*
X58566871Y-156173231D01*
X58566871Y-154673231D02*
X58447823Y-154887517D01*
X58447823Y-154887517D02*
X58566871Y-155101803D01*
X58566871Y-155101803D02*
X58685918Y-154887517D01*
X58685918Y-154887517D02*
X58566871Y-154673231D01*
X58566871Y-154673231D02*
X58566871Y-155101803D01*
X60114489Y-159173231D02*
X59876394Y-158958946D01*
X59876394Y-158958946D02*
X59757347Y-158744660D01*
X59757347Y-158744660D02*
X59638299Y-158316088D01*
X59638299Y-158316088D02*
X59638299Y-157030374D01*
X59638299Y-157030374D02*
X59757347Y-156601803D01*
X59757347Y-156601803D02*
X59876394Y-156387517D01*
X59876394Y-156387517D02*
X60114489Y-156173231D01*
X60114489Y-156173231D02*
X60471632Y-156173231D01*
X60471632Y-156173231D02*
X60709728Y-156387517D01*
X60709728Y-156387517D02*
X60828775Y-156601803D01*
X60828775Y-156601803D02*
X60947823Y-157030374D01*
X60947823Y-157030374D02*
X60947823Y-158316088D01*
X60947823Y-158316088D02*
X60828775Y-158744660D01*
X60828775Y-158744660D02*
X60709728Y-158958946D01*
X60709728Y-158958946D02*
X60471632Y-159173231D01*
X60471632Y-159173231D02*
X60114489Y-159173231D01*
X62019252Y-156173231D02*
X62019252Y-159173231D01*
X62019252Y-156601803D02*
X62138299Y-156387517D01*
X62138299Y-156387517D02*
X62376394Y-156173231D01*
X62376394Y-156173231D02*
X62733537Y-156173231D01*
X62733537Y-156173231D02*
X62971633Y-156387517D01*
X62971633Y-156387517D02*
X63090680Y-156816088D01*
X63090680Y-156816088D02*
X63090680Y-159173231D01*
X66185919Y-159173231D02*
X66185919Y-154673231D01*
X66185919Y-154673231D02*
X67138300Y-154673231D01*
X67138300Y-154673231D02*
X67376395Y-154887517D01*
X67376395Y-154887517D02*
X67495442Y-155101803D01*
X67495442Y-155101803D02*
X67614490Y-155530374D01*
X67614490Y-155530374D02*
X67614490Y-156173231D01*
X67614490Y-156173231D02*
X67495442Y-156601803D01*
X67495442Y-156601803D02*
X67376395Y-156816088D01*
X67376395Y-156816088D02*
X67138300Y-157030374D01*
X67138300Y-157030374D02*
X66185919Y-157030374D01*
X69638300Y-158958946D02*
X69400204Y-159173231D01*
X69400204Y-159173231D02*
X68924014Y-159173231D01*
X68924014Y-159173231D02*
X68685919Y-158958946D01*
X68685919Y-158958946D02*
X68566871Y-158530374D01*
X68566871Y-158530374D02*
X68566871Y-156816088D01*
X68566871Y-156816088D02*
X68685919Y-156387517D01*
X68685919Y-156387517D02*
X68924014Y-156173231D01*
X68924014Y-156173231D02*
X69400204Y-156173231D01*
X69400204Y-156173231D02*
X69638300Y-156387517D01*
X69638300Y-156387517D02*
X69757347Y-156816088D01*
X69757347Y-156816088D02*
X69757347Y-157244660D01*
X69757347Y-157244660D02*
X68566871Y-157673231D01*
X71900204Y-159173231D02*
X71900204Y-154673231D01*
X71900204Y-158958946D02*
X71662109Y-159173231D01*
X71662109Y-159173231D02*
X71185918Y-159173231D01*
X71185918Y-159173231D02*
X70947823Y-158958946D01*
X70947823Y-158958946D02*
X70828776Y-158744660D01*
X70828776Y-158744660D02*
X70709728Y-158316088D01*
X70709728Y-158316088D02*
X70709728Y-157030374D01*
X70709728Y-157030374D02*
X70828776Y-156601803D01*
X70828776Y-156601803D02*
X70947823Y-156387517D01*
X70947823Y-156387517D02*
X71185918Y-156173231D01*
X71185918Y-156173231D02*
X71662109Y-156173231D01*
X71662109Y-156173231D02*
X71900204Y-156387517D01*
X74162109Y-159173231D02*
X74162109Y-156816088D01*
X74162109Y-156816088D02*
X74043062Y-156387517D01*
X74043062Y-156387517D02*
X73804966Y-156173231D01*
X73804966Y-156173231D02*
X73328776Y-156173231D01*
X73328776Y-156173231D02*
X73090681Y-156387517D01*
X74162109Y-158958946D02*
X73924014Y-159173231D01*
X73924014Y-159173231D02*
X73328776Y-159173231D01*
X73328776Y-159173231D02*
X73090681Y-158958946D01*
X73090681Y-158958946D02*
X72971633Y-158530374D01*
X72971633Y-158530374D02*
X72971633Y-158101803D01*
X72971633Y-158101803D02*
X73090681Y-157673231D01*
X73090681Y-157673231D02*
X73328776Y-157458946D01*
X73328776Y-157458946D02*
X73924014Y-157458946D01*
X73924014Y-157458946D02*
X74162109Y-157244660D01*
X75709728Y-159173231D02*
X75471633Y-158958946D01*
X75471633Y-158958946D02*
X75352586Y-158530374D01*
X75352586Y-158530374D02*
X75352586Y-154673231D01*
D13*
X40636670Y-125903398D02*
X40255717Y-125712922D01*
X40255717Y-125712922D02*
X39684289Y-125712922D01*
X39684289Y-125712922D02*
X39112860Y-125903398D01*
X39112860Y-125903398D02*
X38731908Y-126284350D01*
X38731908Y-126284350D02*
X38541431Y-126665303D01*
X38541431Y-126665303D02*
X38350955Y-127427207D01*
X38350955Y-127427207D02*
X38350955Y-127998636D01*
X38350955Y-127998636D02*
X38541431Y-128760541D01*
X38541431Y-128760541D02*
X38731908Y-129141493D01*
X38731908Y-129141493D02*
X39112860Y-129522446D01*
X39112860Y-129522446D02*
X39684289Y-129712922D01*
X39684289Y-129712922D02*
X40065241Y-129712922D01*
X40065241Y-129712922D02*
X40636670Y-129522446D01*
X40636670Y-129522446D02*
X40827146Y-129331969D01*
X40827146Y-129331969D02*
X40827146Y-127998636D01*
X40827146Y-127998636D02*
X40065241Y-127998636D01*
X42541431Y-129712922D02*
X42541431Y-125712922D01*
X42541431Y-125712922D02*
X43493812Y-125712922D01*
X43493812Y-125712922D02*
X44065241Y-125903398D01*
X44065241Y-125903398D02*
X44446193Y-126284350D01*
X44446193Y-126284350D02*
X44636670Y-126665303D01*
X44636670Y-126665303D02*
X44827146Y-127427207D01*
X44827146Y-127427207D02*
X44827146Y-127998636D01*
X44827146Y-127998636D02*
X44636670Y-128760541D01*
X44636670Y-128760541D02*
X44446193Y-129141493D01*
X44446193Y-129141493D02*
X44065241Y-129522446D01*
X44065241Y-129522446D02*
X43493812Y-129712922D01*
X43493812Y-129712922D02*
X42541431Y-129712922D01*
X46541431Y-129712922D02*
X46541431Y-125712922D01*
X46541431Y-125712922D02*
X48065241Y-125712922D01*
X48065241Y-125712922D02*
X48446193Y-125903398D01*
X48446193Y-125903398D02*
X48636670Y-126093874D01*
X48636670Y-126093874D02*
X48827146Y-126474826D01*
X48827146Y-126474826D02*
X48827146Y-127046255D01*
X48827146Y-127046255D02*
X48636670Y-127427207D01*
X48636670Y-127427207D02*
X48446193Y-127617684D01*
X48446193Y-127617684D02*
X48065241Y-127808160D01*
X48065241Y-127808160D02*
X46541431Y-127808160D01*
D12*
X37662166Y-116653255D02*
X37709785Y-116510398D01*
X37709785Y-116510398D02*
X37757404Y-116462779D01*
X37757404Y-116462779D02*
X37852642Y-116415160D01*
X37852642Y-116415160D02*
X37995499Y-116415160D01*
X37995499Y-116415160D02*
X38090737Y-116462779D01*
X38090737Y-116462779D02*
X38138357Y-116510398D01*
X38138357Y-116510398D02*
X38185976Y-116605636D01*
X38185976Y-116605636D02*
X38185976Y-116986588D01*
X38185976Y-116986588D02*
X37185976Y-116986588D01*
X37185976Y-116986588D02*
X37185976Y-116653255D01*
X37185976Y-116653255D02*
X37233595Y-116558017D01*
X37233595Y-116558017D02*
X37281214Y-116510398D01*
X37281214Y-116510398D02*
X37376452Y-116462779D01*
X37376452Y-116462779D02*
X37471690Y-116462779D01*
X37471690Y-116462779D02*
X37566928Y-116510398D01*
X37566928Y-116510398D02*
X37614547Y-116558017D01*
X37614547Y-116558017D02*
X37662166Y-116653255D01*
X37662166Y-116653255D02*
X37662166Y-116986588D01*
X37991690Y-116034207D02*
X37991690Y-115424684D01*
D11*
X45390680Y-159173231D02*
X45390680Y-154673231D01*
X45390680Y-154673231D02*
X45985918Y-154673231D01*
X45985918Y-154673231D02*
X46343061Y-154887517D01*
X46343061Y-154887517D02*
X46581156Y-155316088D01*
X46581156Y-155316088D02*
X46700203Y-155744660D01*
X46700203Y-155744660D02*
X46819251Y-156601803D01*
X46819251Y-156601803D02*
X46819251Y-157244660D01*
X46819251Y-157244660D02*
X46700203Y-158101803D01*
X46700203Y-158101803D02*
X46581156Y-158530374D01*
X46581156Y-158530374D02*
X46343061Y-158958946D01*
X46343061Y-158958946D02*
X45985918Y-159173231D01*
X45985918Y-159173231D02*
X45390680Y-159173231D01*
X47890680Y-159173231D02*
X47890680Y-156173231D01*
X47890680Y-154673231D02*
X47771632Y-154887517D01*
X47771632Y-154887517D02*
X47890680Y-155101803D01*
X47890680Y-155101803D02*
X48009727Y-154887517D01*
X48009727Y-154887517D02*
X47890680Y-154673231D01*
X47890680Y-154673231D02*
X47890680Y-155101803D01*
X48962108Y-158958946D02*
X49200203Y-159173231D01*
X49200203Y-159173231D02*
X49676394Y-159173231D01*
X49676394Y-159173231D02*
X49914489Y-158958946D01*
X49914489Y-158958946D02*
X50033537Y-158530374D01*
X50033537Y-158530374D02*
X50033537Y-158316088D01*
X50033537Y-158316088D02*
X49914489Y-157887517D01*
X49914489Y-157887517D02*
X49676394Y-157673231D01*
X49676394Y-157673231D02*
X49319251Y-157673231D01*
X49319251Y-157673231D02*
X49081156Y-157458946D01*
X49081156Y-157458946D02*
X48962108Y-157030374D01*
X48962108Y-157030374D02*
X48962108Y-156816088D01*
X48962108Y-156816088D02*
X49081156Y-156387517D01*
X49081156Y-156387517D02*
X49319251Y-156173231D01*
X49319251Y-156173231D02*
X49676394Y-156173231D01*
X49676394Y-156173231D02*
X49914489Y-156387517D01*
X50747823Y-156173231D02*
X51700204Y-156173231D01*
X51104966Y-154673231D02*
X51104966Y-158530374D01*
X51104966Y-158530374D02*
X51224013Y-158958946D01*
X51224013Y-158958946D02*
X51462108Y-159173231D01*
X51462108Y-159173231D02*
X51700204Y-159173231D01*
X52890679Y-159173231D02*
X52652584Y-158958946D01*
X52652584Y-158958946D02*
X52533537Y-158744660D01*
X52533537Y-158744660D02*
X52414489Y-158316088D01*
X52414489Y-158316088D02*
X52414489Y-157030374D01*
X52414489Y-157030374D02*
X52533537Y-156601803D01*
X52533537Y-156601803D02*
X52652584Y-156387517D01*
X52652584Y-156387517D02*
X52890679Y-156173231D01*
X52890679Y-156173231D02*
X53247822Y-156173231D01*
X53247822Y-156173231D02*
X53485918Y-156387517D01*
X53485918Y-156387517D02*
X53604965Y-156601803D01*
X53604965Y-156601803D02*
X53724013Y-157030374D01*
X53724013Y-157030374D02*
X53724013Y-158316088D01*
X53724013Y-158316088D02*
X53604965Y-158744660D01*
X53604965Y-158744660D02*
X53485918Y-158958946D01*
X53485918Y-158958946D02*
X53247822Y-159173231D01*
X53247822Y-159173231D02*
X52890679Y-159173231D01*
X54795442Y-159173231D02*
X54795442Y-156173231D01*
X54795442Y-157030374D02*
X54914489Y-156601803D01*
X54914489Y-156601803D02*
X55033537Y-156387517D01*
X55033537Y-156387517D02*
X55271632Y-156173231D01*
X55271632Y-156173231D02*
X55509727Y-156173231D01*
X56224013Y-158958946D02*
X56462108Y-159173231D01*
X56462108Y-159173231D02*
X56938299Y-159173231D01*
X56938299Y-159173231D02*
X57176394Y-158958946D01*
X57176394Y-158958946D02*
X57295442Y-158530374D01*
X57295442Y-158530374D02*
X57295442Y-158316088D01*
X57295442Y-158316088D02*
X57176394Y-157887517D01*
X57176394Y-157887517D02*
X56938299Y-157673231D01*
X56938299Y-157673231D02*
X56581156Y-157673231D01*
X56581156Y-157673231D02*
X56343061Y-157458946D01*
X56343061Y-157458946D02*
X56224013Y-157030374D01*
X56224013Y-157030374D02*
X56224013Y-156816088D01*
X56224013Y-156816088D02*
X56343061Y-156387517D01*
X56343061Y-156387517D02*
X56581156Y-156173231D01*
X56581156Y-156173231D02*
X56938299Y-156173231D01*
X56938299Y-156173231D02*
X57176394Y-156387517D01*
X58366871Y-159173231D02*
X58366871Y-156173231D01*
X58366871Y-154673231D02*
X58247823Y-154887517D01*
X58247823Y-154887517D02*
X58366871Y-155101803D01*
X58366871Y-155101803D02*
X58485918Y-154887517D01*
X58485918Y-154887517D02*
X58366871Y-154673231D01*
X58366871Y-154673231D02*
X58366871Y-155101803D01*
X59914489Y-159173231D02*
X59676394Y-158958946D01*
X59676394Y-158958946D02*
X59557347Y-158744660D01*
X59557347Y-158744660D02*
X59438299Y-158316088D01*
X59438299Y-158316088D02*
X59438299Y-157030374D01*
X59438299Y-157030374D02*
X59557347Y-156601803D01*
X59557347Y-156601803D02*
X59676394Y-156387517D01*
X59676394Y-156387517D02*
X59914489Y-156173231D01*
X59914489Y-156173231D02*
X60271632Y-156173231D01*
X60271632Y-156173231D02*
X60509728Y-156387517D01*
X60509728Y-156387517D02*
X60628775Y-156601803D01*
X60628775Y-156601803D02*
X60747823Y-157030374D01*
X60747823Y-157030374D02*
X60747823Y-158316088D01*
X60747823Y-158316088D02*
X60628775Y-158744660D01*
X60628775Y-158744660D02*
X60509728Y-158958946D01*
X60509728Y-158958946D02*
X60271632Y-159173231D01*
X60271632Y-159173231D02*
X59914489Y-159173231D01*
X61819252Y-156173231D02*
X61819252Y-159173231D01*
X61819252Y-156601803D02*
X61938299Y-156387517D01*
X61938299Y-156387517D02*
X62176394Y-156173231D01*
X62176394Y-156173231D02*
X62533537Y-156173231D01*
X62533537Y-156173231D02*
X62771633Y-156387517D01*
X62771633Y-156387517D02*
X62890680Y-156816088D01*
X62890680Y-156816088D02*
X62890680Y-159173231D01*
X65985919Y-159173231D02*
X65985919Y-154673231D01*
X65985919Y-154673231D02*
X66938300Y-154673231D01*
X66938300Y-154673231D02*
X67176395Y-154887517D01*
X67176395Y-154887517D02*
X67295442Y-155101803D01*
X67295442Y-155101803D02*
X67414490Y-155530374D01*
X67414490Y-155530374D02*
X67414490Y-156173231D01*
X67414490Y-156173231D02*
X67295442Y-156601803D01*
X67295442Y-156601803D02*
X67176395Y-156816088D01*
X67176395Y-156816088D02*
X66938300Y-157030374D01*
X66938300Y-157030374D02*
X65985919Y-157030374D01*
X69438300Y-158958946D02*
X69200204Y-159173231D01*
X69200204Y-159173231D02*
X68724014Y-159173231D01*
X68724014Y-159173231D02*
X68485919Y-158958946D01*
X68485919Y-158958946D02*
X68366871Y-158530374D01*
X68366871Y-158530374D02*
X68366871Y-156816088D01*
X68366871Y-156816088D02*
X68485919Y-156387517D01*
X68485919Y-156387517D02*
X68724014Y-156173231D01*
X68724014Y-156173231D02*
X69200204Y-156173231D01*
X69200204Y-156173231D02*
X69438300Y-156387517D01*
X69438300Y-156387517D02*
X69557347Y-156816088D01*
X69557347Y-156816088D02*
X69557347Y-157244660D01*
X69557347Y-157244660D02*
X68366871Y-157673231D01*
X71700204Y-159173231D02*
X71700204Y-154673231D01*
X71700204Y-158958946D02*
X71462109Y-159173231D01*
X71462109Y-159173231D02*
X70985918Y-159173231D01*
X70985918Y-159173231D02*
X70747823Y-158958946D01*
X70747823Y-158958946D02*
X70628776Y-158744660D01*
X70628776Y-158744660D02*
X70509728Y-158316088D01*
X70509728Y-158316088D02*
X70509728Y-157030374D01*
X70509728Y-157030374D02*
X70628776Y-156601803D01*
X70628776Y-156601803D02*
X70747823Y-156387517D01*
X70747823Y-156387517D02*
X70985918Y-156173231D01*
X70985918Y-156173231D02*
X71462109Y-156173231D01*
X71462109Y-156173231D02*
X71700204Y-156387517D01*
X73962109Y-159173231D02*
X73962109Y-156816088D01*
X73962109Y-156816088D02*
X73843062Y-156387517D01*
X73843062Y-156387517D02*
X73604966Y-156173231D01*
X73604966Y-156173231D02*
X73128776Y-156173231D01*
X73128776Y-156173231D02*
X72890681Y-156387517D01*
X73962109Y-158958946D02*
X73724014Y-159173231D01*
X73724014Y-159173231D02*
X73128776Y-159173231D01*
X73128776Y-159173231D02*
X72890681Y-158958946D01*
X72890681Y-158958946D02*
X72771633Y-158530374D01*
X72771633Y-158530374D02*
X72771633Y-158101803D01*
X72771633Y-158101803D02*
X72890681Y-157673231D01*
X72890681Y-157673231D02*
X73128776Y-157458946D01*
X73128776Y-157458946D02*
X73724014Y-157458946D01*
X73724014Y-157458946D02*
X73962109Y-157244660D01*
X75509728Y-159173231D02*
X75271633Y-158958946D01*
X75271633Y-158958946D02*
X75152586Y-158530374D01*
X75152586Y-158530374D02*
X75152586Y-154673231D01*
D14*
X42731156Y-158654447D02*
G75*
G02*
X35731156Y-158654447I-3500000J0D01*
G01*
X35731156Y-158654447D02*
G75*
G02*
X42731156Y-158654447I3500000J0D01*
G01*
X84731158Y-69654445D02*
G75*
G02*
X77731158Y-69654445I-3500000J0D01*
G01*
X77731158Y-69654445D02*
G75*
G02*
X84731158Y-69654445I3500000J0D01*
G01*
X84731158Y-158654447D02*
G75*
G02*
X77731158Y-158654447I-3500000J0D01*
G01*
X77731158Y-158654447D02*
G75*
G02*
X84731158Y-158654447I3500000J0D01*
G01*
X42731156Y-69654445D02*
G75*
G02*
X35731156Y-69654445I-3500000J0D01*
G01*
X35731156Y-69654445D02*
G75*
G02*
X42731156Y-69654445I3500000J0D01*
G01*
D15*
X72899953Y-72655274D02*
X72185667Y-72655274D01*
X72185667Y-72655274D02*
X72185667Y-71155274D01*
X73399953Y-71869560D02*
X73899953Y-71869560D01*
X74114239Y-72655274D02*
X73399953Y-72655274D01*
X73399953Y-72655274D02*
X73399953Y-71155274D01*
X73399953Y-71155274D02*
X74114239Y-71155274D01*
X74542811Y-71155274D02*
X75042811Y-72655274D01*
X75042811Y-72655274D02*
X75542811Y-71155274D01*
X76042810Y-71869560D02*
X76542810Y-71869560D01*
X76757096Y-72655274D02*
X76042810Y-72655274D01*
X76042810Y-72655274D02*
X76042810Y-71155274D01*
X76042810Y-71155274D02*
X76757096Y-71155274D01*
X78114239Y-72655274D02*
X77399953Y-72655274D01*
X77399953Y-72655274D02*
X77399953Y-71155274D01*
X43085667Y-72655274D02*
X43085667Y-71155274D01*
X43085667Y-71155274D02*
X43442810Y-71155274D01*
X43442810Y-71155274D02*
X43657096Y-71226703D01*
X43657096Y-71226703D02*
X43799953Y-71369560D01*
X43799953Y-71369560D02*
X43871382Y-71512417D01*
X43871382Y-71512417D02*
X43942810Y-71798131D01*
X43942810Y-71798131D02*
X43942810Y-72012417D01*
X43942810Y-72012417D02*
X43871382Y-72298131D01*
X43871382Y-72298131D02*
X43799953Y-72440988D01*
X43799953Y-72440988D02*
X43657096Y-72583846D01*
X43657096Y-72583846D02*
X43442810Y-72655274D01*
X43442810Y-72655274D02*
X43085667Y-72655274D01*
X45442810Y-72655274D02*
X44942810Y-71940988D01*
X44585667Y-72655274D02*
X44585667Y-71155274D01*
X44585667Y-71155274D02*
X45157096Y-71155274D01*
X45157096Y-71155274D02*
X45299953Y-71226703D01*
X45299953Y-71226703D02*
X45371382Y-71298131D01*
X45371382Y-71298131D02*
X45442810Y-71440988D01*
X45442810Y-71440988D02*
X45442810Y-71655274D01*
X45442810Y-71655274D02*
X45371382Y-71798131D01*
X45371382Y-71798131D02*
X45299953Y-71869560D01*
X45299953Y-71869560D02*
X45157096Y-71940988D01*
X45157096Y-71940988D02*
X44585667Y-71940988D01*
X46085667Y-72655274D02*
X46085667Y-71155274D01*
X46585668Y-71155274D02*
X47085668Y-72655274D01*
X47085668Y-72655274D02*
X47585668Y-71155274D01*
X48085667Y-71869560D02*
X48585667Y-71869560D01*
X48799953Y-72655274D02*
X48085667Y-72655274D01*
X48085667Y-72655274D02*
X48085667Y-71155274D01*
X48085667Y-71155274D02*
X48799953Y-71155274D01*
D11*
X43433725Y-121319065D02*
X43433725Y-120319065D01*
X43433725Y-120319065D02*
X43671820Y-120319065D01*
X43671820Y-120319065D02*
X43814677Y-120366684D01*
X43814677Y-120366684D02*
X43909915Y-120461922D01*
X43909915Y-120461922D02*
X43957534Y-120557160D01*
X43957534Y-120557160D02*
X44005153Y-120747636D01*
X44005153Y-120747636D02*
X44005153Y-120890493D01*
X44005153Y-120890493D02*
X43957534Y-121080969D01*
X43957534Y-121080969D02*
X43909915Y-121176207D01*
X43909915Y-121176207D02*
X43814677Y-121271446D01*
X43814677Y-121271446D02*
X43671820Y-121319065D01*
X43671820Y-121319065D02*
X43433725Y-121319065D01*
X44433725Y-121319065D02*
X44433725Y-120319065D01*
X44862296Y-121271446D02*
X45005153Y-121319065D01*
X45005153Y-121319065D02*
X45243248Y-121319065D01*
X45243248Y-121319065D02*
X45338486Y-121271446D01*
X45338486Y-121271446D02*
X45386105Y-121223826D01*
X45386105Y-121223826D02*
X45433724Y-121128588D01*
X45433724Y-121128588D02*
X45433724Y-121033350D01*
X45433724Y-121033350D02*
X45386105Y-120938112D01*
X45386105Y-120938112D02*
X45338486Y-120890493D01*
X45338486Y-120890493D02*
X45243248Y-120842874D01*
X45243248Y-120842874D02*
X45052772Y-120795255D01*
X45052772Y-120795255D02*
X44957534Y-120747636D01*
X44957534Y-120747636D02*
X44909915Y-120700017D01*
X44909915Y-120700017D02*
X44862296Y-120604779D01*
X44862296Y-120604779D02*
X44862296Y-120509541D01*
X44862296Y-120509541D02*
X44909915Y-120414303D01*
X44909915Y-120414303D02*
X44957534Y-120366684D01*
X44957534Y-120366684D02*
X45052772Y-120319065D01*
X45052772Y-120319065D02*
X45290867Y-120319065D01*
X45290867Y-120319065D02*
X45433724Y-120366684D01*
X45719439Y-120319065D02*
X46290867Y-120319065D01*
X46005153Y-121319065D02*
X46005153Y-120319065D01*
X46814677Y-120319065D02*
X47005153Y-120319065D01*
X47005153Y-120319065D02*
X47100391Y-120366684D01*
X47100391Y-120366684D02*
X47195629Y-120461922D01*
X47195629Y-120461922D02*
X47243248Y-120652398D01*
X47243248Y-120652398D02*
X47243248Y-120985731D01*
X47243248Y-120985731D02*
X47195629Y-121176207D01*
X47195629Y-121176207D02*
X47100391Y-121271446D01*
X47100391Y-121271446D02*
X47005153Y-121319065D01*
X47005153Y-121319065D02*
X46814677Y-121319065D01*
X46814677Y-121319065D02*
X46719439Y-121271446D01*
X46719439Y-121271446D02*
X46624201Y-121176207D01*
X46624201Y-121176207D02*
X46576582Y-120985731D01*
X46576582Y-120985731D02*
X46576582Y-120652398D01*
X46576582Y-120652398D02*
X46624201Y-120461922D01*
X46624201Y-120461922D02*
X46719439Y-120366684D01*
X46719439Y-120366684D02*
X46814677Y-120319065D01*
X48243248Y-121319065D02*
X47909915Y-120842874D01*
X47671820Y-121319065D02*
X47671820Y-120319065D01*
X47671820Y-120319065D02*
X48052772Y-120319065D01*
X48052772Y-120319065D02*
X48148010Y-120366684D01*
X48148010Y-120366684D02*
X48195629Y-120414303D01*
X48195629Y-120414303D02*
X48243248Y-120509541D01*
X48243248Y-120509541D02*
X48243248Y-120652398D01*
X48243248Y-120652398D02*
X48195629Y-120747636D01*
X48195629Y-120747636D02*
X48148010Y-120795255D01*
X48148010Y-120795255D02*
X48052772Y-120842874D01*
X48052772Y-120842874D02*
X47671820Y-120842874D01*
X48624201Y-121271446D02*
X48767058Y-121319065D01*
X48767058Y-121319065D02*
X49005153Y-121319065D01*
X49005153Y-121319065D02*
X49100391Y-121271446D01*
X49100391Y-121271446D02*
X49148010Y-121223826D01*
X49148010Y-121223826D02*
X49195629Y-121128588D01*
X49195629Y-121128588D02*
X49195629Y-121033350D01*
X49195629Y-121033350D02*
X49148010Y-120938112D01*
X49148010Y-120938112D02*
X49100391Y-120890493D01*
X49100391Y-120890493D02*
X49005153Y-120842874D01*
X49005153Y-120842874D02*
X48814677Y-120795255D01*
X48814677Y-120795255D02*
X48719439Y-120747636D01*
X48719439Y-120747636D02*
X48671820Y-120700017D01*
X48671820Y-120700017D02*
X48624201Y-120604779D01*
X48624201Y-120604779D02*
X48624201Y-120509541D01*
X48624201Y-120509541D02*
X48671820Y-120414303D01*
X48671820Y-120414303D02*
X48719439Y-120366684D01*
X48719439Y-120366684D02*
X48814677Y-120319065D01*
X48814677Y-120319065D02*
X49052772Y-120319065D01*
X49052772Y-120319065D02*
X49195629Y-120366684D01*
X49624201Y-121319065D02*
X49624201Y-120319065D01*
X50290867Y-120319065D02*
X50481343Y-120319065D01*
X50481343Y-120319065D02*
X50576581Y-120366684D01*
X50576581Y-120366684D02*
X50671819Y-120461922D01*
X50671819Y-120461922D02*
X50719438Y-120652398D01*
X50719438Y-120652398D02*
X50719438Y-120985731D01*
X50719438Y-120985731D02*
X50671819Y-121176207D01*
X50671819Y-121176207D02*
X50576581Y-121271446D01*
X50576581Y-121271446D02*
X50481343Y-121319065D01*
X50481343Y-121319065D02*
X50290867Y-121319065D01*
X50290867Y-121319065D02*
X50195629Y-121271446D01*
X50195629Y-121271446D02*
X50100391Y-121176207D01*
X50100391Y-121176207D02*
X50052772Y-120985731D01*
X50052772Y-120985731D02*
X50052772Y-120652398D01*
X50052772Y-120652398D02*
X50100391Y-120461922D01*
X50100391Y-120461922D02*
X50195629Y-120366684D01*
X50195629Y-120366684D02*
X50290867Y-120319065D01*
X51148010Y-121319065D02*
X51148010Y-120319065D01*
X51148010Y-120319065D02*
X51719438Y-121319065D01*
X51719438Y-121319065D02*
X51719438Y-120319065D01*
X44483725Y-159607874D02*
X45912296Y-159607874D01*
X45198010Y-161107874D02*
X45198010Y-159607874D01*
X47221820Y-159607874D02*
X47698011Y-159607874D01*
X47698011Y-159607874D02*
X47936106Y-159679303D01*
X47936106Y-159679303D02*
X48174201Y-159822160D01*
X48174201Y-159822160D02*
X48293249Y-160107874D01*
X48293249Y-160107874D02*
X48293249Y-160607874D01*
X48293249Y-160607874D02*
X48174201Y-160893588D01*
X48174201Y-160893588D02*
X47936106Y-161036446D01*
X47936106Y-161036446D02*
X47698011Y-161107874D01*
X47698011Y-161107874D02*
X47221820Y-161107874D01*
X47221820Y-161107874D02*
X46983725Y-161036446D01*
X46983725Y-161036446D02*
X46745630Y-160893588D01*
X46745630Y-160893588D02*
X46626582Y-160607874D01*
X46626582Y-160607874D02*
X46626582Y-160107874D01*
X46626582Y-160107874D02*
X46745630Y-159822160D01*
X46745630Y-159822160D02*
X46983725Y-159679303D01*
X46983725Y-159679303D02*
X47221820Y-159607874D01*
X49364678Y-161107874D02*
X49364678Y-159607874D01*
X49364678Y-159607874D02*
X50793249Y-161107874D01*
X50793249Y-161107874D02*
X50793249Y-159607874D01*
X51983726Y-161107874D02*
X51983726Y-159607874D01*
X53174202Y-161107874D02*
X53174202Y-159607874D01*
X54602773Y-161107874D02*
X53531344Y-160250731D01*
X54602773Y-159607874D02*
X53174202Y-160465017D01*
X55674202Y-161107874D02*
X55674202Y-159607874D01*
X58055154Y-161107874D02*
X56864678Y-161107874D01*
X56864678Y-161107874D02*
X56864678Y-159607874D01*
X60078964Y-161107874D02*
X58888488Y-161107874D01*
X58888488Y-161107874D02*
X58888488Y-159607874D01*
X60912298Y-160322160D02*
X61745631Y-160322160D01*
X62102774Y-161107874D02*
X60912298Y-161107874D01*
X60912298Y-161107874D02*
X60912298Y-159607874D01*
X60912298Y-159607874D02*
X62102774Y-159607874D01*
X64602774Y-161107874D02*
X63769441Y-160393588D01*
X63174203Y-161107874D02*
X63174203Y-159607874D01*
X63174203Y-159607874D02*
X64126584Y-159607874D01*
X64126584Y-159607874D02*
X64364679Y-159679303D01*
X64364679Y-159679303D02*
X64483726Y-159750731D01*
X64483726Y-159750731D02*
X64602774Y-159893588D01*
X64602774Y-159893588D02*
X64602774Y-160107874D01*
X64602774Y-160107874D02*
X64483726Y-160250731D01*
X64483726Y-160250731D02*
X64364679Y-160322160D01*
X64364679Y-160322160D02*
X64126584Y-160393588D01*
X64126584Y-160393588D02*
X63174203Y-160393588D01*
X66983726Y-161107874D02*
X65555155Y-161107874D01*
X66269441Y-161107874D02*
X66269441Y-159607874D01*
X66269441Y-159607874D02*
X66031345Y-159822160D01*
X66031345Y-159822160D02*
X65793250Y-159965017D01*
X65793250Y-159965017D02*
X65555155Y-160036446D01*
X68531345Y-159607874D02*
X68769440Y-159607874D01*
X68769440Y-159607874D02*
X69007536Y-159679303D01*
X69007536Y-159679303D02*
X69126583Y-159750731D01*
X69126583Y-159750731D02*
X69245631Y-159893588D01*
X69245631Y-159893588D02*
X69364678Y-160179303D01*
X69364678Y-160179303D02*
X69364678Y-160536446D01*
X69364678Y-160536446D02*
X69245631Y-160822160D01*
X69245631Y-160822160D02*
X69126583Y-160965017D01*
X69126583Y-160965017D02*
X69007536Y-161036446D01*
X69007536Y-161036446D02*
X68769440Y-161107874D01*
X68769440Y-161107874D02*
X68531345Y-161107874D01*
X68531345Y-161107874D02*
X68293250Y-161036446D01*
X68293250Y-161036446D02*
X68174202Y-160965017D01*
X68174202Y-160965017D02*
X68055155Y-160822160D01*
X68055155Y-160822160D02*
X67936107Y-160536446D01*
X67936107Y-160536446D02*
X67936107Y-160179303D01*
X67936107Y-160179303D02*
X68055155Y-159893588D01*
X68055155Y-159893588D02*
X68174202Y-159750731D01*
X68174202Y-159750731D02*
X68293250Y-159679303D01*
X68293250Y-159679303D02*
X68531345Y-159607874D01*
X70912297Y-159607874D02*
X71150392Y-159607874D01*
X71150392Y-159607874D02*
X71388488Y-159679303D01*
X71388488Y-159679303D02*
X71507535Y-159750731D01*
X71507535Y-159750731D02*
X71626583Y-159893588D01*
X71626583Y-159893588D02*
X71745630Y-160179303D01*
X71745630Y-160179303D02*
X71745630Y-160536446D01*
X71745630Y-160536446D02*
X71626583Y-160822160D01*
X71626583Y-160822160D02*
X71507535Y-160965017D01*
X71507535Y-160965017D02*
X71388488Y-161036446D01*
X71388488Y-161036446D02*
X71150392Y-161107874D01*
X71150392Y-161107874D02*
X70912297Y-161107874D01*
X70912297Y-161107874D02*
X70674202Y-161036446D01*
X70674202Y-161036446D02*
X70555154Y-160965017D01*
X70555154Y-160965017D02*
X70436107Y-160822160D01*
X70436107Y-160822160D02*
X70317059Y-160536446D01*
X70317059Y-160536446D02*
X70317059Y-160179303D01*
X70317059Y-160179303D02*
X70436107Y-159893588D01*
X70436107Y-159893588D02*
X70555154Y-159750731D01*
X70555154Y-159750731D02*
X70674202Y-159679303D01*
X70674202Y-159679303D02*
X70912297Y-159607874D01*
X73293249Y-159607874D02*
X73531344Y-159607874D01*
X73531344Y-159607874D02*
X73769440Y-159679303D01*
X73769440Y-159679303D02*
X73888487Y-159750731D01*
X73888487Y-159750731D02*
X74007535Y-159893588D01*
X74007535Y-159893588D02*
X74126582Y-160179303D01*
X74126582Y-160179303D02*
X74126582Y-160536446D01*
X74126582Y-160536446D02*
X74007535Y-160822160D01*
X74007535Y-160822160D02*
X73888487Y-160965017D01*
X73888487Y-160965017D02*
X73769440Y-161036446D01*
X73769440Y-161036446D02*
X73531344Y-161107874D01*
X73531344Y-161107874D02*
X73293249Y-161107874D01*
X73293249Y-161107874D02*
X73055154Y-161036446D01*
X73055154Y-161036446D02*
X72936106Y-160965017D01*
X72936106Y-160965017D02*
X72817059Y-160822160D01*
X72817059Y-160822160D02*
X72698011Y-160536446D01*
X72698011Y-160536446D02*
X72698011Y-160179303D01*
X72698011Y-160179303D02*
X72817059Y-159893588D01*
X72817059Y-159893588D02*
X72936106Y-159750731D01*
X72936106Y-159750731D02*
X73055154Y-159679303D01*
X73055154Y-159679303D02*
X73293249Y-159607874D01*
X75674201Y-159607874D02*
X75912296Y-159607874D01*
X75912296Y-159607874D02*
X76150392Y-159679303D01*
X76150392Y-159679303D02*
X76269439Y-159750731D01*
X76269439Y-159750731D02*
X76388487Y-159893588D01*
X76388487Y-159893588D02*
X76507534Y-160179303D01*
X76507534Y-160179303D02*
X76507534Y-160536446D01*
X76507534Y-160536446D02*
X76388487Y-160822160D01*
X76388487Y-160822160D02*
X76269439Y-160965017D01*
X76269439Y-160965017D02*
X76150392Y-161036446D01*
X76150392Y-161036446D02*
X75912296Y-161107874D01*
X75912296Y-161107874D02*
X75674201Y-161107874D01*
X75674201Y-161107874D02*
X75436106Y-161036446D01*
X75436106Y-161036446D02*
X75317058Y-160965017D01*
X75317058Y-160965017D02*
X75198011Y-160822160D01*
X75198011Y-160822160D02*
X75078963Y-160536446D01*
X75078963Y-160536446D02*
X75078963Y-160179303D01*
X75078963Y-160179303D02*
X75198011Y-159893588D01*
X75198011Y-159893588D02*
X75317058Y-159750731D01*
X75317058Y-159750731D02*
X75436106Y-159679303D01*
X75436106Y-159679303D02*
X75674201Y-159607874D01*
D15*
X57771382Y-71155274D02*
X58628525Y-71155274D01*
X58199953Y-72655274D02*
X58199953Y-71155274D01*
X59414239Y-71155274D02*
X59699953Y-71155274D01*
X59699953Y-71155274D02*
X59842810Y-71226703D01*
X59842810Y-71226703D02*
X59985667Y-71369560D01*
X59985667Y-71369560D02*
X60057096Y-71655274D01*
X60057096Y-71655274D02*
X60057096Y-72155274D01*
X60057096Y-72155274D02*
X59985667Y-72440988D01*
X59985667Y-72440988D02*
X59842810Y-72583846D01*
X59842810Y-72583846D02*
X59699953Y-72655274D01*
X59699953Y-72655274D02*
X59414239Y-72655274D01*
X59414239Y-72655274D02*
X59271382Y-72583846D01*
X59271382Y-72583846D02*
X59128524Y-72440988D01*
X59128524Y-72440988D02*
X59057096Y-72155274D01*
X59057096Y-72155274D02*
X59057096Y-71655274D01*
X59057096Y-71655274D02*
X59128524Y-71369560D01*
X59128524Y-71369560D02*
X59271382Y-71226703D01*
X59271382Y-71226703D02*
X59414239Y-71155274D01*
X60699953Y-72655274D02*
X60699953Y-71155274D01*
X60699953Y-71155274D02*
X61557096Y-72655274D01*
X61557096Y-72655274D02*
X61557096Y-71155274D01*
X62271382Y-71869560D02*
X62771382Y-71869560D01*
X62985668Y-72655274D02*
X62271382Y-72655274D01*
X62271382Y-72655274D02*
X62271382Y-71155274D01*
X62271382Y-71155274D02*
X62985668Y-71155274D01*
D11*
X122212478Y-133253969D02*
X122164859Y-133301589D01*
X122164859Y-133301589D02*
X122022002Y-133349208D01*
X122022002Y-133349208D02*
X121926764Y-133349208D01*
X121926764Y-133349208D02*
X121783907Y-133301589D01*
X121783907Y-133301589D02*
X121688669Y-133206350D01*
X121688669Y-133206350D02*
X121641050Y-133111112D01*
X121641050Y-133111112D02*
X121593431Y-132920636D01*
X121593431Y-132920636D02*
X121593431Y-132777779D01*
X121593431Y-132777779D02*
X121641050Y-132587303D01*
X121641050Y-132587303D02*
X121688669Y-132492065D01*
X121688669Y-132492065D02*
X121783907Y-132396827D01*
X121783907Y-132396827D02*
X121926764Y-132349208D01*
X121926764Y-132349208D02*
X122022002Y-132349208D01*
X122022002Y-132349208D02*
X122164859Y-132396827D01*
X122164859Y-132396827D02*
X122212478Y-132444446D01*
X123117240Y-133349208D02*
X122641050Y-133349208D01*
X122641050Y-133349208D02*
X122641050Y-132349208D01*
X123450574Y-132825398D02*
X123783907Y-132825398D01*
X123926764Y-133349208D02*
X123450574Y-133349208D01*
X123450574Y-133349208D02*
X123450574Y-132349208D01*
X123450574Y-132349208D02*
X123926764Y-132349208D01*
X124307717Y-133063493D02*
X124783907Y-133063493D01*
X124212479Y-133349208D02*
X124545812Y-132349208D01*
X124545812Y-132349208D02*
X124879145Y-133349208D01*
X125212479Y-133349208D02*
X125212479Y-132349208D01*
X125212479Y-132349208D02*
X125783907Y-133349208D01*
X125783907Y-133349208D02*
X125783907Y-132349208D01*
X95248193Y-133299208D02*
X95248193Y-132299208D01*
X95248193Y-132299208D02*
X95486288Y-132299208D01*
X95486288Y-132299208D02*
X95629145Y-132346827D01*
X95629145Y-132346827D02*
X95724383Y-132442065D01*
X95724383Y-132442065D02*
X95772002Y-132537303D01*
X95772002Y-132537303D02*
X95819621Y-132727779D01*
X95819621Y-132727779D02*
X95819621Y-132870636D01*
X95819621Y-132870636D02*
X95772002Y-133061112D01*
X95772002Y-133061112D02*
X95724383Y-133156350D01*
X95724383Y-133156350D02*
X95629145Y-133251589D01*
X95629145Y-133251589D02*
X95486288Y-133299208D01*
X95486288Y-133299208D02*
X95248193Y-133299208D01*
X96248193Y-133299208D02*
X96248193Y-132299208D01*
X96676764Y-133251589D02*
X96819621Y-133299208D01*
X96819621Y-133299208D02*
X97057716Y-133299208D01*
X97057716Y-133299208D02*
X97152954Y-133251589D01*
X97152954Y-133251589D02*
X97200573Y-133203969D01*
X97200573Y-133203969D02*
X97248192Y-133108731D01*
X97248192Y-133108731D02*
X97248192Y-133013493D01*
X97248192Y-133013493D02*
X97200573Y-132918255D01*
X97200573Y-132918255D02*
X97152954Y-132870636D01*
X97152954Y-132870636D02*
X97057716Y-132823017D01*
X97057716Y-132823017D02*
X96867240Y-132775398D01*
X96867240Y-132775398D02*
X96772002Y-132727779D01*
X96772002Y-132727779D02*
X96724383Y-132680160D01*
X96724383Y-132680160D02*
X96676764Y-132584922D01*
X96676764Y-132584922D02*
X96676764Y-132489684D01*
X96676764Y-132489684D02*
X96724383Y-132394446D01*
X96724383Y-132394446D02*
X96772002Y-132346827D01*
X96772002Y-132346827D02*
X96867240Y-132299208D01*
X96867240Y-132299208D02*
X97105335Y-132299208D01*
X97105335Y-132299208D02*
X97248192Y-132346827D01*
X97533907Y-132299208D02*
X98105335Y-132299208D01*
X97819621Y-133299208D02*
X97819621Y-132299208D01*
X98629145Y-132299208D02*
X98819621Y-132299208D01*
X98819621Y-132299208D02*
X98914859Y-132346827D01*
X98914859Y-132346827D02*
X99010097Y-132442065D01*
X99010097Y-132442065D02*
X99057716Y-132632541D01*
X99057716Y-132632541D02*
X99057716Y-132965874D01*
X99057716Y-132965874D02*
X99010097Y-133156350D01*
X99010097Y-133156350D02*
X98914859Y-133251589D01*
X98914859Y-133251589D02*
X98819621Y-133299208D01*
X98819621Y-133299208D02*
X98629145Y-133299208D01*
X98629145Y-133299208D02*
X98533907Y-133251589D01*
X98533907Y-133251589D02*
X98438669Y-133156350D01*
X98438669Y-133156350D02*
X98391050Y-132965874D01*
X98391050Y-132965874D02*
X98391050Y-132632541D01*
X98391050Y-132632541D02*
X98438669Y-132442065D01*
X98438669Y-132442065D02*
X98533907Y-132346827D01*
X98533907Y-132346827D02*
X98629145Y-132299208D01*
X100057716Y-133299208D02*
X99724383Y-132823017D01*
X99486288Y-133299208D02*
X99486288Y-132299208D01*
X99486288Y-132299208D02*
X99867240Y-132299208D01*
X99867240Y-132299208D02*
X99962478Y-132346827D01*
X99962478Y-132346827D02*
X100010097Y-132394446D01*
X100010097Y-132394446D02*
X100057716Y-132489684D01*
X100057716Y-132489684D02*
X100057716Y-132632541D01*
X100057716Y-132632541D02*
X100010097Y-132727779D01*
X100010097Y-132727779D02*
X99962478Y-132775398D01*
X99962478Y-132775398D02*
X99867240Y-132823017D01*
X99867240Y-132823017D02*
X99486288Y-132823017D01*
X100343431Y-132299208D02*
X100914859Y-132299208D01*
X100629145Y-133299208D02*
X100629145Y-132299208D01*
X101248193Y-132775398D02*
X101581526Y-132775398D01*
X101724383Y-133299208D02*
X101248193Y-133299208D01*
X101248193Y-133299208D02*
X101248193Y-132299208D01*
X101248193Y-132299208D02*
X101724383Y-132299208D01*
X102152955Y-133299208D02*
X102152955Y-132299208D01*
X102152955Y-132299208D02*
X102391050Y-132299208D01*
X102391050Y-132299208D02*
X102533907Y-132346827D01*
X102533907Y-132346827D02*
X102629145Y-132442065D01*
X102629145Y-132442065D02*
X102676764Y-132537303D01*
X102676764Y-132537303D02*
X102724383Y-132727779D01*
X102724383Y-132727779D02*
X102724383Y-132870636D01*
X102724383Y-132870636D02*
X102676764Y-133061112D01*
X102676764Y-133061112D02*
X102629145Y-133156350D01*
X102629145Y-133156350D02*
X102533907Y-133251589D01*
X102533907Y-133251589D02*
X102391050Y-133299208D01*
X102391050Y-133299208D02*
X102152955Y-133299208D01*
D15*
X90286055Y-131742446D02*
X90286055Y-131056732D01*
X91486055Y-131399589D02*
X90286055Y-131399589D01*
X90286055Y-130428160D02*
X90286055Y-130199588D01*
X90286055Y-130199588D02*
X90343198Y-130085303D01*
X90343198Y-130085303D02*
X90457484Y-129971017D01*
X90457484Y-129971017D02*
X90686055Y-129913874D01*
X90686055Y-129913874D02*
X91086055Y-129913874D01*
X91086055Y-129913874D02*
X91314627Y-129971017D01*
X91314627Y-129971017D02*
X91428913Y-130085303D01*
X91428913Y-130085303D02*
X91486055Y-130199588D01*
X91486055Y-130199588D02*
X91486055Y-130428160D01*
X91486055Y-130428160D02*
X91428913Y-130542446D01*
X91428913Y-130542446D02*
X91314627Y-130656731D01*
X91314627Y-130656731D02*
X91086055Y-130713874D01*
X91086055Y-130713874D02*
X90686055Y-130713874D01*
X90686055Y-130713874D02*
X90457484Y-130656731D01*
X90457484Y-130656731D02*
X90343198Y-130542446D01*
X90343198Y-130542446D02*
X90286055Y-130428160D01*
X91486055Y-129399588D02*
X90286055Y-129399588D01*
X90286055Y-129399588D02*
X91486055Y-128713874D01*
X91486055Y-128713874D02*
X90286055Y-128713874D01*
X91486055Y-128142445D02*
X90286055Y-128142445D01*
X91486055Y-127571016D02*
X90286055Y-127571016D01*
X91486055Y-126885302D02*
X90800341Y-127399588D01*
X90286055Y-126885302D02*
X90971770Y-127571016D01*
X91486055Y-126371016D02*
X90286055Y-126371016D01*
X91486055Y-125228159D02*
X91486055Y-125799587D01*
X91486055Y-125799587D02*
X90286055Y-125799587D01*
X91486055Y-124256730D02*
X91486055Y-124828158D01*
X91486055Y-124828158D02*
X90286055Y-124828158D01*
X90857484Y-123856729D02*
X90857484Y-123456729D01*
X91486055Y-123285301D02*
X91486055Y-123856729D01*
X91486055Y-123856729D02*
X90286055Y-123856729D01*
X90286055Y-123856729D02*
X90286055Y-123285301D01*
X91486055Y-122085301D02*
X90914627Y-122485301D01*
X91486055Y-122771015D02*
X90286055Y-122771015D01*
X90286055Y-122771015D02*
X90286055Y-122313872D01*
X90286055Y-122313872D02*
X90343198Y-122199587D01*
X90343198Y-122199587D02*
X90400341Y-122142444D01*
X90400341Y-122142444D02*
X90514627Y-122085301D01*
X90514627Y-122085301D02*
X90686055Y-122085301D01*
X90686055Y-122085301D02*
X90800341Y-122142444D01*
X90800341Y-122142444D02*
X90857484Y-122199587D01*
X90857484Y-122199587D02*
X90914627Y-122313872D01*
X90914627Y-122313872D02*
X90914627Y-122771015D01*
X91486055Y-120942444D02*
X91486055Y-121628158D01*
X91486055Y-121285301D02*
X90286055Y-121285301D01*
X90286055Y-121285301D02*
X90457484Y-121399587D01*
X90457484Y-121399587D02*
X90571770Y-121513872D01*
X90571770Y-121513872D02*
X90628913Y-121628158D01*
X90286055Y-120199587D02*
X90286055Y-120085301D01*
X90286055Y-120085301D02*
X90343198Y-119971015D01*
X90343198Y-119971015D02*
X90400341Y-119913873D01*
X90400341Y-119913873D02*
X90514627Y-119856730D01*
X90514627Y-119856730D02*
X90743198Y-119799587D01*
X90743198Y-119799587D02*
X91028913Y-119799587D01*
X91028913Y-119799587D02*
X91257484Y-119856730D01*
X91257484Y-119856730D02*
X91371770Y-119913873D01*
X91371770Y-119913873D02*
X91428913Y-119971015D01*
X91428913Y-119971015D02*
X91486055Y-120085301D01*
X91486055Y-120085301D02*
X91486055Y-120199587D01*
X91486055Y-120199587D02*
X91428913Y-120313873D01*
X91428913Y-120313873D02*
X91371770Y-120371015D01*
X91371770Y-120371015D02*
X91257484Y-120428158D01*
X91257484Y-120428158D02*
X91028913Y-120485301D01*
X91028913Y-120485301D02*
X90743198Y-120485301D01*
X90743198Y-120485301D02*
X90514627Y-120428158D01*
X90514627Y-120428158D02*
X90400341Y-120371015D01*
X90400341Y-120371015D02*
X90343198Y-120313873D01*
X90343198Y-120313873D02*
X90286055Y-120199587D01*
X90286055Y-119056730D02*
X90286055Y-118942444D01*
X90286055Y-118942444D02*
X90343198Y-118828158D01*
X90343198Y-118828158D02*
X90400341Y-118771016D01*
X90400341Y-118771016D02*
X90514627Y-118713873D01*
X90514627Y-118713873D02*
X90743198Y-118656730D01*
X90743198Y-118656730D02*
X91028913Y-118656730D01*
X91028913Y-118656730D02*
X91257484Y-118713873D01*
X91257484Y-118713873D02*
X91371770Y-118771016D01*
X91371770Y-118771016D02*
X91428913Y-118828158D01*
X91428913Y-118828158D02*
X91486055Y-118942444D01*
X91486055Y-118942444D02*
X91486055Y-119056730D01*
X91486055Y-119056730D02*
X91428913Y-119171016D01*
X91428913Y-119171016D02*
X91371770Y-119228158D01*
X91371770Y-119228158D02*
X91257484Y-119285301D01*
X91257484Y-119285301D02*
X91028913Y-119342444D01*
X91028913Y-119342444D02*
X90743198Y-119342444D01*
X90743198Y-119342444D02*
X90514627Y-119285301D01*
X90514627Y-119285301D02*
X90400341Y-119228158D01*
X90400341Y-119228158D02*
X90343198Y-119171016D01*
X90343198Y-119171016D02*
X90286055Y-119056730D01*
X90286055Y-117913873D02*
X90286055Y-117799587D01*
X90286055Y-117799587D02*
X90343198Y-117685301D01*
X90343198Y-117685301D02*
X90400341Y-117628159D01*
X90400341Y-117628159D02*
X90514627Y-117571016D01*
X90514627Y-117571016D02*
X90743198Y-117513873D01*
X90743198Y-117513873D02*
X91028913Y-117513873D01*
X91028913Y-117513873D02*
X91257484Y-117571016D01*
X91257484Y-117571016D02*
X91371770Y-117628159D01*
X91371770Y-117628159D02*
X91428913Y-117685301D01*
X91428913Y-117685301D02*
X91486055Y-117799587D01*
X91486055Y-117799587D02*
X91486055Y-117913873D01*
X91486055Y-117913873D02*
X91428913Y-118028159D01*
X91428913Y-118028159D02*
X91371770Y-118085301D01*
X91371770Y-118085301D02*
X91257484Y-118142444D01*
X91257484Y-118142444D02*
X91028913Y-118199587D01*
X91028913Y-118199587D02*
X90743198Y-118199587D01*
X90743198Y-118199587D02*
X90514627Y-118142444D01*
X90514627Y-118142444D02*
X90400341Y-118085301D01*
X90400341Y-118085301D02*
X90343198Y-118028159D01*
X90343198Y-118028159D02*
X90286055Y-117913873D01*
X90286055Y-116771016D02*
X90286055Y-116656730D01*
X90286055Y-116656730D02*
X90343198Y-116542444D01*
X90343198Y-116542444D02*
X90400341Y-116485302D01*
X90400341Y-116485302D02*
X90514627Y-116428159D01*
X90514627Y-116428159D02*
X90743198Y-116371016D01*
X90743198Y-116371016D02*
X91028913Y-116371016D01*
X91028913Y-116371016D02*
X91257484Y-116428159D01*
X91257484Y-116428159D02*
X91371770Y-116485302D01*
X91371770Y-116485302D02*
X91428913Y-116542444D01*
X91428913Y-116542444D02*
X91486055Y-116656730D01*
X91486055Y-116656730D02*
X91486055Y-116771016D01*
X91486055Y-116771016D02*
X91428913Y-116885302D01*
X91428913Y-116885302D02*
X91371770Y-116942444D01*
X91371770Y-116942444D02*
X91257484Y-116999587D01*
X91257484Y-116999587D02*
X91028913Y-117056730D01*
X91028913Y-117056730D02*
X90743198Y-117056730D01*
X90743198Y-117056730D02*
X90514627Y-116999587D01*
X90514627Y-116999587D02*
X90400341Y-116942444D01*
X90400341Y-116942444D02*
X90343198Y-116885302D01*
X90343198Y-116885302D02*
X90286055Y-116771016D01*
X91486055Y-113971016D02*
X91486055Y-114028159D01*
X91486055Y-114028159D02*
X91428913Y-114142444D01*
X91428913Y-114142444D02*
X91257484Y-114313873D01*
X91257484Y-114313873D02*
X90914627Y-114599587D01*
X90914627Y-114599587D02*
X90743198Y-114713873D01*
X90743198Y-114713873D02*
X90571770Y-114771016D01*
X90571770Y-114771016D02*
X90457484Y-114771016D01*
X90457484Y-114771016D02*
X90343198Y-114713873D01*
X90343198Y-114713873D02*
X90286055Y-114599587D01*
X90286055Y-114599587D02*
X90286055Y-114542444D01*
X90286055Y-114542444D02*
X90343198Y-114428159D01*
X90343198Y-114428159D02*
X90457484Y-114371016D01*
X90457484Y-114371016D02*
X90514627Y-114371016D01*
X90514627Y-114371016D02*
X90628913Y-114428159D01*
X90628913Y-114428159D02*
X90686055Y-114485301D01*
X90686055Y-114485301D02*
X90914627Y-114828159D01*
X90914627Y-114828159D02*
X90971770Y-114885301D01*
X90971770Y-114885301D02*
X91086055Y-114942444D01*
X91086055Y-114942444D02*
X91257484Y-114942444D01*
X91257484Y-114942444D02*
X91371770Y-114885301D01*
X91371770Y-114885301D02*
X91428913Y-114828159D01*
X91428913Y-114828159D02*
X91486055Y-114713873D01*
X91486055Y-114713873D02*
X91486055Y-114542444D01*
X91486055Y-114542444D02*
X91428913Y-114428159D01*
X91428913Y-114428159D02*
X91371770Y-114371016D01*
X91371770Y-114371016D02*
X91143198Y-114199587D01*
X91143198Y-114199587D02*
X90971770Y-114142444D01*
X90971770Y-114142444D02*
X90857484Y-114142444D01*
X92217988Y-128142445D02*
X92217988Y-127456731D01*
X93417988Y-127799588D02*
X92217988Y-127799588D01*
X92617988Y-126542445D02*
X93417988Y-126542445D01*
X92617988Y-127056730D02*
X93246560Y-127056730D01*
X93246560Y-127056730D02*
X93360846Y-126999587D01*
X93360846Y-126999587D02*
X93417988Y-126885302D01*
X93417988Y-126885302D02*
X93417988Y-126713873D01*
X93417988Y-126713873D02*
X93360846Y-126599587D01*
X93360846Y-126599587D02*
X93303703Y-126542445D01*
X93417988Y-125456731D02*
X92217988Y-125456731D01*
X93360846Y-125456731D02*
X93417988Y-125571016D01*
X93417988Y-125571016D02*
X93417988Y-125799588D01*
X93417988Y-125799588D02*
X93360846Y-125913873D01*
X93360846Y-125913873D02*
X93303703Y-125971016D01*
X93303703Y-125971016D02*
X93189417Y-126028159D01*
X93189417Y-126028159D02*
X92846560Y-126028159D01*
X92846560Y-126028159D02*
X92732274Y-125971016D01*
X92732274Y-125971016D02*
X92675131Y-125913873D01*
X92675131Y-125913873D02*
X92617988Y-125799588D01*
X92617988Y-125799588D02*
X92617988Y-125571016D01*
X92617988Y-125571016D02*
X92675131Y-125456731D01*
X93417988Y-124713874D02*
X93360846Y-124828159D01*
X93360846Y-124828159D02*
X93303703Y-124885302D01*
X93303703Y-124885302D02*
X93189417Y-124942445D01*
X93189417Y-124942445D02*
X92846560Y-124942445D01*
X92846560Y-124942445D02*
X92732274Y-124885302D01*
X92732274Y-124885302D02*
X92675131Y-124828159D01*
X92675131Y-124828159D02*
X92617988Y-124713874D01*
X92617988Y-124713874D02*
X92617988Y-124542445D01*
X92617988Y-124542445D02*
X92675131Y-124428159D01*
X92675131Y-124428159D02*
X92732274Y-124371017D01*
X92732274Y-124371017D02*
X92846560Y-124313874D01*
X92846560Y-124313874D02*
X93189417Y-124313874D01*
X93189417Y-124313874D02*
X93303703Y-124371017D01*
X93303703Y-124371017D02*
X93360846Y-124428159D01*
X93360846Y-124428159D02*
X93417988Y-124542445D01*
X93417988Y-124542445D02*
X93417988Y-124713874D01*
X93417988Y-123799588D02*
X92617988Y-123799588D01*
X92846560Y-123799588D02*
X92732274Y-123742445D01*
X92732274Y-123742445D02*
X92675131Y-123685303D01*
X92675131Y-123685303D02*
X92617988Y-123571017D01*
X92617988Y-123571017D02*
X92617988Y-123456731D01*
X93360846Y-123113874D02*
X93417988Y-122942446D01*
X93417988Y-122942446D02*
X93417988Y-122656731D01*
X93417988Y-122656731D02*
X93360846Y-122542446D01*
X93360846Y-122542446D02*
X93303703Y-122485303D01*
X93303703Y-122485303D02*
X93189417Y-122428160D01*
X93189417Y-122428160D02*
X93075131Y-122428160D01*
X93075131Y-122428160D02*
X92960846Y-122485303D01*
X92960846Y-122485303D02*
X92903703Y-122542446D01*
X92903703Y-122542446D02*
X92846560Y-122656731D01*
X92846560Y-122656731D02*
X92789417Y-122885303D01*
X92789417Y-122885303D02*
X92732274Y-122999588D01*
X92732274Y-122999588D02*
X92675131Y-123056731D01*
X92675131Y-123056731D02*
X92560846Y-123113874D01*
X92560846Y-123113874D02*
X92446560Y-123113874D01*
X92446560Y-123113874D02*
X92332274Y-123056731D01*
X92332274Y-123056731D02*
X92275131Y-122999588D01*
X92275131Y-122999588D02*
X92217988Y-122885303D01*
X92217988Y-122885303D02*
X92217988Y-122599588D01*
X92217988Y-122599588D02*
X92275131Y-122428160D01*
X92617988Y-121399589D02*
X93417988Y-121399589D01*
X92617988Y-121913874D02*
X93246560Y-121913874D01*
X93246560Y-121913874D02*
X93360846Y-121856731D01*
X93360846Y-121856731D02*
X93417988Y-121742446D01*
X93417988Y-121742446D02*
X93417988Y-121571017D01*
X93417988Y-121571017D02*
X93360846Y-121456731D01*
X93360846Y-121456731D02*
X93303703Y-121399589D01*
X92617988Y-120828160D02*
X93817988Y-120828160D01*
X92675131Y-120828160D02*
X92617988Y-120713875D01*
X92617988Y-120713875D02*
X92617988Y-120485303D01*
X92617988Y-120485303D02*
X92675131Y-120371017D01*
X92675131Y-120371017D02*
X92732274Y-120313875D01*
X92732274Y-120313875D02*
X92846560Y-120256732D01*
X92846560Y-120256732D02*
X93189417Y-120256732D01*
X93189417Y-120256732D02*
X93303703Y-120313875D01*
X93303703Y-120313875D02*
X93360846Y-120371017D01*
X93360846Y-120371017D02*
X93417988Y-120485303D01*
X93417988Y-120485303D02*
X93417988Y-120713875D01*
X93417988Y-120713875D02*
X93360846Y-120828160D01*
X93417988Y-119742446D02*
X92617988Y-119742446D01*
X92217988Y-119742446D02*
X92275131Y-119799589D01*
X92275131Y-119799589D02*
X92332274Y-119742446D01*
X92332274Y-119742446D02*
X92275131Y-119685303D01*
X92275131Y-119685303D02*
X92217988Y-119742446D01*
X92217988Y-119742446D02*
X92332274Y-119742446D01*
X93360846Y-118656732D02*
X93417988Y-118771017D01*
X93417988Y-118771017D02*
X93417988Y-118999589D01*
X93417988Y-118999589D02*
X93360846Y-119113874D01*
X93360846Y-119113874D02*
X93303703Y-119171017D01*
X93303703Y-119171017D02*
X93189417Y-119228160D01*
X93189417Y-119228160D02*
X92846560Y-119228160D01*
X92846560Y-119228160D02*
X92732274Y-119171017D01*
X92732274Y-119171017D02*
X92675131Y-119113874D01*
X92675131Y-119113874D02*
X92617988Y-118999589D01*
X92617988Y-118999589D02*
X92617988Y-118771017D01*
X92617988Y-118771017D02*
X92675131Y-118656732D01*
X93417988Y-117628161D02*
X92789417Y-117628161D01*
X92789417Y-117628161D02*
X92675131Y-117685303D01*
X92675131Y-117685303D02*
X92617988Y-117799589D01*
X92617988Y-117799589D02*
X92617988Y-118028161D01*
X92617988Y-118028161D02*
X92675131Y-118142446D01*
X93360846Y-117628161D02*
X93417988Y-117742446D01*
X93417988Y-117742446D02*
X93417988Y-118028161D01*
X93417988Y-118028161D02*
X93360846Y-118142446D01*
X93360846Y-118142446D02*
X93246560Y-118199589D01*
X93246560Y-118199589D02*
X93132274Y-118199589D01*
X93132274Y-118199589D02*
X93017988Y-118142446D01*
X93017988Y-118142446D02*
X92960846Y-118028161D01*
X92960846Y-118028161D02*
X92960846Y-117742446D01*
X92960846Y-117742446D02*
X92903703Y-117628161D01*
D16*
X95972002Y-161105044D02*
X95972002Y-156105044D01*
X95972002Y-156105044D02*
X96567240Y-156105044D01*
X96567240Y-156105044D02*
X96924383Y-156343139D01*
X96924383Y-156343139D02*
X97162478Y-156819329D01*
X97162478Y-156819329D02*
X97281525Y-157295520D01*
X97281525Y-157295520D02*
X97400573Y-158247901D01*
X97400573Y-158247901D02*
X97400573Y-158962187D01*
X97400573Y-158962187D02*
X97281525Y-159914568D01*
X97281525Y-159914568D02*
X97162478Y-160390758D01*
X97162478Y-160390758D02*
X96924383Y-160866949D01*
X96924383Y-160866949D02*
X96567240Y-161105044D01*
X96567240Y-161105044D02*
X95972002Y-161105044D01*
X98472002Y-161105044D02*
X98472002Y-157771710D01*
X98472002Y-156105044D02*
X98352954Y-156343139D01*
X98352954Y-156343139D02*
X98472002Y-156581234D01*
X98472002Y-156581234D02*
X98591049Y-156343139D01*
X98591049Y-156343139D02*
X98472002Y-156105044D01*
X98472002Y-156105044D02*
X98472002Y-156581234D01*
X99543430Y-160866949D02*
X99781525Y-161105044D01*
X99781525Y-161105044D02*
X100257716Y-161105044D01*
X100257716Y-161105044D02*
X100495811Y-160866949D01*
X100495811Y-160866949D02*
X100614859Y-160390758D01*
X100614859Y-160390758D02*
X100614859Y-160152663D01*
X100614859Y-160152663D02*
X100495811Y-159676472D01*
X100495811Y-159676472D02*
X100257716Y-159438377D01*
X100257716Y-159438377D02*
X99900573Y-159438377D01*
X99900573Y-159438377D02*
X99662478Y-159200282D01*
X99662478Y-159200282D02*
X99543430Y-158724091D01*
X99543430Y-158724091D02*
X99543430Y-158485996D01*
X99543430Y-158485996D02*
X99662478Y-158009806D01*
X99662478Y-158009806D02*
X99900573Y-157771710D01*
X99900573Y-157771710D02*
X100257716Y-157771710D01*
X100257716Y-157771710D02*
X100495811Y-158009806D01*
X101329145Y-157771710D02*
X102281526Y-157771710D01*
X101686288Y-156105044D02*
X101686288Y-160390758D01*
X101686288Y-160390758D02*
X101805335Y-160866949D01*
X101805335Y-160866949D02*
X102043430Y-161105044D01*
X102043430Y-161105044D02*
X102281526Y-161105044D01*
X103472001Y-161105044D02*
X103233906Y-160866949D01*
X103233906Y-160866949D02*
X103114859Y-160628853D01*
X103114859Y-160628853D02*
X102995811Y-160152663D01*
X102995811Y-160152663D02*
X102995811Y-158724091D01*
X102995811Y-158724091D02*
X103114859Y-158247901D01*
X103114859Y-158247901D02*
X103233906Y-158009806D01*
X103233906Y-158009806D02*
X103472001Y-157771710D01*
X103472001Y-157771710D02*
X103829144Y-157771710D01*
X103829144Y-157771710D02*
X104067240Y-158009806D01*
X104067240Y-158009806D02*
X104186287Y-158247901D01*
X104186287Y-158247901D02*
X104305335Y-158724091D01*
X104305335Y-158724091D02*
X104305335Y-160152663D01*
X104305335Y-160152663D02*
X104186287Y-160628853D01*
X104186287Y-160628853D02*
X104067240Y-160866949D01*
X104067240Y-160866949D02*
X103829144Y-161105044D01*
X103829144Y-161105044D02*
X103472001Y-161105044D01*
X105376764Y-161105044D02*
X105376764Y-157771710D01*
X105376764Y-158724091D02*
X105495811Y-158247901D01*
X105495811Y-158247901D02*
X105614859Y-158009806D01*
X105614859Y-158009806D02*
X105852954Y-157771710D01*
X105852954Y-157771710D02*
X106091049Y-157771710D01*
X106805335Y-160866949D02*
X107043430Y-161105044D01*
X107043430Y-161105044D02*
X107519621Y-161105044D01*
X107519621Y-161105044D02*
X107757716Y-160866949D01*
X107757716Y-160866949D02*
X107876764Y-160390758D01*
X107876764Y-160390758D02*
X107876764Y-160152663D01*
X107876764Y-160152663D02*
X107757716Y-159676472D01*
X107757716Y-159676472D02*
X107519621Y-159438377D01*
X107519621Y-159438377D02*
X107162478Y-159438377D01*
X107162478Y-159438377D02*
X106924383Y-159200282D01*
X106924383Y-159200282D02*
X106805335Y-158724091D01*
X106805335Y-158724091D02*
X106805335Y-158485996D01*
X106805335Y-158485996D02*
X106924383Y-158009806D01*
X106924383Y-158009806D02*
X107162478Y-157771710D01*
X107162478Y-157771710D02*
X107519621Y-157771710D01*
X107519621Y-157771710D02*
X107757716Y-158009806D01*
X108948193Y-161105044D02*
X108948193Y-157771710D01*
X108948193Y-156105044D02*
X108829145Y-156343139D01*
X108829145Y-156343139D02*
X108948193Y-156581234D01*
X108948193Y-156581234D02*
X109067240Y-156343139D01*
X109067240Y-156343139D02*
X108948193Y-156105044D01*
X108948193Y-156105044D02*
X108948193Y-156581234D01*
X110495811Y-161105044D02*
X110257716Y-160866949D01*
X110257716Y-160866949D02*
X110138669Y-160628853D01*
X110138669Y-160628853D02*
X110019621Y-160152663D01*
X110019621Y-160152663D02*
X110019621Y-158724091D01*
X110019621Y-158724091D02*
X110138669Y-158247901D01*
X110138669Y-158247901D02*
X110257716Y-158009806D01*
X110257716Y-158009806D02*
X110495811Y-157771710D01*
X110495811Y-157771710D02*
X110852954Y-157771710D01*
X110852954Y-157771710D02*
X111091050Y-158009806D01*
X111091050Y-158009806D02*
X111210097Y-158247901D01*
X111210097Y-158247901D02*
X111329145Y-158724091D01*
X111329145Y-158724091D02*
X111329145Y-160152663D01*
X111329145Y-160152663D02*
X111210097Y-160628853D01*
X111210097Y-160628853D02*
X111091050Y-160866949D01*
X111091050Y-160866949D02*
X110852954Y-161105044D01*
X110852954Y-161105044D02*
X110495811Y-161105044D01*
X112400574Y-157771710D02*
X112400574Y-161105044D01*
X112400574Y-158247901D02*
X112519621Y-158009806D01*
X112519621Y-158009806D02*
X112757716Y-157771710D01*
X112757716Y-157771710D02*
X113114859Y-157771710D01*
X113114859Y-157771710D02*
X113352955Y-158009806D01*
X113352955Y-158009806D02*
X113472002Y-158485996D01*
X113472002Y-158485996D02*
X113472002Y-161105044D01*
X116567241Y-161105044D02*
X116567241Y-156105044D01*
X116567241Y-156105044D02*
X117519622Y-156105044D01*
X117519622Y-156105044D02*
X117757717Y-156343139D01*
X117757717Y-156343139D02*
X117876764Y-156581234D01*
X117876764Y-156581234D02*
X117995812Y-157057425D01*
X117995812Y-157057425D02*
X117995812Y-157771710D01*
X117995812Y-157771710D02*
X117876764Y-158247901D01*
X117876764Y-158247901D02*
X117757717Y-158485996D01*
X117757717Y-158485996D02*
X117519622Y-158724091D01*
X117519622Y-158724091D02*
X116567241Y-158724091D01*
X120019622Y-160866949D02*
X119781526Y-161105044D01*
X119781526Y-161105044D02*
X119305336Y-161105044D01*
X119305336Y-161105044D02*
X119067241Y-160866949D01*
X119067241Y-160866949D02*
X118948193Y-160390758D01*
X118948193Y-160390758D02*
X118948193Y-158485996D01*
X118948193Y-158485996D02*
X119067241Y-158009806D01*
X119067241Y-158009806D02*
X119305336Y-157771710D01*
X119305336Y-157771710D02*
X119781526Y-157771710D01*
X119781526Y-157771710D02*
X120019622Y-158009806D01*
X120019622Y-158009806D02*
X120138669Y-158485996D01*
X120138669Y-158485996D02*
X120138669Y-158962187D01*
X120138669Y-158962187D02*
X118948193Y-159438377D01*
X122281526Y-161105044D02*
X122281526Y-156105044D01*
X122281526Y-160866949D02*
X122043431Y-161105044D01*
X122043431Y-161105044D02*
X121567240Y-161105044D01*
X121567240Y-161105044D02*
X121329145Y-160866949D01*
X121329145Y-160866949D02*
X121210098Y-160628853D01*
X121210098Y-160628853D02*
X121091050Y-160152663D01*
X121091050Y-160152663D02*
X121091050Y-158724091D01*
X121091050Y-158724091D02*
X121210098Y-158247901D01*
X121210098Y-158247901D02*
X121329145Y-158009806D01*
X121329145Y-158009806D02*
X121567240Y-157771710D01*
X121567240Y-157771710D02*
X122043431Y-157771710D01*
X122043431Y-157771710D02*
X122281526Y-158009806D01*
X124543431Y-161105044D02*
X124543431Y-158485996D01*
X124543431Y-158485996D02*
X124424384Y-158009806D01*
X124424384Y-158009806D02*
X124186288Y-157771710D01*
X124186288Y-157771710D02*
X123710098Y-157771710D01*
X123710098Y-157771710D02*
X123472003Y-158009806D01*
X124543431Y-160866949D02*
X124305336Y-161105044D01*
X124305336Y-161105044D02*
X123710098Y-161105044D01*
X123710098Y-161105044D02*
X123472003Y-160866949D01*
X123472003Y-160866949D02*
X123352955Y-160390758D01*
X123352955Y-160390758D02*
X123352955Y-159914568D01*
X123352955Y-159914568D02*
X123472003Y-159438377D01*
X123472003Y-159438377D02*
X123710098Y-159200282D01*
X123710098Y-159200282D02*
X124305336Y-159200282D01*
X124305336Y-159200282D02*
X124543431Y-158962187D01*
X126091050Y-161105044D02*
X125852955Y-160866949D01*
X125852955Y-160866949D02*
X125733908Y-160390758D01*
X125733908Y-160390758D02*
X125733908Y-156105044D01*
D13*
X129620955Y-128710742D02*
X129620955Y-126425028D01*
X133620955Y-127567885D02*
X129620955Y-127567885D01*
X133620955Y-125091695D02*
X129620955Y-125091695D01*
X129620955Y-125091695D02*
X129620955Y-124139314D01*
X129620955Y-124139314D02*
X129811431Y-123567885D01*
X129811431Y-123567885D02*
X130192383Y-123186933D01*
X130192383Y-123186933D02*
X130573336Y-122996456D01*
X130573336Y-122996456D02*
X131335240Y-122805980D01*
X131335240Y-122805980D02*
X131906669Y-122805980D01*
X131906669Y-122805980D02*
X132668574Y-122996456D01*
X132668574Y-122996456D02*
X133049526Y-123186933D01*
X133049526Y-123186933D02*
X133430479Y-123567885D01*
X133430479Y-123567885D02*
X133620955Y-124139314D01*
X133620955Y-124139314D02*
X133620955Y-125091695D01*
X133430479Y-121282171D02*
X133620955Y-120710742D01*
X133620955Y-120710742D02*
X133620955Y-119758361D01*
X133620955Y-119758361D02*
X133430479Y-119377409D01*
X133430479Y-119377409D02*
X133240002Y-119186933D01*
X133240002Y-119186933D02*
X132859050Y-118996456D01*
X132859050Y-118996456D02*
X132478098Y-118996456D01*
X132478098Y-118996456D02*
X132097145Y-119186933D01*
X132097145Y-119186933D02*
X131906669Y-119377409D01*
X131906669Y-119377409D02*
X131716193Y-119758361D01*
X131716193Y-119758361D02*
X131525717Y-120520266D01*
X131525717Y-120520266D02*
X131335240Y-120901218D01*
X131335240Y-120901218D02*
X131144764Y-121091695D01*
X131144764Y-121091695D02*
X130763812Y-121282171D01*
X130763812Y-121282171D02*
X130382859Y-121282171D01*
X130382859Y-121282171D02*
X130001907Y-121091695D01*
X130001907Y-121091695D02*
X129811431Y-120901218D01*
X129811431Y-120901218D02*
X129620955Y-120520266D01*
X129620955Y-120520266D02*
X129620955Y-119567885D01*
X129620955Y-119567885D02*
X129811431Y-118996456D01*
D14*
X93987350Y-69624715D02*
G75*
G02*
X86987350Y-69624715I-3500000J0D01*
G01*
X86987350Y-69624715D02*
G75*
G02*
X93987350Y-69624715I3500000J0D01*
G01*
X93987350Y-158624717D02*
G75*
G02*
X86987350Y-158624717I-3500000J0D01*
G01*
X86987350Y-158624717D02*
G75*
G02*
X93987350Y-158624717I3500000J0D01*
G01*
X135987352Y-69624715D02*
G75*
G02*
X128987352Y-69624715I-3500000J0D01*
G01*
X128987352Y-69624715D02*
G75*
G02*
X135987352Y-69624715I3500000J0D01*
G01*
X135987352Y-158624717D02*
G75*
G02*
X128987352Y-158624717I-3500000J0D01*
G01*
X128987352Y-158624717D02*
G75*
G02*
X135987352Y-158624717I3500000J0D01*
G01*
D11*
X92062098Y-109718636D02*
X92062098Y-109528160D01*
X92062098Y-109528160D02*
X92109717Y-109432922D01*
X92109717Y-109432922D02*
X92204955Y-109337684D01*
X92204955Y-109337684D02*
X92395431Y-109290065D01*
X92395431Y-109290065D02*
X92728764Y-109290065D01*
X92728764Y-109290065D02*
X92919240Y-109337684D01*
X92919240Y-109337684D02*
X93014479Y-109432922D01*
X93014479Y-109432922D02*
X93062098Y-109528160D01*
X93062098Y-109528160D02*
X93062098Y-109718636D01*
X93062098Y-109718636D02*
X93014479Y-109813874D01*
X93014479Y-109813874D02*
X92919240Y-109909112D01*
X92919240Y-109909112D02*
X92728764Y-109956731D01*
X92728764Y-109956731D02*
X92395431Y-109956731D01*
X92395431Y-109956731D02*
X92204955Y-109909112D01*
X92204955Y-109909112D02*
X92109717Y-109813874D01*
X92109717Y-109813874D02*
X92062098Y-109718636D01*
X93062098Y-108861493D02*
X92062098Y-108861493D01*
X92062098Y-108861493D02*
X93062098Y-108290065D01*
X93062098Y-108290065D02*
X92062098Y-108290065D01*
D15*
X120652704Y-71100417D02*
X121152704Y-72600417D01*
X121152704Y-72600417D02*
X121652704Y-71100417D01*
X122438418Y-71100417D02*
X122724132Y-71100417D01*
X122724132Y-71100417D02*
X122866989Y-71171846D01*
X122866989Y-71171846D02*
X123009846Y-71314703D01*
X123009846Y-71314703D02*
X123081275Y-71600417D01*
X123081275Y-71600417D02*
X123081275Y-72100417D01*
X123081275Y-72100417D02*
X123009846Y-72386131D01*
X123009846Y-72386131D02*
X122866989Y-72528989D01*
X122866989Y-72528989D02*
X122724132Y-72600417D01*
X122724132Y-72600417D02*
X122438418Y-72600417D01*
X122438418Y-72600417D02*
X122295561Y-72528989D01*
X122295561Y-72528989D02*
X122152703Y-72386131D01*
X122152703Y-72386131D02*
X122081275Y-72100417D01*
X122081275Y-72100417D02*
X122081275Y-71600417D01*
X122081275Y-71600417D02*
X122152703Y-71314703D01*
X122152703Y-71314703D02*
X122295561Y-71171846D01*
X122295561Y-71171846D02*
X122438418Y-71100417D01*
X124438418Y-72600417D02*
X123724132Y-72600417D01*
X123724132Y-72600417D02*
X123724132Y-71100417D01*
X124938418Y-71100417D02*
X124938418Y-72314703D01*
X124938418Y-72314703D02*
X125009847Y-72457560D01*
X125009847Y-72457560D02*
X125081276Y-72528989D01*
X125081276Y-72528989D02*
X125224133Y-72600417D01*
X125224133Y-72600417D02*
X125509847Y-72600417D01*
X125509847Y-72600417D02*
X125652704Y-72528989D01*
X125652704Y-72528989D02*
X125724133Y-72457560D01*
X125724133Y-72457560D02*
X125795561Y-72314703D01*
X125795561Y-72314703D02*
X125795561Y-71100417D01*
X126509847Y-72600417D02*
X126509847Y-71100417D01*
X126509847Y-71100417D02*
X127009847Y-72171846D01*
X127009847Y-72171846D02*
X127509847Y-71100417D01*
X127509847Y-71100417D02*
X127509847Y-72600417D01*
X128224133Y-71814703D02*
X128724133Y-71814703D01*
X128938419Y-72600417D02*
X128224133Y-72600417D01*
X128224133Y-72600417D02*
X128224133Y-71100417D01*
X128224133Y-71100417D02*
X128938419Y-71100417D01*
D16*
X96172002Y-160655044D02*
X96172002Y-155655044D01*
X96172002Y-155655044D02*
X96767240Y-155655044D01*
X96767240Y-155655044D02*
X97124383Y-155893139D01*
X97124383Y-155893139D02*
X97362478Y-156369329D01*
X97362478Y-156369329D02*
X97481525Y-156845520D01*
X97481525Y-156845520D02*
X97600573Y-157797901D01*
X97600573Y-157797901D02*
X97600573Y-158512187D01*
X97600573Y-158512187D02*
X97481525Y-159464568D01*
X97481525Y-159464568D02*
X97362478Y-159940758D01*
X97362478Y-159940758D02*
X97124383Y-160416949D01*
X97124383Y-160416949D02*
X96767240Y-160655044D01*
X96767240Y-160655044D02*
X96172002Y-160655044D01*
X98672002Y-160655044D02*
X98672002Y-157321710D01*
X98672002Y-155655044D02*
X98552954Y-155893139D01*
X98552954Y-155893139D02*
X98672002Y-156131234D01*
X98672002Y-156131234D02*
X98791049Y-155893139D01*
X98791049Y-155893139D02*
X98672002Y-155655044D01*
X98672002Y-155655044D02*
X98672002Y-156131234D01*
X99743430Y-160416949D02*
X99981525Y-160655044D01*
X99981525Y-160655044D02*
X100457716Y-160655044D01*
X100457716Y-160655044D02*
X100695811Y-160416949D01*
X100695811Y-160416949D02*
X100814859Y-159940758D01*
X100814859Y-159940758D02*
X100814859Y-159702663D01*
X100814859Y-159702663D02*
X100695811Y-159226472D01*
X100695811Y-159226472D02*
X100457716Y-158988377D01*
X100457716Y-158988377D02*
X100100573Y-158988377D01*
X100100573Y-158988377D02*
X99862478Y-158750282D01*
X99862478Y-158750282D02*
X99743430Y-158274091D01*
X99743430Y-158274091D02*
X99743430Y-158035996D01*
X99743430Y-158035996D02*
X99862478Y-157559806D01*
X99862478Y-157559806D02*
X100100573Y-157321710D01*
X100100573Y-157321710D02*
X100457716Y-157321710D01*
X100457716Y-157321710D02*
X100695811Y-157559806D01*
X101529145Y-157321710D02*
X102481526Y-157321710D01*
X101886288Y-155655044D02*
X101886288Y-159940758D01*
X101886288Y-159940758D02*
X102005335Y-160416949D01*
X102005335Y-160416949D02*
X102243430Y-160655044D01*
X102243430Y-160655044D02*
X102481526Y-160655044D01*
X103672001Y-160655044D02*
X103433906Y-160416949D01*
X103433906Y-160416949D02*
X103314859Y-160178853D01*
X103314859Y-160178853D02*
X103195811Y-159702663D01*
X103195811Y-159702663D02*
X103195811Y-158274091D01*
X103195811Y-158274091D02*
X103314859Y-157797901D01*
X103314859Y-157797901D02*
X103433906Y-157559806D01*
X103433906Y-157559806D02*
X103672001Y-157321710D01*
X103672001Y-157321710D02*
X104029144Y-157321710D01*
X104029144Y-157321710D02*
X104267240Y-157559806D01*
X104267240Y-157559806D02*
X104386287Y-157797901D01*
X104386287Y-157797901D02*
X104505335Y-158274091D01*
X104505335Y-158274091D02*
X104505335Y-159702663D01*
X104505335Y-159702663D02*
X104386287Y-160178853D01*
X104386287Y-160178853D02*
X104267240Y-160416949D01*
X104267240Y-160416949D02*
X104029144Y-160655044D01*
X104029144Y-160655044D02*
X103672001Y-160655044D01*
X105576764Y-160655044D02*
X105576764Y-157321710D01*
X105576764Y-158274091D02*
X105695811Y-157797901D01*
X105695811Y-157797901D02*
X105814859Y-157559806D01*
X105814859Y-157559806D02*
X106052954Y-157321710D01*
X106052954Y-157321710D02*
X106291049Y-157321710D01*
X107005335Y-160416949D02*
X107243430Y-160655044D01*
X107243430Y-160655044D02*
X107719621Y-160655044D01*
X107719621Y-160655044D02*
X107957716Y-160416949D01*
X107957716Y-160416949D02*
X108076764Y-159940758D01*
X108076764Y-159940758D02*
X108076764Y-159702663D01*
X108076764Y-159702663D02*
X107957716Y-159226472D01*
X107957716Y-159226472D02*
X107719621Y-158988377D01*
X107719621Y-158988377D02*
X107362478Y-158988377D01*
X107362478Y-158988377D02*
X107124383Y-158750282D01*
X107124383Y-158750282D02*
X107005335Y-158274091D01*
X107005335Y-158274091D02*
X107005335Y-158035996D01*
X107005335Y-158035996D02*
X107124383Y-157559806D01*
X107124383Y-157559806D02*
X107362478Y-157321710D01*
X107362478Y-157321710D02*
X107719621Y-157321710D01*
X107719621Y-157321710D02*
X107957716Y-157559806D01*
X109148193Y-160655044D02*
X109148193Y-157321710D01*
X109148193Y-155655044D02*
X109029145Y-155893139D01*
X109029145Y-155893139D02*
X109148193Y-156131234D01*
X109148193Y-156131234D02*
X109267240Y-155893139D01*
X109267240Y-155893139D02*
X109148193Y-155655044D01*
X109148193Y-155655044D02*
X109148193Y-156131234D01*
X110695811Y-160655044D02*
X110457716Y-160416949D01*
X110457716Y-160416949D02*
X110338669Y-160178853D01*
X110338669Y-160178853D02*
X110219621Y-159702663D01*
X110219621Y-159702663D02*
X110219621Y-158274091D01*
X110219621Y-158274091D02*
X110338669Y-157797901D01*
X110338669Y-157797901D02*
X110457716Y-157559806D01*
X110457716Y-157559806D02*
X110695811Y-157321710D01*
X110695811Y-157321710D02*
X111052954Y-157321710D01*
X111052954Y-157321710D02*
X111291050Y-157559806D01*
X111291050Y-157559806D02*
X111410097Y-157797901D01*
X111410097Y-157797901D02*
X111529145Y-158274091D01*
X111529145Y-158274091D02*
X111529145Y-159702663D01*
X111529145Y-159702663D02*
X111410097Y-160178853D01*
X111410097Y-160178853D02*
X111291050Y-160416949D01*
X111291050Y-160416949D02*
X111052954Y-160655044D01*
X111052954Y-160655044D02*
X110695811Y-160655044D01*
X112600574Y-157321710D02*
X112600574Y-160655044D01*
X112600574Y-157797901D02*
X112719621Y-157559806D01*
X112719621Y-157559806D02*
X112957716Y-157321710D01*
X112957716Y-157321710D02*
X113314859Y-157321710D01*
X113314859Y-157321710D02*
X113552955Y-157559806D01*
X113552955Y-157559806D02*
X113672002Y-158035996D01*
X113672002Y-158035996D02*
X113672002Y-160655044D01*
X116767241Y-160655044D02*
X116767241Y-155655044D01*
X116767241Y-155655044D02*
X117719622Y-155655044D01*
X117719622Y-155655044D02*
X117957717Y-155893139D01*
X117957717Y-155893139D02*
X118076764Y-156131234D01*
X118076764Y-156131234D02*
X118195812Y-156607425D01*
X118195812Y-156607425D02*
X118195812Y-157321710D01*
X118195812Y-157321710D02*
X118076764Y-157797901D01*
X118076764Y-157797901D02*
X117957717Y-158035996D01*
X117957717Y-158035996D02*
X117719622Y-158274091D01*
X117719622Y-158274091D02*
X116767241Y-158274091D01*
X120219622Y-160416949D02*
X119981526Y-160655044D01*
X119981526Y-160655044D02*
X119505336Y-160655044D01*
X119505336Y-160655044D02*
X119267241Y-160416949D01*
X119267241Y-160416949D02*
X119148193Y-159940758D01*
X119148193Y-159940758D02*
X119148193Y-158035996D01*
X119148193Y-158035996D02*
X119267241Y-157559806D01*
X119267241Y-157559806D02*
X119505336Y-157321710D01*
X119505336Y-157321710D02*
X119981526Y-157321710D01*
X119981526Y-157321710D02*
X120219622Y-157559806D01*
X120219622Y-157559806D02*
X120338669Y-158035996D01*
X120338669Y-158035996D02*
X120338669Y-158512187D01*
X120338669Y-158512187D02*
X119148193Y-158988377D01*
X122481526Y-160655044D02*
X122481526Y-155655044D01*
X122481526Y-160416949D02*
X122243431Y-160655044D01*
X122243431Y-160655044D02*
X121767240Y-160655044D01*
X121767240Y-160655044D02*
X121529145Y-160416949D01*
X121529145Y-160416949D02*
X121410098Y-160178853D01*
X121410098Y-160178853D02*
X121291050Y-159702663D01*
X121291050Y-159702663D02*
X121291050Y-158274091D01*
X121291050Y-158274091D02*
X121410098Y-157797901D01*
X121410098Y-157797901D02*
X121529145Y-157559806D01*
X121529145Y-157559806D02*
X121767240Y-157321710D01*
X121767240Y-157321710D02*
X122243431Y-157321710D01*
X122243431Y-157321710D02*
X122481526Y-157559806D01*
X124743431Y-160655044D02*
X124743431Y-158035996D01*
X124743431Y-158035996D02*
X124624384Y-157559806D01*
X124624384Y-157559806D02*
X124386288Y-157321710D01*
X124386288Y-157321710D02*
X123910098Y-157321710D01*
X123910098Y-157321710D02*
X123672003Y-157559806D01*
X124743431Y-160416949D02*
X124505336Y-160655044D01*
X124505336Y-160655044D02*
X123910098Y-160655044D01*
X123910098Y-160655044D02*
X123672003Y-160416949D01*
X123672003Y-160416949D02*
X123552955Y-159940758D01*
X123552955Y-159940758D02*
X123552955Y-159464568D01*
X123552955Y-159464568D02*
X123672003Y-158988377D01*
X123672003Y-158988377D02*
X123910098Y-158750282D01*
X123910098Y-158750282D02*
X124505336Y-158750282D01*
X124505336Y-158750282D02*
X124743431Y-158512187D01*
X126291050Y-160655044D02*
X126052955Y-160416949D01*
X126052955Y-160416949D02*
X125933908Y-159940758D01*
X125933908Y-159940758D02*
X125933908Y-155655044D01*
D11*
X92062098Y-105551969D02*
X92062098Y-105361493D01*
X92062098Y-105361493D02*
X92109717Y-105266255D01*
X92109717Y-105266255D02*
X92204955Y-105171017D01*
X92204955Y-105171017D02*
X92395431Y-105123398D01*
X92395431Y-105123398D02*
X92728764Y-105123398D01*
X92728764Y-105123398D02*
X92919240Y-105171017D01*
X92919240Y-105171017D02*
X93014479Y-105266255D01*
X93014479Y-105266255D02*
X93062098Y-105361493D01*
X93062098Y-105361493D02*
X93062098Y-105551969D01*
X93062098Y-105551969D02*
X93014479Y-105647207D01*
X93014479Y-105647207D02*
X92919240Y-105742445D01*
X92919240Y-105742445D02*
X92728764Y-105790064D01*
X92728764Y-105790064D02*
X92395431Y-105790064D01*
X92395431Y-105790064D02*
X92204955Y-105742445D01*
X92204955Y-105742445D02*
X92109717Y-105647207D01*
X92109717Y-105647207D02*
X92062098Y-105551969D01*
X92538288Y-104361493D02*
X92538288Y-104694826D01*
X93062098Y-104694826D02*
X92062098Y-104694826D01*
X92062098Y-104694826D02*
X92062098Y-104218636D01*
X92538288Y-103504350D02*
X92538288Y-103837683D01*
X93062098Y-103837683D02*
X92062098Y-103837683D01*
X92062098Y-103837683D02*
X92062098Y-103361493D01*
D15*
X107424132Y-72357560D02*
X107352704Y-72428989D01*
X107352704Y-72428989D02*
X107138418Y-72500417D01*
X107138418Y-72500417D02*
X106995561Y-72500417D01*
X106995561Y-72500417D02*
X106781275Y-72428989D01*
X106781275Y-72428989D02*
X106638418Y-72286131D01*
X106638418Y-72286131D02*
X106566989Y-72143274D01*
X106566989Y-72143274D02*
X106495561Y-71857560D01*
X106495561Y-71857560D02*
X106495561Y-71643274D01*
X106495561Y-71643274D02*
X106566989Y-71357560D01*
X106566989Y-71357560D02*
X106638418Y-71214703D01*
X106638418Y-71214703D02*
X106781275Y-71071846D01*
X106781275Y-71071846D02*
X106995561Y-71000417D01*
X106995561Y-71000417D02*
X107138418Y-71000417D01*
X107138418Y-71000417D02*
X107352704Y-71071846D01*
X107352704Y-71071846D02*
X107424132Y-71143274D01*
X108781275Y-72500417D02*
X108066989Y-72500417D01*
X108066989Y-72500417D02*
X108066989Y-71000417D01*
X109281275Y-72500417D02*
X109281275Y-71000417D01*
X109995561Y-72500417D02*
X109995561Y-71000417D01*
X109995561Y-71000417D02*
X110566990Y-71000417D01*
X110566990Y-71000417D02*
X110709847Y-71071846D01*
X110709847Y-71071846D02*
X110781276Y-71143274D01*
X110781276Y-71143274D02*
X110852704Y-71286131D01*
X110852704Y-71286131D02*
X110852704Y-71500417D01*
X110852704Y-71500417D02*
X110781276Y-71643274D01*
X110781276Y-71643274D02*
X110709847Y-71714703D01*
X110709847Y-71714703D02*
X110566990Y-71786131D01*
X110566990Y-71786131D02*
X109995561Y-71786131D01*
X111495561Y-72500417D02*
X111495561Y-71000417D01*
X111495561Y-71000417D02*
X112066990Y-71000417D01*
X112066990Y-71000417D02*
X112209847Y-71071846D01*
X112209847Y-71071846D02*
X112281276Y-71143274D01*
X112281276Y-71143274D02*
X112352704Y-71286131D01*
X112352704Y-71286131D02*
X112352704Y-71500417D01*
X112352704Y-71500417D02*
X112281276Y-71643274D01*
X112281276Y-71643274D02*
X112209847Y-71714703D01*
X112209847Y-71714703D02*
X112066990Y-71786131D01*
X112066990Y-71786131D02*
X111495561Y-71786131D01*
X112995561Y-72500417D02*
X112995561Y-71000417D01*
X113709847Y-72500417D02*
X113709847Y-71000417D01*
X113709847Y-71000417D02*
X114566990Y-72500417D01*
X114566990Y-72500417D02*
X114566990Y-71000417D01*
X116066991Y-71071846D02*
X115924134Y-71000417D01*
X115924134Y-71000417D02*
X115709848Y-71000417D01*
X115709848Y-71000417D02*
X115495562Y-71071846D01*
X115495562Y-71071846D02*
X115352705Y-71214703D01*
X115352705Y-71214703D02*
X115281276Y-71357560D01*
X115281276Y-71357560D02*
X115209848Y-71643274D01*
X115209848Y-71643274D02*
X115209848Y-71857560D01*
X115209848Y-71857560D02*
X115281276Y-72143274D01*
X115281276Y-72143274D02*
X115352705Y-72286131D01*
X115352705Y-72286131D02*
X115495562Y-72428989D01*
X115495562Y-72428989D02*
X115709848Y-72500417D01*
X115709848Y-72500417D02*
X115852705Y-72500417D01*
X115852705Y-72500417D02*
X116066991Y-72428989D01*
X116066991Y-72428989D02*
X116138419Y-72357560D01*
X116138419Y-72357560D02*
X116138419Y-71857560D01*
X116138419Y-71857560D02*
X115852705Y-71857560D01*
D12*
X94961288Y-104693579D02*
X94818431Y-104645960D01*
X94818431Y-104645960D02*
X94770812Y-104598341D01*
X94770812Y-104598341D02*
X94723193Y-104503103D01*
X94723193Y-104503103D02*
X94723193Y-104360246D01*
X94723193Y-104360246D02*
X94770812Y-104265008D01*
X94770812Y-104265008D02*
X94818431Y-104217389D01*
X94818431Y-104217389D02*
X94913669Y-104169769D01*
X94913669Y-104169769D02*
X95294621Y-104169769D01*
X95294621Y-104169769D02*
X95294621Y-105169769D01*
X95294621Y-105169769D02*
X94961288Y-105169769D01*
X94961288Y-105169769D02*
X94866050Y-105122150D01*
X94866050Y-105122150D02*
X94818431Y-105074531D01*
X94818431Y-105074531D02*
X94770812Y-104979293D01*
X94770812Y-104979293D02*
X94770812Y-104884055D01*
X94770812Y-104884055D02*
X94818431Y-104788817D01*
X94818431Y-104788817D02*
X94866050Y-104741198D01*
X94866050Y-104741198D02*
X94961288Y-104693579D01*
X94961288Y-104693579D02*
X95294621Y-104693579D01*
X94342240Y-104364055D02*
X93732717Y-104364055D01*
D15*
X95752704Y-71271846D02*
X95609847Y-71200417D01*
X95609847Y-71200417D02*
X95395561Y-71200417D01*
X95395561Y-71200417D02*
X95181275Y-71271846D01*
X95181275Y-71271846D02*
X95038418Y-71414703D01*
X95038418Y-71414703D02*
X94966989Y-71557560D01*
X94966989Y-71557560D02*
X94895561Y-71843274D01*
X94895561Y-71843274D02*
X94895561Y-72057560D01*
X94895561Y-72057560D02*
X94966989Y-72343274D01*
X94966989Y-72343274D02*
X95038418Y-72486131D01*
X95038418Y-72486131D02*
X95181275Y-72628989D01*
X95181275Y-72628989D02*
X95395561Y-72700417D01*
X95395561Y-72700417D02*
X95538418Y-72700417D01*
X95538418Y-72700417D02*
X95752704Y-72628989D01*
X95752704Y-72628989D02*
X95824132Y-72557560D01*
X95824132Y-72557560D02*
X95824132Y-72057560D01*
X95824132Y-72057560D02*
X95538418Y-72057560D01*
X96395561Y-72271846D02*
X97109847Y-72271846D01*
X96252704Y-72700417D02*
X96752704Y-71200417D01*
X96752704Y-71200417D02*
X97252704Y-72700417D01*
X97752703Y-72700417D02*
X97752703Y-71200417D01*
X98466989Y-72700417D02*
X98466989Y-71200417D01*
X98466989Y-71200417D02*
X99324132Y-72700417D01*
X99324132Y-72700417D02*
X99324132Y-71200417D01*
D12*
X97786288Y-104743579D02*
X97643431Y-104695960D01*
X97643431Y-104695960D02*
X97595812Y-104648341D01*
X97595812Y-104648341D02*
X97548193Y-104553103D01*
X97548193Y-104553103D02*
X97548193Y-104410246D01*
X97548193Y-104410246D02*
X97595812Y-104315008D01*
X97595812Y-104315008D02*
X97643431Y-104267389D01*
X97643431Y-104267389D02*
X97738669Y-104219769D01*
X97738669Y-104219769D02*
X98119621Y-104219769D01*
X98119621Y-104219769D02*
X98119621Y-105219769D01*
X98119621Y-105219769D02*
X97786288Y-105219769D01*
X97786288Y-105219769D02*
X97691050Y-105172150D01*
X97691050Y-105172150D02*
X97643431Y-105124531D01*
X97643431Y-105124531D02*
X97595812Y-105029293D01*
X97595812Y-105029293D02*
X97595812Y-104934055D01*
X97595812Y-104934055D02*
X97643431Y-104838817D01*
X97643431Y-104838817D02*
X97691050Y-104791198D01*
X97691050Y-104791198D02*
X97786288Y-104743579D01*
X97786288Y-104743579D02*
X98119621Y-104743579D01*
X97167240Y-104414055D02*
X96557717Y-104414055D01*
X96862478Y-104109293D02*
X96862478Y-104718817D01*
X88429145Y-98504408D02*
X88429145Y-99218693D01*
X88429145Y-99218693D02*
X88381526Y-99361550D01*
X88381526Y-99361550D02*
X88286288Y-99456789D01*
X88286288Y-99456789D02*
X88143431Y-99504408D01*
X88143431Y-99504408D02*
X88048193Y-99504408D01*
X89429145Y-99504408D02*
X88857717Y-99504408D01*
X89143431Y-99504408D02*
X89143431Y-98504408D01*
X89143431Y-98504408D02*
X89048193Y-98647265D01*
X89048193Y-98647265D02*
X88952955Y-98742503D01*
X88952955Y-98742503D02*
X88857717Y-98790122D01*
D17*
X65597824Y-113064246D02*
X65740681Y-113111865D01*
X65740681Y-113111865D02*
X65978776Y-113111865D01*
X65978776Y-113111865D02*
X66074014Y-113064246D01*
X66074014Y-113064246D02*
X66121633Y-113016626D01*
X66121633Y-113016626D02*
X66169252Y-112921388D01*
X66169252Y-112921388D02*
X66169252Y-112826150D01*
X66169252Y-112826150D02*
X66121633Y-112730912D01*
X66121633Y-112730912D02*
X66074014Y-112683293D01*
X66074014Y-112683293D02*
X65978776Y-112635674D01*
X65978776Y-112635674D02*
X65788300Y-112588055D01*
X65788300Y-112588055D02*
X65693062Y-112540436D01*
X65693062Y-112540436D02*
X65645443Y-112492817D01*
X65645443Y-112492817D02*
X65597824Y-112397579D01*
X65597824Y-112397579D02*
X65597824Y-112302341D01*
X65597824Y-112302341D02*
X65645443Y-112207103D01*
X65645443Y-112207103D02*
X65693062Y-112159484D01*
X65693062Y-112159484D02*
X65788300Y-112111865D01*
X65788300Y-112111865D02*
X66026395Y-112111865D01*
X66026395Y-112111865D02*
X66169252Y-112159484D01*
X66502586Y-112111865D02*
X66740681Y-113111865D01*
X66740681Y-113111865D02*
X66931157Y-112397579D01*
X66931157Y-112397579D02*
X67121633Y-113111865D01*
X67121633Y-113111865D02*
X67359729Y-112111865D01*
X68264490Y-113111865D02*
X67693062Y-113111865D01*
X67978776Y-113111865D02*
X67978776Y-112111865D01*
X67978776Y-112111865D02*
X67883538Y-112254722D01*
X67883538Y-112254722D02*
X67788300Y-112349960D01*
X67788300Y-112349960D02*
X67693062Y-112397579D01*
X76173737Y-143921112D02*
X75459452Y-143921112D01*
X75459452Y-143921112D02*
X75316595Y-143873493D01*
X75316595Y-143873493D02*
X75221357Y-143778255D01*
X75221357Y-143778255D02*
X75173737Y-143635398D01*
X75173737Y-143635398D02*
X75173737Y-143540160D01*
X76078499Y-144349684D02*
X76126118Y-144397303D01*
X76126118Y-144397303D02*
X76173737Y-144492541D01*
X76173737Y-144492541D02*
X76173737Y-144730636D01*
X76173737Y-144730636D02*
X76126118Y-144825874D01*
X76126118Y-144825874D02*
X76078499Y-144873493D01*
X76078499Y-144873493D02*
X75983261Y-144921112D01*
X75983261Y-144921112D02*
X75888023Y-144921112D01*
X75888023Y-144921112D02*
X75745166Y-144873493D01*
X75745166Y-144873493D02*
X75173737Y-144302065D01*
X75173737Y-144302065D02*
X75173737Y-144921112D01*
D12*
X72955976Y-133297303D02*
X72479785Y-133630636D01*
X72955976Y-133868731D02*
X71955976Y-133868731D01*
X71955976Y-133868731D02*
X71955976Y-133487779D01*
X71955976Y-133487779D02*
X72003595Y-133392541D01*
X72003595Y-133392541D02*
X72051214Y-133344922D01*
X72051214Y-133344922D02*
X72146452Y-133297303D01*
X72146452Y-133297303D02*
X72289309Y-133297303D01*
X72289309Y-133297303D02*
X72384547Y-133344922D01*
X72384547Y-133344922D02*
X72432166Y-133392541D01*
X72432166Y-133392541D02*
X72479785Y-133487779D01*
X72479785Y-133487779D02*
X72479785Y-133868731D01*
X72955976Y-132344922D02*
X72955976Y-132916350D01*
X72955976Y-132630636D02*
X71955976Y-132630636D01*
X71955976Y-132630636D02*
X72098833Y-132725874D01*
X72098833Y-132725874D02*
X72194071Y-132821112D01*
X72194071Y-132821112D02*
X72241690Y-132916350D01*
X71955976Y-131725874D02*
X71955976Y-131630636D01*
X71955976Y-131630636D02*
X72003595Y-131535398D01*
X72003595Y-131535398D02*
X72051214Y-131487779D01*
X72051214Y-131487779D02*
X72146452Y-131440160D01*
X72146452Y-131440160D02*
X72336928Y-131392541D01*
X72336928Y-131392541D02*
X72575023Y-131392541D01*
X72575023Y-131392541D02*
X72765499Y-131440160D01*
X72765499Y-131440160D02*
X72860737Y-131487779D01*
X72860737Y-131487779D02*
X72908357Y-131535398D01*
X72908357Y-131535398D02*
X72955976Y-131630636D01*
X72955976Y-131630636D02*
X72955976Y-131725874D01*
X72955976Y-131725874D02*
X72908357Y-131821112D01*
X72908357Y-131821112D02*
X72860737Y-131868731D01*
X72860737Y-131868731D02*
X72765499Y-131916350D01*
X72765499Y-131916350D02*
X72575023Y-131963969D01*
X72575023Y-131963969D02*
X72336928Y-131963969D01*
X72336928Y-131963969D02*
X72146452Y-131916350D01*
X72146452Y-131916350D02*
X72051214Y-131868731D01*
X72051214Y-131868731D02*
X72003595Y-131821112D01*
X72003595Y-131821112D02*
X71955976Y-131725874D01*
X48464490Y-104014026D02*
X48416871Y-104061646D01*
X48416871Y-104061646D02*
X48274014Y-104109265D01*
X48274014Y-104109265D02*
X48178776Y-104109265D01*
X48178776Y-104109265D02*
X48035919Y-104061646D01*
X48035919Y-104061646D02*
X47940681Y-103966407D01*
X47940681Y-103966407D02*
X47893062Y-103871169D01*
X47893062Y-103871169D02*
X47845443Y-103680693D01*
X47845443Y-103680693D02*
X47845443Y-103537836D01*
X47845443Y-103537836D02*
X47893062Y-103347360D01*
X47893062Y-103347360D02*
X47940681Y-103252122D01*
X47940681Y-103252122D02*
X48035919Y-103156884D01*
X48035919Y-103156884D02*
X48178776Y-103109265D01*
X48178776Y-103109265D02*
X48274014Y-103109265D01*
X48274014Y-103109265D02*
X48416871Y-103156884D01*
X48416871Y-103156884D02*
X48464490Y-103204503D01*
X49416871Y-104109265D02*
X48845443Y-104109265D01*
X49131157Y-104109265D02*
X49131157Y-103109265D01*
X49131157Y-103109265D02*
X49035919Y-103252122D01*
X49035919Y-103252122D02*
X48940681Y-103347360D01*
X48940681Y-103347360D02*
X48845443Y-103394979D01*
X66385976Y-83749684D02*
X65909785Y-84083017D01*
X66385976Y-84321112D02*
X65385976Y-84321112D01*
X65385976Y-84321112D02*
X65385976Y-83940160D01*
X65385976Y-83940160D02*
X65433595Y-83844922D01*
X65433595Y-83844922D02*
X65481214Y-83797303D01*
X65481214Y-83797303D02*
X65576452Y-83749684D01*
X65576452Y-83749684D02*
X65719309Y-83749684D01*
X65719309Y-83749684D02*
X65814547Y-83797303D01*
X65814547Y-83797303D02*
X65862166Y-83844922D01*
X65862166Y-83844922D02*
X65909785Y-83940160D01*
X65909785Y-83940160D02*
X65909785Y-84321112D01*
X65385976Y-83463969D02*
X66385976Y-83130636D01*
X66385976Y-83130636D02*
X65385976Y-82797303D01*
X65481214Y-82511588D02*
X65433595Y-82463969D01*
X65433595Y-82463969D02*
X65385976Y-82368731D01*
X65385976Y-82368731D02*
X65385976Y-82130636D01*
X65385976Y-82130636D02*
X65433595Y-82035398D01*
X65433595Y-82035398D02*
X65481214Y-81987779D01*
X65481214Y-81987779D02*
X65576452Y-81940160D01*
X65576452Y-81940160D02*
X65671690Y-81940160D01*
X65671690Y-81940160D02*
X65814547Y-81987779D01*
X65814547Y-81987779D02*
X66385976Y-82559207D01*
X66385976Y-82559207D02*
X66385976Y-81940160D01*
X59845976Y-106521112D02*
X59369785Y-106854445D01*
X59845976Y-107092540D02*
X58845976Y-107092540D01*
X58845976Y-107092540D02*
X58845976Y-106711588D01*
X58845976Y-106711588D02*
X58893595Y-106616350D01*
X58893595Y-106616350D02*
X58941214Y-106568731D01*
X58941214Y-106568731D02*
X59036452Y-106521112D01*
X59036452Y-106521112D02*
X59179309Y-106521112D01*
X59179309Y-106521112D02*
X59274547Y-106568731D01*
X59274547Y-106568731D02*
X59322166Y-106616350D01*
X59322166Y-106616350D02*
X59369785Y-106711588D01*
X59369785Y-106711588D02*
X59369785Y-107092540D01*
X58845976Y-106187778D02*
X58845976Y-105521112D01*
X58845976Y-105521112D02*
X59845976Y-105949683D01*
X47664490Y-89409265D02*
X47331157Y-88933074D01*
X47093062Y-89409265D02*
X47093062Y-88409265D01*
X47093062Y-88409265D02*
X47474014Y-88409265D01*
X47474014Y-88409265D02*
X47569252Y-88456884D01*
X47569252Y-88456884D02*
X47616871Y-88504503D01*
X47616871Y-88504503D02*
X47664490Y-88599741D01*
X47664490Y-88599741D02*
X47664490Y-88742598D01*
X47664490Y-88742598D02*
X47616871Y-88837836D01*
X47616871Y-88837836D02*
X47569252Y-88885455D01*
X47569252Y-88885455D02*
X47474014Y-88933074D01*
X47474014Y-88933074D02*
X47093062Y-88933074D01*
X48521633Y-88409265D02*
X48331157Y-88409265D01*
X48331157Y-88409265D02*
X48235919Y-88456884D01*
X48235919Y-88456884D02*
X48188300Y-88504503D01*
X48188300Y-88504503D02*
X48093062Y-88647360D01*
X48093062Y-88647360D02*
X48045443Y-88837836D01*
X48045443Y-88837836D02*
X48045443Y-89218788D01*
X48045443Y-89218788D02*
X48093062Y-89314026D01*
X48093062Y-89314026D02*
X48140681Y-89361646D01*
X48140681Y-89361646D02*
X48235919Y-89409265D01*
X48235919Y-89409265D02*
X48426395Y-89409265D01*
X48426395Y-89409265D02*
X48521633Y-89361646D01*
X48521633Y-89361646D02*
X48569252Y-89314026D01*
X48569252Y-89314026D02*
X48616871Y-89218788D01*
X48616871Y-89218788D02*
X48616871Y-88980693D01*
X48616871Y-88980693D02*
X48569252Y-88885455D01*
X48569252Y-88885455D02*
X48521633Y-88837836D01*
X48521633Y-88837836D02*
X48426395Y-88790217D01*
X48426395Y-88790217D02*
X48235919Y-88790217D01*
X48235919Y-88790217D02*
X48140681Y-88837836D01*
X48140681Y-88837836D02*
X48093062Y-88885455D01*
X48093062Y-88885455D02*
X48045443Y-88980693D01*
X71944490Y-108994026D02*
X71896871Y-109041646D01*
X71896871Y-109041646D02*
X71754014Y-109089265D01*
X71754014Y-109089265D02*
X71658776Y-109089265D01*
X71658776Y-109089265D02*
X71515919Y-109041646D01*
X71515919Y-109041646D02*
X71420681Y-108946407D01*
X71420681Y-108946407D02*
X71373062Y-108851169D01*
X71373062Y-108851169D02*
X71325443Y-108660693D01*
X71325443Y-108660693D02*
X71325443Y-108517836D01*
X71325443Y-108517836D02*
X71373062Y-108327360D01*
X71373062Y-108327360D02*
X71420681Y-108232122D01*
X71420681Y-108232122D02*
X71515919Y-108136884D01*
X71515919Y-108136884D02*
X71658776Y-108089265D01*
X71658776Y-108089265D02*
X71754014Y-108089265D01*
X71754014Y-108089265D02*
X71896871Y-108136884D01*
X71896871Y-108136884D02*
X71944490Y-108184503D01*
X72277824Y-108089265D02*
X72896871Y-108089265D01*
X72896871Y-108089265D02*
X72563538Y-108470217D01*
X72563538Y-108470217D02*
X72706395Y-108470217D01*
X72706395Y-108470217D02*
X72801633Y-108517836D01*
X72801633Y-108517836D02*
X72849252Y-108565455D01*
X72849252Y-108565455D02*
X72896871Y-108660693D01*
X72896871Y-108660693D02*
X72896871Y-108898788D01*
X72896871Y-108898788D02*
X72849252Y-108994026D01*
X72849252Y-108994026D02*
X72801633Y-109041646D01*
X72801633Y-109041646D02*
X72706395Y-109089265D01*
X72706395Y-109089265D02*
X72420681Y-109089265D01*
X72420681Y-109089265D02*
X72325443Y-109041646D01*
X72325443Y-109041646D02*
X72277824Y-108994026D01*
X50964490Y-89409265D02*
X50631157Y-88933074D01*
X50393062Y-89409265D02*
X50393062Y-88409265D01*
X50393062Y-88409265D02*
X50774014Y-88409265D01*
X50774014Y-88409265D02*
X50869252Y-88456884D01*
X50869252Y-88456884D02*
X50916871Y-88504503D01*
X50916871Y-88504503D02*
X50964490Y-88599741D01*
X50964490Y-88599741D02*
X50964490Y-88742598D01*
X50964490Y-88742598D02*
X50916871Y-88837836D01*
X50916871Y-88837836D02*
X50869252Y-88885455D01*
X50869252Y-88885455D02*
X50774014Y-88933074D01*
X50774014Y-88933074D02*
X50393062Y-88933074D01*
X51535919Y-88837836D02*
X51440681Y-88790217D01*
X51440681Y-88790217D02*
X51393062Y-88742598D01*
X51393062Y-88742598D02*
X51345443Y-88647360D01*
X51345443Y-88647360D02*
X51345443Y-88599741D01*
X51345443Y-88599741D02*
X51393062Y-88504503D01*
X51393062Y-88504503D02*
X51440681Y-88456884D01*
X51440681Y-88456884D02*
X51535919Y-88409265D01*
X51535919Y-88409265D02*
X51726395Y-88409265D01*
X51726395Y-88409265D02*
X51821633Y-88456884D01*
X51821633Y-88456884D02*
X51869252Y-88504503D01*
X51869252Y-88504503D02*
X51916871Y-88599741D01*
X51916871Y-88599741D02*
X51916871Y-88647360D01*
X51916871Y-88647360D02*
X51869252Y-88742598D01*
X51869252Y-88742598D02*
X51821633Y-88790217D01*
X51821633Y-88790217D02*
X51726395Y-88837836D01*
X51726395Y-88837836D02*
X51535919Y-88837836D01*
X51535919Y-88837836D02*
X51440681Y-88885455D01*
X51440681Y-88885455D02*
X51393062Y-88933074D01*
X51393062Y-88933074D02*
X51345443Y-89028312D01*
X51345443Y-89028312D02*
X51345443Y-89218788D01*
X51345443Y-89218788D02*
X51393062Y-89314026D01*
X51393062Y-89314026D02*
X51440681Y-89361646D01*
X51440681Y-89361646D02*
X51535919Y-89409265D01*
X51535919Y-89409265D02*
X51726395Y-89409265D01*
X51726395Y-89409265D02*
X51821633Y-89361646D01*
X51821633Y-89361646D02*
X51869252Y-89314026D01*
X51869252Y-89314026D02*
X51916871Y-89218788D01*
X51916871Y-89218788D02*
X51916871Y-89028312D01*
X51916871Y-89028312D02*
X51869252Y-88933074D01*
X51869252Y-88933074D02*
X51821633Y-88885455D01*
X51821633Y-88885455D02*
X51726395Y-88837836D01*
X57463062Y-89339265D02*
X57463062Y-88339265D01*
X57463062Y-88339265D02*
X57701157Y-88339265D01*
X57701157Y-88339265D02*
X57844014Y-88386884D01*
X57844014Y-88386884D02*
X57939252Y-88482122D01*
X57939252Y-88482122D02*
X57986871Y-88577360D01*
X57986871Y-88577360D02*
X58034490Y-88767836D01*
X58034490Y-88767836D02*
X58034490Y-88910693D01*
X58034490Y-88910693D02*
X57986871Y-89101169D01*
X57986871Y-89101169D02*
X57939252Y-89196407D01*
X57939252Y-89196407D02*
X57844014Y-89291646D01*
X57844014Y-89291646D02*
X57701157Y-89339265D01*
X57701157Y-89339265D02*
X57463062Y-89339265D01*
X58415443Y-88434503D02*
X58463062Y-88386884D01*
X58463062Y-88386884D02*
X58558300Y-88339265D01*
X58558300Y-88339265D02*
X58796395Y-88339265D01*
X58796395Y-88339265D02*
X58891633Y-88386884D01*
X58891633Y-88386884D02*
X58939252Y-88434503D01*
X58939252Y-88434503D02*
X58986871Y-88529741D01*
X58986871Y-88529741D02*
X58986871Y-88624979D01*
X58986871Y-88624979D02*
X58939252Y-88767836D01*
X58939252Y-88767836D02*
X58367824Y-89339265D01*
X58367824Y-89339265D02*
X58986871Y-89339265D01*
X72014490Y-106064026D02*
X71966871Y-106111646D01*
X71966871Y-106111646D02*
X71824014Y-106159265D01*
X71824014Y-106159265D02*
X71728776Y-106159265D01*
X71728776Y-106159265D02*
X71585919Y-106111646D01*
X71585919Y-106111646D02*
X71490681Y-106016407D01*
X71490681Y-106016407D02*
X71443062Y-105921169D01*
X71443062Y-105921169D02*
X71395443Y-105730693D01*
X71395443Y-105730693D02*
X71395443Y-105587836D01*
X71395443Y-105587836D02*
X71443062Y-105397360D01*
X71443062Y-105397360D02*
X71490681Y-105302122D01*
X71490681Y-105302122D02*
X71585919Y-105206884D01*
X71585919Y-105206884D02*
X71728776Y-105159265D01*
X71728776Y-105159265D02*
X71824014Y-105159265D01*
X71824014Y-105159265D02*
X71966871Y-105206884D01*
X71966871Y-105206884D02*
X72014490Y-105254503D01*
X72347824Y-105159265D02*
X73014490Y-105159265D01*
X73014490Y-105159265D02*
X72585919Y-106159265D01*
X52975918Y-103764503D02*
X52880680Y-103716884D01*
X52880680Y-103716884D02*
X52785442Y-103621646D01*
X52785442Y-103621646D02*
X52642585Y-103478788D01*
X52642585Y-103478788D02*
X52547347Y-103431169D01*
X52547347Y-103431169D02*
X52452109Y-103431169D01*
X52499728Y-103669265D02*
X52404490Y-103621646D01*
X52404490Y-103621646D02*
X52309252Y-103526407D01*
X52309252Y-103526407D02*
X52261633Y-103335931D01*
X52261633Y-103335931D02*
X52261633Y-103002598D01*
X52261633Y-103002598D02*
X52309252Y-102812122D01*
X52309252Y-102812122D02*
X52404490Y-102716884D01*
X52404490Y-102716884D02*
X52499728Y-102669265D01*
X52499728Y-102669265D02*
X52690204Y-102669265D01*
X52690204Y-102669265D02*
X52785442Y-102716884D01*
X52785442Y-102716884D02*
X52880680Y-102812122D01*
X52880680Y-102812122D02*
X52928299Y-103002598D01*
X52928299Y-103002598D02*
X52928299Y-103335931D01*
X52928299Y-103335931D02*
X52880680Y-103526407D01*
X52880680Y-103526407D02*
X52785442Y-103621646D01*
X52785442Y-103621646D02*
X52690204Y-103669265D01*
X52690204Y-103669265D02*
X52499728Y-103669265D01*
X53880680Y-103669265D02*
X53309252Y-103669265D01*
X53594966Y-103669265D02*
X53594966Y-102669265D01*
X53594966Y-102669265D02*
X53499728Y-102812122D01*
X53499728Y-102812122D02*
X53404490Y-102907360D01*
X53404490Y-102907360D02*
X53309252Y-102954979D01*
X46663062Y-113149265D02*
X46663062Y-112149265D01*
X46663062Y-112149265D02*
X46901157Y-112149265D01*
X46901157Y-112149265D02*
X47044014Y-112196884D01*
X47044014Y-112196884D02*
X47139252Y-112292122D01*
X47139252Y-112292122D02*
X47186871Y-112387360D01*
X47186871Y-112387360D02*
X47234490Y-112577836D01*
X47234490Y-112577836D02*
X47234490Y-112720693D01*
X47234490Y-112720693D02*
X47186871Y-112911169D01*
X47186871Y-112911169D02*
X47139252Y-113006407D01*
X47139252Y-113006407D02*
X47044014Y-113101646D01*
X47044014Y-113101646D02*
X46901157Y-113149265D01*
X46901157Y-113149265D02*
X46663062Y-113149265D01*
X47567824Y-112149265D02*
X48186871Y-112149265D01*
X48186871Y-112149265D02*
X47853538Y-112530217D01*
X47853538Y-112530217D02*
X47996395Y-112530217D01*
X47996395Y-112530217D02*
X48091633Y-112577836D01*
X48091633Y-112577836D02*
X48139252Y-112625455D01*
X48139252Y-112625455D02*
X48186871Y-112720693D01*
X48186871Y-112720693D02*
X48186871Y-112958788D01*
X48186871Y-112958788D02*
X48139252Y-113054026D01*
X48139252Y-113054026D02*
X48091633Y-113101646D01*
X48091633Y-113101646D02*
X47996395Y-113149265D01*
X47996395Y-113149265D02*
X47710681Y-113149265D01*
X47710681Y-113149265D02*
X47615443Y-113101646D01*
X47615443Y-113101646D02*
X47567824Y-113054026D01*
X52085976Y-83549684D02*
X51609785Y-83883017D01*
X52085976Y-84121112D02*
X51085976Y-84121112D01*
X51085976Y-84121112D02*
X51085976Y-83740160D01*
X51085976Y-83740160D02*
X51133595Y-83644922D01*
X51133595Y-83644922D02*
X51181214Y-83597303D01*
X51181214Y-83597303D02*
X51276452Y-83549684D01*
X51276452Y-83549684D02*
X51419309Y-83549684D01*
X51419309Y-83549684D02*
X51514547Y-83597303D01*
X51514547Y-83597303D02*
X51562166Y-83644922D01*
X51562166Y-83644922D02*
X51609785Y-83740160D01*
X51609785Y-83740160D02*
X51609785Y-84121112D01*
X51085976Y-83263969D02*
X52085976Y-82930636D01*
X52085976Y-82930636D02*
X51085976Y-82597303D01*
X52085976Y-81740160D02*
X52085976Y-82311588D01*
X52085976Y-82025874D02*
X51085976Y-82025874D01*
X51085976Y-82025874D02*
X51228833Y-82121112D01*
X51228833Y-82121112D02*
X51324071Y-82216350D01*
X51324071Y-82216350D02*
X51371690Y-82311588D01*
X44144490Y-89339265D02*
X43811157Y-88863074D01*
X43573062Y-89339265D02*
X43573062Y-88339265D01*
X43573062Y-88339265D02*
X43954014Y-88339265D01*
X43954014Y-88339265D02*
X44049252Y-88386884D01*
X44049252Y-88386884D02*
X44096871Y-88434503D01*
X44096871Y-88434503D02*
X44144490Y-88529741D01*
X44144490Y-88529741D02*
X44144490Y-88672598D01*
X44144490Y-88672598D02*
X44096871Y-88767836D01*
X44096871Y-88767836D02*
X44049252Y-88815455D01*
X44049252Y-88815455D02*
X43954014Y-88863074D01*
X43954014Y-88863074D02*
X43573062Y-88863074D01*
X44477824Y-88339265D02*
X45096871Y-88339265D01*
X45096871Y-88339265D02*
X44763538Y-88720217D01*
X44763538Y-88720217D02*
X44906395Y-88720217D01*
X44906395Y-88720217D02*
X45001633Y-88767836D01*
X45001633Y-88767836D02*
X45049252Y-88815455D01*
X45049252Y-88815455D02*
X45096871Y-88910693D01*
X45096871Y-88910693D02*
X45096871Y-89148788D01*
X45096871Y-89148788D02*
X45049252Y-89244026D01*
X45049252Y-89244026D02*
X45001633Y-89291646D01*
X45001633Y-89291646D02*
X44906395Y-89339265D01*
X44906395Y-89339265D02*
X44620681Y-89339265D01*
X44620681Y-89339265D02*
X44525443Y-89291646D01*
X44525443Y-89291646D02*
X44477824Y-89244026D01*
X37434490Y-89199265D02*
X37101157Y-88723074D01*
X36863062Y-89199265D02*
X36863062Y-88199265D01*
X36863062Y-88199265D02*
X37244014Y-88199265D01*
X37244014Y-88199265D02*
X37339252Y-88246884D01*
X37339252Y-88246884D02*
X37386871Y-88294503D01*
X37386871Y-88294503D02*
X37434490Y-88389741D01*
X37434490Y-88389741D02*
X37434490Y-88532598D01*
X37434490Y-88532598D02*
X37386871Y-88627836D01*
X37386871Y-88627836D02*
X37339252Y-88675455D01*
X37339252Y-88675455D02*
X37244014Y-88723074D01*
X37244014Y-88723074D02*
X36863062Y-88723074D01*
X38339252Y-88199265D02*
X37863062Y-88199265D01*
X37863062Y-88199265D02*
X37815443Y-88675455D01*
X37815443Y-88675455D02*
X37863062Y-88627836D01*
X37863062Y-88627836D02*
X37958300Y-88580217D01*
X37958300Y-88580217D02*
X38196395Y-88580217D01*
X38196395Y-88580217D02*
X38291633Y-88627836D01*
X38291633Y-88627836D02*
X38339252Y-88675455D01*
X38339252Y-88675455D02*
X38386871Y-88770693D01*
X38386871Y-88770693D02*
X38386871Y-89008788D01*
X38386871Y-89008788D02*
X38339252Y-89104026D01*
X38339252Y-89104026D02*
X38291633Y-89151646D01*
X38291633Y-89151646D02*
X38196395Y-89199265D01*
X38196395Y-89199265D02*
X37958300Y-89199265D01*
X37958300Y-89199265D02*
X37863062Y-89151646D01*
X37863062Y-89151646D02*
X37815443Y-89104026D01*
D17*
X44288576Y-144287779D02*
X45002861Y-144287779D01*
X45002861Y-144287779D02*
X45145718Y-144335398D01*
X45145718Y-144335398D02*
X45240957Y-144430636D01*
X45240957Y-144430636D02*
X45288576Y-144573493D01*
X45288576Y-144573493D02*
X45288576Y-144668731D01*
X45288576Y-143287779D02*
X45288576Y-143859207D01*
X45288576Y-143573493D02*
X44288576Y-143573493D01*
X44288576Y-143573493D02*
X44431433Y-143668731D01*
X44431433Y-143668731D02*
X44526671Y-143763969D01*
X44526671Y-143763969D02*
X44574290Y-143859207D01*
D12*
X40914490Y-89229265D02*
X40581157Y-88753074D01*
X40343062Y-89229265D02*
X40343062Y-88229265D01*
X40343062Y-88229265D02*
X40724014Y-88229265D01*
X40724014Y-88229265D02*
X40819252Y-88276884D01*
X40819252Y-88276884D02*
X40866871Y-88324503D01*
X40866871Y-88324503D02*
X40914490Y-88419741D01*
X40914490Y-88419741D02*
X40914490Y-88562598D01*
X40914490Y-88562598D02*
X40866871Y-88657836D01*
X40866871Y-88657836D02*
X40819252Y-88705455D01*
X40819252Y-88705455D02*
X40724014Y-88753074D01*
X40724014Y-88753074D02*
X40343062Y-88753074D01*
X41771633Y-88562598D02*
X41771633Y-89229265D01*
X41533538Y-88181646D02*
X41295443Y-88895931D01*
X41295443Y-88895931D02*
X41914490Y-88895931D01*
X77944490Y-88614026D02*
X77896871Y-88661646D01*
X77896871Y-88661646D02*
X77754014Y-88709265D01*
X77754014Y-88709265D02*
X77658776Y-88709265D01*
X77658776Y-88709265D02*
X77515919Y-88661646D01*
X77515919Y-88661646D02*
X77420681Y-88566407D01*
X77420681Y-88566407D02*
X77373062Y-88471169D01*
X77373062Y-88471169D02*
X77325443Y-88280693D01*
X77325443Y-88280693D02*
X77325443Y-88137836D01*
X77325443Y-88137836D02*
X77373062Y-87947360D01*
X77373062Y-87947360D02*
X77420681Y-87852122D01*
X77420681Y-87852122D02*
X77515919Y-87756884D01*
X77515919Y-87756884D02*
X77658776Y-87709265D01*
X77658776Y-87709265D02*
X77754014Y-87709265D01*
X77754014Y-87709265D02*
X77896871Y-87756884D01*
X77896871Y-87756884D02*
X77944490Y-87804503D01*
X78420681Y-88709265D02*
X78611157Y-88709265D01*
X78611157Y-88709265D02*
X78706395Y-88661646D01*
X78706395Y-88661646D02*
X78754014Y-88614026D01*
X78754014Y-88614026D02*
X78849252Y-88471169D01*
X78849252Y-88471169D02*
X78896871Y-88280693D01*
X78896871Y-88280693D02*
X78896871Y-87899741D01*
X78896871Y-87899741D02*
X78849252Y-87804503D01*
X78849252Y-87804503D02*
X78801633Y-87756884D01*
X78801633Y-87756884D02*
X78706395Y-87709265D01*
X78706395Y-87709265D02*
X78515919Y-87709265D01*
X78515919Y-87709265D02*
X78420681Y-87756884D01*
X78420681Y-87756884D02*
X78373062Y-87804503D01*
X78373062Y-87804503D02*
X78325443Y-87899741D01*
X78325443Y-87899741D02*
X78325443Y-88137836D01*
X78325443Y-88137836D02*
X78373062Y-88233074D01*
X78373062Y-88233074D02*
X78420681Y-88280693D01*
X78420681Y-88280693D02*
X78515919Y-88328312D01*
X78515919Y-88328312D02*
X78706395Y-88328312D01*
X78706395Y-88328312D02*
X78801633Y-88280693D01*
X78801633Y-88280693D02*
X78849252Y-88233074D01*
X78849252Y-88233074D02*
X78896871Y-88137836D01*
X80885976Y-83549684D02*
X80409785Y-83883017D01*
X80885976Y-84121112D02*
X79885976Y-84121112D01*
X79885976Y-84121112D02*
X79885976Y-83740160D01*
X79885976Y-83740160D02*
X79933595Y-83644922D01*
X79933595Y-83644922D02*
X79981214Y-83597303D01*
X79981214Y-83597303D02*
X80076452Y-83549684D01*
X80076452Y-83549684D02*
X80219309Y-83549684D01*
X80219309Y-83549684D02*
X80314547Y-83597303D01*
X80314547Y-83597303D02*
X80362166Y-83644922D01*
X80362166Y-83644922D02*
X80409785Y-83740160D01*
X80409785Y-83740160D02*
X80409785Y-84121112D01*
X79885976Y-83263969D02*
X80885976Y-82930636D01*
X80885976Y-82930636D02*
X79885976Y-82597303D01*
X79885976Y-82359207D02*
X79885976Y-81740160D01*
X79885976Y-81740160D02*
X80266928Y-82073493D01*
X80266928Y-82073493D02*
X80266928Y-81930636D01*
X80266928Y-81930636D02*
X80314547Y-81835398D01*
X80314547Y-81835398D02*
X80362166Y-81787779D01*
X80362166Y-81787779D02*
X80457404Y-81740160D01*
X80457404Y-81740160D02*
X80695499Y-81740160D01*
X80695499Y-81740160D02*
X80790737Y-81787779D01*
X80790737Y-81787779D02*
X80838357Y-81835398D01*
X80838357Y-81835398D02*
X80885976Y-81930636D01*
X80885976Y-81930636D02*
X80885976Y-82216350D01*
X80885976Y-82216350D02*
X80838357Y-82311588D01*
X80838357Y-82311588D02*
X80790737Y-82359207D01*
X68234490Y-88559265D02*
X67901157Y-88083074D01*
X67663062Y-88559265D02*
X67663062Y-87559265D01*
X67663062Y-87559265D02*
X68044014Y-87559265D01*
X68044014Y-87559265D02*
X68139252Y-87606884D01*
X68139252Y-87606884D02*
X68186871Y-87654503D01*
X68186871Y-87654503D02*
X68234490Y-87749741D01*
X68234490Y-87749741D02*
X68234490Y-87892598D01*
X68234490Y-87892598D02*
X68186871Y-87987836D01*
X68186871Y-87987836D02*
X68139252Y-88035455D01*
X68139252Y-88035455D02*
X68044014Y-88083074D01*
X68044014Y-88083074D02*
X67663062Y-88083074D01*
X68710681Y-88559265D02*
X68901157Y-88559265D01*
X68901157Y-88559265D02*
X68996395Y-88511646D01*
X68996395Y-88511646D02*
X69044014Y-88464026D01*
X69044014Y-88464026D02*
X69139252Y-88321169D01*
X69139252Y-88321169D02*
X69186871Y-88130693D01*
X69186871Y-88130693D02*
X69186871Y-87749741D01*
X69186871Y-87749741D02*
X69139252Y-87654503D01*
X69139252Y-87654503D02*
X69091633Y-87606884D01*
X69091633Y-87606884D02*
X68996395Y-87559265D01*
X68996395Y-87559265D02*
X68805919Y-87559265D01*
X68805919Y-87559265D02*
X68710681Y-87606884D01*
X68710681Y-87606884D02*
X68663062Y-87654503D01*
X68663062Y-87654503D02*
X68615443Y-87749741D01*
X68615443Y-87749741D02*
X68615443Y-87987836D01*
X68615443Y-87987836D02*
X68663062Y-88083074D01*
X68663062Y-88083074D02*
X68710681Y-88130693D01*
X68710681Y-88130693D02*
X68805919Y-88178312D01*
X68805919Y-88178312D02*
X68996395Y-88178312D01*
X68996395Y-88178312D02*
X69091633Y-88130693D01*
X69091633Y-88130693D02*
X69139252Y-88083074D01*
X69139252Y-88083074D02*
X69186871Y-87987836D01*
X76195976Y-132611112D02*
X75719785Y-132944445D01*
X76195976Y-133182540D02*
X75195976Y-133182540D01*
X75195976Y-133182540D02*
X75195976Y-132801588D01*
X75195976Y-132801588D02*
X75243595Y-132706350D01*
X75243595Y-132706350D02*
X75291214Y-132658731D01*
X75291214Y-132658731D02*
X75386452Y-132611112D01*
X75386452Y-132611112D02*
X75529309Y-132611112D01*
X75529309Y-132611112D02*
X75624547Y-132658731D01*
X75624547Y-132658731D02*
X75672166Y-132706350D01*
X75672166Y-132706350D02*
X75719785Y-132801588D01*
X75719785Y-132801588D02*
X75719785Y-133182540D01*
X76195976Y-131658731D02*
X76195976Y-132230159D01*
X76195976Y-131944445D02*
X75195976Y-131944445D01*
X75195976Y-131944445D02*
X75338833Y-132039683D01*
X75338833Y-132039683D02*
X75434071Y-132134921D01*
X75434071Y-132134921D02*
X75481690Y-132230159D01*
X74458299Y-88829265D02*
X74124966Y-88353074D01*
X73886871Y-88829265D02*
X73886871Y-87829265D01*
X73886871Y-87829265D02*
X74267823Y-87829265D01*
X74267823Y-87829265D02*
X74363061Y-87876884D01*
X74363061Y-87876884D02*
X74410680Y-87924503D01*
X74410680Y-87924503D02*
X74458299Y-88019741D01*
X74458299Y-88019741D02*
X74458299Y-88162598D01*
X74458299Y-88162598D02*
X74410680Y-88257836D01*
X74410680Y-88257836D02*
X74363061Y-88305455D01*
X74363061Y-88305455D02*
X74267823Y-88353074D01*
X74267823Y-88353074D02*
X73886871Y-88353074D01*
X75410680Y-88829265D02*
X74839252Y-88829265D01*
X75124966Y-88829265D02*
X75124966Y-87829265D01*
X75124966Y-87829265D02*
X75029728Y-87972122D01*
X75029728Y-87972122D02*
X74934490Y-88067360D01*
X74934490Y-88067360D02*
X74839252Y-88114979D01*
X76363061Y-88829265D02*
X75791633Y-88829265D01*
X76077347Y-88829265D02*
X76077347Y-87829265D01*
X76077347Y-87829265D02*
X75982109Y-87972122D01*
X75982109Y-87972122D02*
X75886871Y-88067360D01*
X75886871Y-88067360D02*
X75791633Y-88114979D01*
X75238299Y-115009265D02*
X74904966Y-114533074D01*
X74666871Y-115009265D02*
X74666871Y-114009265D01*
X74666871Y-114009265D02*
X75047823Y-114009265D01*
X75047823Y-114009265D02*
X75143061Y-114056884D01*
X75143061Y-114056884D02*
X75190680Y-114104503D01*
X75190680Y-114104503D02*
X75238299Y-114199741D01*
X75238299Y-114199741D02*
X75238299Y-114342598D01*
X75238299Y-114342598D02*
X75190680Y-114437836D01*
X75190680Y-114437836D02*
X75143061Y-114485455D01*
X75143061Y-114485455D02*
X75047823Y-114533074D01*
X75047823Y-114533074D02*
X74666871Y-114533074D01*
X76190680Y-115009265D02*
X75619252Y-115009265D01*
X75904966Y-115009265D02*
X75904966Y-114009265D01*
X75904966Y-114009265D02*
X75809728Y-114152122D01*
X75809728Y-114152122D02*
X75714490Y-114247360D01*
X75714490Y-114247360D02*
X75619252Y-114294979D01*
X76571633Y-114104503D02*
X76619252Y-114056884D01*
X76619252Y-114056884D02*
X76714490Y-114009265D01*
X76714490Y-114009265D02*
X76952585Y-114009265D01*
X76952585Y-114009265D02*
X77047823Y-114056884D01*
X77047823Y-114056884D02*
X77095442Y-114104503D01*
X77095442Y-114104503D02*
X77143061Y-114199741D01*
X77143061Y-114199741D02*
X77143061Y-114294979D01*
X77143061Y-114294979D02*
X77095442Y-114437836D01*
X77095442Y-114437836D02*
X76524014Y-115009265D01*
X76524014Y-115009265D02*
X77143061Y-115009265D01*
X43964490Y-113214026D02*
X43916871Y-113261646D01*
X43916871Y-113261646D02*
X43774014Y-113309265D01*
X43774014Y-113309265D02*
X43678776Y-113309265D01*
X43678776Y-113309265D02*
X43535919Y-113261646D01*
X43535919Y-113261646D02*
X43440681Y-113166407D01*
X43440681Y-113166407D02*
X43393062Y-113071169D01*
X43393062Y-113071169D02*
X43345443Y-112880693D01*
X43345443Y-112880693D02*
X43345443Y-112737836D01*
X43345443Y-112737836D02*
X43393062Y-112547360D01*
X43393062Y-112547360D02*
X43440681Y-112452122D01*
X43440681Y-112452122D02*
X43535919Y-112356884D01*
X43535919Y-112356884D02*
X43678776Y-112309265D01*
X43678776Y-112309265D02*
X43774014Y-112309265D01*
X43774014Y-112309265D02*
X43916871Y-112356884D01*
X43916871Y-112356884D02*
X43964490Y-112404503D01*
X44345443Y-112404503D02*
X44393062Y-112356884D01*
X44393062Y-112356884D02*
X44488300Y-112309265D01*
X44488300Y-112309265D02*
X44726395Y-112309265D01*
X44726395Y-112309265D02*
X44821633Y-112356884D01*
X44821633Y-112356884D02*
X44869252Y-112404503D01*
X44869252Y-112404503D02*
X44916871Y-112499741D01*
X44916871Y-112499741D02*
X44916871Y-112594979D01*
X44916871Y-112594979D02*
X44869252Y-112737836D01*
X44869252Y-112737836D02*
X44297824Y-113309265D01*
X44297824Y-113309265D02*
X44916871Y-113309265D01*
X60517261Y-96187778D02*
X60555357Y-96225874D01*
X60555357Y-96225874D02*
X60593452Y-96340159D01*
X60593452Y-96340159D02*
X60593452Y-96416350D01*
X60593452Y-96416350D02*
X60555357Y-96530636D01*
X60555357Y-96530636D02*
X60479166Y-96606826D01*
X60479166Y-96606826D02*
X60402976Y-96644921D01*
X60402976Y-96644921D02*
X60250595Y-96683017D01*
X60250595Y-96683017D02*
X60136309Y-96683017D01*
X60136309Y-96683017D02*
X59983928Y-96644921D01*
X59983928Y-96644921D02*
X59907737Y-96606826D01*
X59907737Y-96606826D02*
X59831547Y-96530636D01*
X59831547Y-96530636D02*
X59793452Y-96416350D01*
X59793452Y-96416350D02*
X59793452Y-96340159D01*
X59793452Y-96340159D02*
X59831547Y-96225874D01*
X59831547Y-96225874D02*
X59869642Y-96187778D01*
X59793452Y-95502064D02*
X59793452Y-95654445D01*
X59793452Y-95654445D02*
X59831547Y-95730636D01*
X59831547Y-95730636D02*
X59869642Y-95768731D01*
X59869642Y-95768731D02*
X59983928Y-95844921D01*
X59983928Y-95844921D02*
X60136309Y-95883017D01*
X60136309Y-95883017D02*
X60441071Y-95883017D01*
X60441071Y-95883017D02*
X60517261Y-95844921D01*
X60517261Y-95844921D02*
X60555357Y-95806826D01*
X60555357Y-95806826D02*
X60593452Y-95730636D01*
X60593452Y-95730636D02*
X60593452Y-95578255D01*
X60593452Y-95578255D02*
X60555357Y-95502064D01*
X60555357Y-95502064D02*
X60517261Y-95463969D01*
X60517261Y-95463969D02*
X60441071Y-95425874D01*
X60441071Y-95425874D02*
X60250595Y-95425874D01*
X60250595Y-95425874D02*
X60174404Y-95463969D01*
X60174404Y-95463969D02*
X60136309Y-95502064D01*
X60136309Y-95502064D02*
X60098214Y-95578255D01*
X60098214Y-95578255D02*
X60098214Y-95730636D01*
X60098214Y-95730636D02*
X60136309Y-95806826D01*
X60136309Y-95806826D02*
X60174404Y-95844921D01*
X60174404Y-95844921D02*
X60250595Y-95883017D01*
X53893062Y-89319265D02*
X53893062Y-88319265D01*
X53893062Y-88319265D02*
X54131157Y-88319265D01*
X54131157Y-88319265D02*
X54274014Y-88366884D01*
X54274014Y-88366884D02*
X54369252Y-88462122D01*
X54369252Y-88462122D02*
X54416871Y-88557360D01*
X54416871Y-88557360D02*
X54464490Y-88747836D01*
X54464490Y-88747836D02*
X54464490Y-88890693D01*
X54464490Y-88890693D02*
X54416871Y-89081169D01*
X54416871Y-89081169D02*
X54369252Y-89176407D01*
X54369252Y-89176407D02*
X54274014Y-89271646D01*
X54274014Y-89271646D02*
X54131157Y-89319265D01*
X54131157Y-89319265D02*
X53893062Y-89319265D01*
X55416871Y-89319265D02*
X54845443Y-89319265D01*
X55131157Y-89319265D02*
X55131157Y-88319265D01*
X55131157Y-88319265D02*
X55035919Y-88462122D01*
X55035919Y-88462122D02*
X54940681Y-88557360D01*
X54940681Y-88557360D02*
X54845443Y-88604979D01*
X74704490Y-112634026D02*
X74656871Y-112681646D01*
X74656871Y-112681646D02*
X74514014Y-112729265D01*
X74514014Y-112729265D02*
X74418776Y-112729265D01*
X74418776Y-112729265D02*
X74275919Y-112681646D01*
X74275919Y-112681646D02*
X74180681Y-112586407D01*
X74180681Y-112586407D02*
X74133062Y-112491169D01*
X74133062Y-112491169D02*
X74085443Y-112300693D01*
X74085443Y-112300693D02*
X74085443Y-112157836D01*
X74085443Y-112157836D02*
X74133062Y-111967360D01*
X74133062Y-111967360D02*
X74180681Y-111872122D01*
X74180681Y-111872122D02*
X74275919Y-111776884D01*
X74275919Y-111776884D02*
X74418776Y-111729265D01*
X74418776Y-111729265D02*
X74514014Y-111729265D01*
X74514014Y-111729265D02*
X74656871Y-111776884D01*
X74656871Y-111776884D02*
X74704490Y-111824503D01*
X75275919Y-112157836D02*
X75180681Y-112110217D01*
X75180681Y-112110217D02*
X75133062Y-112062598D01*
X75133062Y-112062598D02*
X75085443Y-111967360D01*
X75085443Y-111967360D02*
X75085443Y-111919741D01*
X75085443Y-111919741D02*
X75133062Y-111824503D01*
X75133062Y-111824503D02*
X75180681Y-111776884D01*
X75180681Y-111776884D02*
X75275919Y-111729265D01*
X75275919Y-111729265D02*
X75466395Y-111729265D01*
X75466395Y-111729265D02*
X75561633Y-111776884D01*
X75561633Y-111776884D02*
X75609252Y-111824503D01*
X75609252Y-111824503D02*
X75656871Y-111919741D01*
X75656871Y-111919741D02*
X75656871Y-111967360D01*
X75656871Y-111967360D02*
X75609252Y-112062598D01*
X75609252Y-112062598D02*
X75561633Y-112110217D01*
X75561633Y-112110217D02*
X75466395Y-112157836D01*
X75466395Y-112157836D02*
X75275919Y-112157836D01*
X75275919Y-112157836D02*
X75180681Y-112205455D01*
X75180681Y-112205455D02*
X75133062Y-112253074D01*
X75133062Y-112253074D02*
X75085443Y-112348312D01*
X75085443Y-112348312D02*
X75085443Y-112538788D01*
X75085443Y-112538788D02*
X75133062Y-112634026D01*
X75133062Y-112634026D02*
X75180681Y-112681646D01*
X75180681Y-112681646D02*
X75275919Y-112729265D01*
X75275919Y-112729265D02*
X75466395Y-112729265D01*
X75466395Y-112729265D02*
X75561633Y-112681646D01*
X75561633Y-112681646D02*
X75609252Y-112634026D01*
X75609252Y-112634026D02*
X75656871Y-112538788D01*
X75656871Y-112538788D02*
X75656871Y-112348312D01*
X75656871Y-112348312D02*
X75609252Y-112253074D01*
X75609252Y-112253074D02*
X75561633Y-112205455D01*
X75561633Y-112205455D02*
X75466395Y-112157836D01*
X57024490Y-111234026D02*
X56976871Y-111281646D01*
X56976871Y-111281646D02*
X56834014Y-111329265D01*
X56834014Y-111329265D02*
X56738776Y-111329265D01*
X56738776Y-111329265D02*
X56595919Y-111281646D01*
X56595919Y-111281646D02*
X56500681Y-111186407D01*
X56500681Y-111186407D02*
X56453062Y-111091169D01*
X56453062Y-111091169D02*
X56405443Y-110900693D01*
X56405443Y-110900693D02*
X56405443Y-110757836D01*
X56405443Y-110757836D02*
X56453062Y-110567360D01*
X56453062Y-110567360D02*
X56500681Y-110472122D01*
X56500681Y-110472122D02*
X56595919Y-110376884D01*
X56595919Y-110376884D02*
X56738776Y-110329265D01*
X56738776Y-110329265D02*
X56834014Y-110329265D01*
X56834014Y-110329265D02*
X56976871Y-110376884D01*
X56976871Y-110376884D02*
X57024490Y-110424503D01*
X57929252Y-110329265D02*
X57453062Y-110329265D01*
X57453062Y-110329265D02*
X57405443Y-110805455D01*
X57405443Y-110805455D02*
X57453062Y-110757836D01*
X57453062Y-110757836D02*
X57548300Y-110710217D01*
X57548300Y-110710217D02*
X57786395Y-110710217D01*
X57786395Y-110710217D02*
X57881633Y-110757836D01*
X57881633Y-110757836D02*
X57929252Y-110805455D01*
X57929252Y-110805455D02*
X57976871Y-110900693D01*
X57976871Y-110900693D02*
X57976871Y-111138788D01*
X57976871Y-111138788D02*
X57929252Y-111234026D01*
X57929252Y-111234026D02*
X57881633Y-111281646D01*
X57881633Y-111281646D02*
X57786395Y-111329265D01*
X57786395Y-111329265D02*
X57548300Y-111329265D01*
X57548300Y-111329265D02*
X57453062Y-111281646D01*
X57453062Y-111281646D02*
X57405443Y-111234026D01*
X70899252Y-92219265D02*
X70899252Y-93028788D01*
X70899252Y-93028788D02*
X70946871Y-93124026D01*
X70946871Y-93124026D02*
X70994490Y-93171646D01*
X70994490Y-93171646D02*
X71089728Y-93219265D01*
X71089728Y-93219265D02*
X71280204Y-93219265D01*
X71280204Y-93219265D02*
X71375442Y-93171646D01*
X71375442Y-93171646D02*
X71423061Y-93124026D01*
X71423061Y-93124026D02*
X71470680Y-93028788D01*
X71470680Y-93028788D02*
X71470680Y-92219265D01*
X72470680Y-93219265D02*
X71899252Y-93219265D01*
X72184966Y-93219265D02*
X72184966Y-92219265D01*
X72184966Y-92219265D02*
X72089728Y-92362122D01*
X72089728Y-92362122D02*
X71994490Y-92457360D01*
X71994490Y-92457360D02*
X71899252Y-92504979D01*
X82485976Y-133397303D02*
X82009785Y-133730636D01*
X82485976Y-133968731D02*
X81485976Y-133968731D01*
X81485976Y-133968731D02*
X81485976Y-133587779D01*
X81485976Y-133587779D02*
X81533595Y-133492541D01*
X81533595Y-133492541D02*
X81581214Y-133444922D01*
X81581214Y-133444922D02*
X81676452Y-133397303D01*
X81676452Y-133397303D02*
X81819309Y-133397303D01*
X81819309Y-133397303D02*
X81914547Y-133444922D01*
X81914547Y-133444922D02*
X81962166Y-133492541D01*
X81962166Y-133492541D02*
X82009785Y-133587779D01*
X82009785Y-133587779D02*
X82009785Y-133968731D01*
X82485976Y-132444922D02*
X82485976Y-133016350D01*
X82485976Y-132730636D02*
X81485976Y-132730636D01*
X81485976Y-132730636D02*
X81628833Y-132825874D01*
X81628833Y-132825874D02*
X81724071Y-132921112D01*
X81724071Y-132921112D02*
X81771690Y-133016350D01*
X81485976Y-132111588D02*
X81485976Y-131492541D01*
X81485976Y-131492541D02*
X81866928Y-131825874D01*
X81866928Y-131825874D02*
X81866928Y-131683017D01*
X81866928Y-131683017D02*
X81914547Y-131587779D01*
X81914547Y-131587779D02*
X81962166Y-131540160D01*
X81962166Y-131540160D02*
X82057404Y-131492541D01*
X82057404Y-131492541D02*
X82295499Y-131492541D01*
X82295499Y-131492541D02*
X82390737Y-131540160D01*
X82390737Y-131540160D02*
X82438357Y-131587779D01*
X82438357Y-131587779D02*
X82485976Y-131683017D01*
X82485976Y-131683017D02*
X82485976Y-131968731D01*
X82485976Y-131968731D02*
X82438357Y-132063969D01*
X82438357Y-132063969D02*
X82390737Y-132111588D01*
X45844490Y-104124026D02*
X45796871Y-104171646D01*
X45796871Y-104171646D02*
X45654014Y-104219265D01*
X45654014Y-104219265D02*
X45558776Y-104219265D01*
X45558776Y-104219265D02*
X45415919Y-104171646D01*
X45415919Y-104171646D02*
X45320681Y-104076407D01*
X45320681Y-104076407D02*
X45273062Y-103981169D01*
X45273062Y-103981169D02*
X45225443Y-103790693D01*
X45225443Y-103790693D02*
X45225443Y-103647836D01*
X45225443Y-103647836D02*
X45273062Y-103457360D01*
X45273062Y-103457360D02*
X45320681Y-103362122D01*
X45320681Y-103362122D02*
X45415919Y-103266884D01*
X45415919Y-103266884D02*
X45558776Y-103219265D01*
X45558776Y-103219265D02*
X45654014Y-103219265D01*
X45654014Y-103219265D02*
X45796871Y-103266884D01*
X45796871Y-103266884D02*
X45844490Y-103314503D01*
X46701633Y-103552598D02*
X46701633Y-104219265D01*
X46463538Y-103171646D02*
X46225443Y-103885931D01*
X46225443Y-103885931D02*
X46844490Y-103885931D01*
X79515976Y-132811112D02*
X79039785Y-133144445D01*
X79515976Y-133382540D02*
X78515976Y-133382540D01*
X78515976Y-133382540D02*
X78515976Y-133001588D01*
X78515976Y-133001588D02*
X78563595Y-132906350D01*
X78563595Y-132906350D02*
X78611214Y-132858731D01*
X78611214Y-132858731D02*
X78706452Y-132811112D01*
X78706452Y-132811112D02*
X78849309Y-132811112D01*
X78849309Y-132811112D02*
X78944547Y-132858731D01*
X78944547Y-132858731D02*
X78992166Y-132906350D01*
X78992166Y-132906350D02*
X79039785Y-133001588D01*
X79039785Y-133001588D02*
X79039785Y-133382540D01*
X78611214Y-132430159D02*
X78563595Y-132382540D01*
X78563595Y-132382540D02*
X78515976Y-132287302D01*
X78515976Y-132287302D02*
X78515976Y-132049207D01*
X78515976Y-132049207D02*
X78563595Y-131953969D01*
X78563595Y-131953969D02*
X78611214Y-131906350D01*
X78611214Y-131906350D02*
X78706452Y-131858731D01*
X78706452Y-131858731D02*
X78801690Y-131858731D01*
X78801690Y-131858731D02*
X78944547Y-131906350D01*
X78944547Y-131906350D02*
X79515976Y-132477778D01*
X79515976Y-132477778D02*
X79515976Y-131858731D01*
D17*
X127429931Y-143891382D02*
X126715646Y-143891382D01*
X126715646Y-143891382D02*
X126572789Y-143843763D01*
X126572789Y-143843763D02*
X126477551Y-143748525D01*
X126477551Y-143748525D02*
X126429931Y-143605668D01*
X126429931Y-143605668D02*
X126429931Y-143510430D01*
X127334693Y-144319954D02*
X127382312Y-144367573D01*
X127382312Y-144367573D02*
X127429931Y-144462811D01*
X127429931Y-144462811D02*
X127429931Y-144700906D01*
X127429931Y-144700906D02*
X127382312Y-144796144D01*
X127382312Y-144796144D02*
X127334693Y-144843763D01*
X127334693Y-144843763D02*
X127239455Y-144891382D01*
X127239455Y-144891382D02*
X127144217Y-144891382D01*
X127144217Y-144891382D02*
X127001360Y-144843763D01*
X127001360Y-144843763D02*
X126429931Y-144272335D01*
X126429931Y-144272335D02*
X126429931Y-144891382D01*
D12*
X128745812Y-89174408D02*
X128412479Y-88698217D01*
X128174384Y-89174408D02*
X128174384Y-88174408D01*
X128174384Y-88174408D02*
X128555336Y-88174408D01*
X128555336Y-88174408D02*
X128650574Y-88222027D01*
X128650574Y-88222027D02*
X128698193Y-88269646D01*
X128698193Y-88269646D02*
X128745812Y-88364884D01*
X128745812Y-88364884D02*
X128745812Y-88507741D01*
X128745812Y-88507741D02*
X128698193Y-88602979D01*
X128698193Y-88602979D02*
X128650574Y-88650598D01*
X128650574Y-88650598D02*
X128555336Y-88698217D01*
X128555336Y-88698217D02*
X128174384Y-88698217D01*
X129602955Y-88174408D02*
X129412479Y-88174408D01*
X129412479Y-88174408D02*
X129317241Y-88222027D01*
X129317241Y-88222027D02*
X129269622Y-88269646D01*
X129269622Y-88269646D02*
X129174384Y-88412503D01*
X129174384Y-88412503D02*
X129126765Y-88602979D01*
X129126765Y-88602979D02*
X129126765Y-88983931D01*
X129126765Y-88983931D02*
X129174384Y-89079169D01*
X129174384Y-89079169D02*
X129222003Y-89126789D01*
X129222003Y-89126789D02*
X129317241Y-89174408D01*
X129317241Y-89174408D02*
X129507717Y-89174408D01*
X129507717Y-89174408D02*
X129602955Y-89126789D01*
X129602955Y-89126789D02*
X129650574Y-89079169D01*
X129650574Y-89079169D02*
X129698193Y-88983931D01*
X129698193Y-88983931D02*
X129698193Y-88745836D01*
X129698193Y-88745836D02*
X129650574Y-88650598D01*
X129650574Y-88650598D02*
X129602955Y-88602979D01*
X129602955Y-88602979D02*
X129507717Y-88555360D01*
X129507717Y-88555360D02*
X129317241Y-88555360D01*
X129317241Y-88555360D02*
X129222003Y-88602979D01*
X129222003Y-88602979D02*
X129174384Y-88650598D01*
X129174384Y-88650598D02*
X129126765Y-88745836D01*
X132142170Y-83519954D02*
X131665979Y-83853287D01*
X132142170Y-84091382D02*
X131142170Y-84091382D01*
X131142170Y-84091382D02*
X131142170Y-83710430D01*
X131142170Y-83710430D02*
X131189789Y-83615192D01*
X131189789Y-83615192D02*
X131237408Y-83567573D01*
X131237408Y-83567573D02*
X131332646Y-83519954D01*
X131332646Y-83519954D02*
X131475503Y-83519954D01*
X131475503Y-83519954D02*
X131570741Y-83567573D01*
X131570741Y-83567573D02*
X131618360Y-83615192D01*
X131618360Y-83615192D02*
X131665979Y-83710430D01*
X131665979Y-83710430D02*
X131665979Y-84091382D01*
X131142170Y-83234239D02*
X132142170Y-82900906D01*
X132142170Y-82900906D02*
X131142170Y-82567573D01*
X131142170Y-82329477D02*
X131142170Y-81710430D01*
X131142170Y-81710430D02*
X131523122Y-82043763D01*
X131523122Y-82043763D02*
X131523122Y-81900906D01*
X131523122Y-81900906D02*
X131570741Y-81805668D01*
X131570741Y-81805668D02*
X131618360Y-81758049D01*
X131618360Y-81758049D02*
X131713598Y-81710430D01*
X131713598Y-81710430D02*
X131951693Y-81710430D01*
X131951693Y-81710430D02*
X132046931Y-81758049D01*
X132046931Y-81758049D02*
X132094551Y-81805668D01*
X132094551Y-81805668D02*
X132142170Y-81900906D01*
X132142170Y-81900906D02*
X132142170Y-82186620D01*
X132142170Y-82186620D02*
X132094551Y-82281858D01*
X132094551Y-82281858D02*
X132046931Y-82329477D01*
D17*
X95544770Y-144258049D02*
X96259055Y-144258049D01*
X96259055Y-144258049D02*
X96401912Y-144305668D01*
X96401912Y-144305668D02*
X96497151Y-144400906D01*
X96497151Y-144400906D02*
X96544770Y-144543763D01*
X96544770Y-144543763D02*
X96544770Y-144639001D01*
X96544770Y-143258049D02*
X96544770Y-143829477D01*
X96544770Y-143543763D02*
X95544770Y-143543763D01*
X95544770Y-143543763D02*
X95687627Y-143639001D01*
X95687627Y-143639001D02*
X95782865Y-143734239D01*
X95782865Y-143734239D02*
X95830484Y-143829477D01*
D12*
X124967298Y-117066255D02*
X124491107Y-117399588D01*
X124967298Y-117637683D02*
X123967298Y-117637683D01*
X123967298Y-117637683D02*
X123967298Y-117256731D01*
X123967298Y-117256731D02*
X124014917Y-117161493D01*
X124014917Y-117161493D02*
X124062536Y-117113874D01*
X124062536Y-117113874D02*
X124157774Y-117066255D01*
X124157774Y-117066255D02*
X124300631Y-117066255D01*
X124300631Y-117066255D02*
X124395869Y-117113874D01*
X124395869Y-117113874D02*
X124443488Y-117161493D01*
X124443488Y-117161493D02*
X124491107Y-117256731D01*
X124491107Y-117256731D02*
X124491107Y-117637683D01*
X123967298Y-116732921D02*
X123967298Y-116066255D01*
X123967298Y-116066255D02*
X124967298Y-116494826D01*
X118345812Y-92759169D02*
X118298193Y-92806789D01*
X118298193Y-92806789D02*
X118155336Y-92854408D01*
X118155336Y-92854408D02*
X118060098Y-92854408D01*
X118060098Y-92854408D02*
X117917241Y-92806789D01*
X117917241Y-92806789D02*
X117822003Y-92711550D01*
X117822003Y-92711550D02*
X117774384Y-92616312D01*
X117774384Y-92616312D02*
X117726765Y-92425836D01*
X117726765Y-92425836D02*
X117726765Y-92282979D01*
X117726765Y-92282979D02*
X117774384Y-92092503D01*
X117774384Y-92092503D02*
X117822003Y-91997265D01*
X117822003Y-91997265D02*
X117917241Y-91902027D01*
X117917241Y-91902027D02*
X118060098Y-91854408D01*
X118060098Y-91854408D02*
X118155336Y-91854408D01*
X118155336Y-91854408D02*
X118298193Y-91902027D01*
X118298193Y-91902027D02*
X118345812Y-91949646D01*
X118726765Y-91949646D02*
X118774384Y-91902027D01*
X118774384Y-91902027D02*
X118869622Y-91854408D01*
X118869622Y-91854408D02*
X119107717Y-91854408D01*
X119107717Y-91854408D02*
X119202955Y-91902027D01*
X119202955Y-91902027D02*
X119250574Y-91949646D01*
X119250574Y-91949646D02*
X119298193Y-92044884D01*
X119298193Y-92044884D02*
X119298193Y-92140122D01*
X119298193Y-92140122D02*
X119250574Y-92282979D01*
X119250574Y-92282979D02*
X118679146Y-92854408D01*
X118679146Y-92854408D02*
X119298193Y-92854408D01*
X98867298Y-117066255D02*
X98391107Y-117399588D01*
X98867298Y-117637683D02*
X97867298Y-117637683D01*
X97867298Y-117637683D02*
X97867298Y-117256731D01*
X97867298Y-117256731D02*
X97914917Y-117161493D01*
X97914917Y-117161493D02*
X97962536Y-117113874D01*
X97962536Y-117113874D02*
X98057774Y-117066255D01*
X98057774Y-117066255D02*
X98200631Y-117066255D01*
X98200631Y-117066255D02*
X98295869Y-117113874D01*
X98295869Y-117113874D02*
X98343488Y-117161493D01*
X98343488Y-117161493D02*
X98391107Y-117256731D01*
X98391107Y-117256731D02*
X98391107Y-117637683D01*
X98295869Y-116494826D02*
X98248250Y-116590064D01*
X98248250Y-116590064D02*
X98200631Y-116637683D01*
X98200631Y-116637683D02*
X98105393Y-116685302D01*
X98105393Y-116685302D02*
X98057774Y-116685302D01*
X98057774Y-116685302D02*
X97962536Y-116637683D01*
X97962536Y-116637683D02*
X97914917Y-116590064D01*
X97914917Y-116590064D02*
X97867298Y-116494826D01*
X97867298Y-116494826D02*
X97867298Y-116304350D01*
X97867298Y-116304350D02*
X97914917Y-116209112D01*
X97914917Y-116209112D02*
X97962536Y-116161493D01*
X97962536Y-116161493D02*
X98057774Y-116113874D01*
X98057774Y-116113874D02*
X98105393Y-116113874D01*
X98105393Y-116113874D02*
X98200631Y-116161493D01*
X98200631Y-116161493D02*
X98248250Y-116209112D01*
X98248250Y-116209112D02*
X98295869Y-116304350D01*
X98295869Y-116304350D02*
X98295869Y-116494826D01*
X98295869Y-116494826D02*
X98343488Y-116590064D01*
X98343488Y-116590064D02*
X98391107Y-116637683D01*
X98391107Y-116637683D02*
X98486345Y-116685302D01*
X98486345Y-116685302D02*
X98676821Y-116685302D01*
X98676821Y-116685302D02*
X98772059Y-116637683D01*
X98772059Y-116637683D02*
X98819679Y-116590064D01*
X98819679Y-116590064D02*
X98867298Y-116494826D01*
X98867298Y-116494826D02*
X98867298Y-116304350D01*
X98867298Y-116304350D02*
X98819679Y-116209112D01*
X98819679Y-116209112D02*
X98772059Y-116161493D01*
X98772059Y-116161493D02*
X98676821Y-116113874D01*
X98676821Y-116113874D02*
X98486345Y-116113874D01*
X98486345Y-116113874D02*
X98391107Y-116161493D01*
X98391107Y-116161493D02*
X98343488Y-116209112D01*
X98343488Y-116209112D02*
X98295869Y-116304350D01*
X126524384Y-131804408D02*
X126524384Y-130804408D01*
X126524384Y-130804408D02*
X126762479Y-130804408D01*
X126762479Y-130804408D02*
X126905336Y-130852027D01*
X126905336Y-130852027D02*
X127000574Y-130947265D01*
X127000574Y-130947265D02*
X127048193Y-131042503D01*
X127048193Y-131042503D02*
X127095812Y-131232979D01*
X127095812Y-131232979D02*
X127095812Y-131375836D01*
X127095812Y-131375836D02*
X127048193Y-131566312D01*
X127048193Y-131566312D02*
X127000574Y-131661550D01*
X127000574Y-131661550D02*
X126905336Y-131756789D01*
X126905336Y-131756789D02*
X126762479Y-131804408D01*
X126762479Y-131804408D02*
X126524384Y-131804408D01*
X127429146Y-130804408D02*
X128048193Y-130804408D01*
X128048193Y-130804408D02*
X127714860Y-131185360D01*
X127714860Y-131185360D02*
X127857717Y-131185360D01*
X127857717Y-131185360D02*
X127952955Y-131232979D01*
X127952955Y-131232979D02*
X128000574Y-131280598D01*
X128000574Y-131280598D02*
X128048193Y-131375836D01*
X128048193Y-131375836D02*
X128048193Y-131613931D01*
X128048193Y-131613931D02*
X128000574Y-131709169D01*
X128000574Y-131709169D02*
X127952955Y-131756789D01*
X127952955Y-131756789D02*
X127857717Y-131804408D01*
X127857717Y-131804408D02*
X127572003Y-131804408D01*
X127572003Y-131804408D02*
X127476765Y-131756789D01*
X127476765Y-131756789D02*
X127429146Y-131709169D01*
X117642170Y-83719954D02*
X117165979Y-84053287D01*
X117642170Y-84291382D02*
X116642170Y-84291382D01*
X116642170Y-84291382D02*
X116642170Y-83910430D01*
X116642170Y-83910430D02*
X116689789Y-83815192D01*
X116689789Y-83815192D02*
X116737408Y-83767573D01*
X116737408Y-83767573D02*
X116832646Y-83719954D01*
X116832646Y-83719954D02*
X116975503Y-83719954D01*
X116975503Y-83719954D02*
X117070741Y-83767573D01*
X117070741Y-83767573D02*
X117118360Y-83815192D01*
X117118360Y-83815192D02*
X117165979Y-83910430D01*
X117165979Y-83910430D02*
X117165979Y-84291382D01*
X116642170Y-83434239D02*
X117642170Y-83100906D01*
X117642170Y-83100906D02*
X116642170Y-82767573D01*
X116737408Y-82481858D02*
X116689789Y-82434239D01*
X116689789Y-82434239D02*
X116642170Y-82339001D01*
X116642170Y-82339001D02*
X116642170Y-82100906D01*
X116642170Y-82100906D02*
X116689789Y-82005668D01*
X116689789Y-82005668D02*
X116737408Y-81958049D01*
X116737408Y-81958049D02*
X116832646Y-81910430D01*
X116832646Y-81910430D02*
X116927884Y-81910430D01*
X116927884Y-81910430D02*
X117070741Y-81958049D01*
X117070741Y-81958049D02*
X117642170Y-82529477D01*
X117642170Y-82529477D02*
X117642170Y-81910430D01*
X100825812Y-89124408D02*
X100492479Y-88648217D01*
X100254384Y-89124408D02*
X100254384Y-88124408D01*
X100254384Y-88124408D02*
X100635336Y-88124408D01*
X100635336Y-88124408D02*
X100730574Y-88172027D01*
X100730574Y-88172027D02*
X100778193Y-88219646D01*
X100778193Y-88219646D02*
X100825812Y-88314884D01*
X100825812Y-88314884D02*
X100825812Y-88457741D01*
X100825812Y-88457741D02*
X100778193Y-88552979D01*
X100778193Y-88552979D02*
X100730574Y-88600598D01*
X100730574Y-88600598D02*
X100635336Y-88648217D01*
X100635336Y-88648217D02*
X100254384Y-88648217D01*
X101159146Y-88124408D02*
X101778193Y-88124408D01*
X101778193Y-88124408D02*
X101444860Y-88505360D01*
X101444860Y-88505360D02*
X101587717Y-88505360D01*
X101587717Y-88505360D02*
X101682955Y-88552979D01*
X101682955Y-88552979D02*
X101730574Y-88600598D01*
X101730574Y-88600598D02*
X101778193Y-88695836D01*
X101778193Y-88695836D02*
X101778193Y-88933931D01*
X101778193Y-88933931D02*
X101730574Y-89029169D01*
X101730574Y-89029169D02*
X101682955Y-89076789D01*
X101682955Y-89076789D02*
X101587717Y-89124408D01*
X101587717Y-89124408D02*
X101302003Y-89124408D01*
X101302003Y-89124408D02*
X101206765Y-89076789D01*
X101206765Y-89076789D02*
X101159146Y-89029169D01*
X118127298Y-107307683D02*
X117127298Y-107307683D01*
X117127298Y-107307683D02*
X117127298Y-107069588D01*
X117127298Y-107069588D02*
X117174917Y-106926731D01*
X117174917Y-106926731D02*
X117270155Y-106831493D01*
X117270155Y-106831493D02*
X117365393Y-106783874D01*
X117365393Y-106783874D02*
X117555869Y-106736255D01*
X117555869Y-106736255D02*
X117698726Y-106736255D01*
X117698726Y-106736255D02*
X117889202Y-106783874D01*
X117889202Y-106783874D02*
X117984440Y-106831493D01*
X117984440Y-106831493D02*
X118079679Y-106926731D01*
X118079679Y-106926731D02*
X118127298Y-107069588D01*
X118127298Y-107069588D02*
X118127298Y-107307683D01*
X117222536Y-106355302D02*
X117174917Y-106307683D01*
X117174917Y-106307683D02*
X117127298Y-106212445D01*
X117127298Y-106212445D02*
X117127298Y-105974350D01*
X117127298Y-105974350D02*
X117174917Y-105879112D01*
X117174917Y-105879112D02*
X117222536Y-105831493D01*
X117222536Y-105831493D02*
X117317774Y-105783874D01*
X117317774Y-105783874D02*
X117413012Y-105783874D01*
X117413012Y-105783874D02*
X117555869Y-105831493D01*
X117555869Y-105831493D02*
X118127298Y-106402921D01*
X118127298Y-106402921D02*
X118127298Y-105783874D01*
D17*
X116854018Y-113034516D02*
X116996875Y-113082135D01*
X116996875Y-113082135D02*
X117234970Y-113082135D01*
X117234970Y-113082135D02*
X117330208Y-113034516D01*
X117330208Y-113034516D02*
X117377827Y-112986896D01*
X117377827Y-112986896D02*
X117425446Y-112891658D01*
X117425446Y-112891658D02*
X117425446Y-112796420D01*
X117425446Y-112796420D02*
X117377827Y-112701182D01*
X117377827Y-112701182D02*
X117330208Y-112653563D01*
X117330208Y-112653563D02*
X117234970Y-112605944D01*
X117234970Y-112605944D02*
X117044494Y-112558325D01*
X117044494Y-112558325D02*
X116949256Y-112510706D01*
X116949256Y-112510706D02*
X116901637Y-112463087D01*
X116901637Y-112463087D02*
X116854018Y-112367849D01*
X116854018Y-112367849D02*
X116854018Y-112272611D01*
X116854018Y-112272611D02*
X116901637Y-112177373D01*
X116901637Y-112177373D02*
X116949256Y-112129754D01*
X116949256Y-112129754D02*
X117044494Y-112082135D01*
X117044494Y-112082135D02*
X117282589Y-112082135D01*
X117282589Y-112082135D02*
X117425446Y-112129754D01*
X117758780Y-112082135D02*
X117996875Y-113082135D01*
X117996875Y-113082135D02*
X118187351Y-112367849D01*
X118187351Y-112367849D02*
X118377827Y-113082135D01*
X118377827Y-113082135D02*
X118615923Y-112082135D01*
X118949256Y-112177373D02*
X118996875Y-112129754D01*
X118996875Y-112129754D02*
X119092113Y-112082135D01*
X119092113Y-112082135D02*
X119330208Y-112082135D01*
X119330208Y-112082135D02*
X119425446Y-112129754D01*
X119425446Y-112129754D02*
X119473065Y-112177373D01*
X119473065Y-112177373D02*
X119520684Y-112272611D01*
X119520684Y-112272611D02*
X119520684Y-112367849D01*
X119520684Y-112367849D02*
X119473065Y-112510706D01*
X119473065Y-112510706D02*
X118901637Y-113082135D01*
X118901637Y-113082135D02*
X119520684Y-113082135D01*
D12*
X118145812Y-89959169D02*
X118098193Y-90006789D01*
X118098193Y-90006789D02*
X117955336Y-90054408D01*
X117955336Y-90054408D02*
X117860098Y-90054408D01*
X117860098Y-90054408D02*
X117717241Y-90006789D01*
X117717241Y-90006789D02*
X117622003Y-89911550D01*
X117622003Y-89911550D02*
X117574384Y-89816312D01*
X117574384Y-89816312D02*
X117526765Y-89625836D01*
X117526765Y-89625836D02*
X117526765Y-89482979D01*
X117526765Y-89482979D02*
X117574384Y-89292503D01*
X117574384Y-89292503D02*
X117622003Y-89197265D01*
X117622003Y-89197265D02*
X117717241Y-89102027D01*
X117717241Y-89102027D02*
X117860098Y-89054408D01*
X117860098Y-89054408D02*
X117955336Y-89054408D01*
X117955336Y-89054408D02*
X118098193Y-89102027D01*
X118098193Y-89102027D02*
X118145812Y-89149646D01*
X118479146Y-89054408D02*
X119098193Y-89054408D01*
X119098193Y-89054408D02*
X118764860Y-89435360D01*
X118764860Y-89435360D02*
X118907717Y-89435360D01*
X118907717Y-89435360D02*
X119002955Y-89482979D01*
X119002955Y-89482979D02*
X119050574Y-89530598D01*
X119050574Y-89530598D02*
X119098193Y-89625836D01*
X119098193Y-89625836D02*
X119098193Y-89863931D01*
X119098193Y-89863931D02*
X119050574Y-89959169D01*
X119050574Y-89959169D02*
X119002955Y-90006789D01*
X119002955Y-90006789D02*
X118907717Y-90054408D01*
X118907717Y-90054408D02*
X118622003Y-90054408D01*
X118622003Y-90054408D02*
X118526765Y-90006789D01*
X118526765Y-90006789D02*
X118479146Y-89959169D01*
X111850574Y-105354408D02*
X111850574Y-106163931D01*
X111850574Y-106163931D02*
X111898193Y-106259169D01*
X111898193Y-106259169D02*
X111945812Y-106306789D01*
X111945812Y-106306789D02*
X112041050Y-106354408D01*
X112041050Y-106354408D02*
X112231526Y-106354408D01*
X112231526Y-106354408D02*
X112326764Y-106306789D01*
X112326764Y-106306789D02*
X112374383Y-106259169D01*
X112374383Y-106259169D02*
X112422002Y-106163931D01*
X112422002Y-106163931D02*
X112422002Y-105354408D01*
X113422002Y-106354408D02*
X112850574Y-106354408D01*
X113136288Y-106354408D02*
X113136288Y-105354408D01*
X113136288Y-105354408D02*
X113041050Y-105497265D01*
X113041050Y-105497265D02*
X112945812Y-105592503D01*
X112945812Y-105592503D02*
X112850574Y-105640122D01*
X123598583Y-103632921D02*
X123636679Y-103671017D01*
X123636679Y-103671017D02*
X123674774Y-103785302D01*
X123674774Y-103785302D02*
X123674774Y-103861493D01*
X123674774Y-103861493D02*
X123636679Y-103975779D01*
X123636679Y-103975779D02*
X123560488Y-104051969D01*
X123560488Y-104051969D02*
X123484298Y-104090064D01*
X123484298Y-104090064D02*
X123331917Y-104128160D01*
X123331917Y-104128160D02*
X123217631Y-104128160D01*
X123217631Y-104128160D02*
X123065250Y-104090064D01*
X123065250Y-104090064D02*
X122989059Y-104051969D01*
X122989059Y-104051969D02*
X122912869Y-103975779D01*
X122912869Y-103975779D02*
X122874774Y-103861493D01*
X122874774Y-103861493D02*
X122874774Y-103785302D01*
X122874774Y-103785302D02*
X122912869Y-103671017D01*
X122912869Y-103671017D02*
X122950964Y-103632921D01*
X122874774Y-102947207D02*
X122874774Y-103099588D01*
X122874774Y-103099588D02*
X122912869Y-103175779D01*
X122912869Y-103175779D02*
X122950964Y-103213874D01*
X122950964Y-103213874D02*
X123065250Y-103290064D01*
X123065250Y-103290064D02*
X123217631Y-103328160D01*
X123217631Y-103328160D02*
X123522393Y-103328160D01*
X123522393Y-103328160D02*
X123598583Y-103290064D01*
X123598583Y-103290064D02*
X123636679Y-103251969D01*
X123636679Y-103251969D02*
X123674774Y-103175779D01*
X123674774Y-103175779D02*
X123674774Y-103023398D01*
X123674774Y-103023398D02*
X123636679Y-102947207D01*
X123636679Y-102947207D02*
X123598583Y-102909112D01*
X123598583Y-102909112D02*
X123522393Y-102871017D01*
X123522393Y-102871017D02*
X123331917Y-102871017D01*
X123331917Y-102871017D02*
X123255726Y-102909112D01*
X123255726Y-102909112D02*
X123217631Y-102947207D01*
X123217631Y-102947207D02*
X123179536Y-103023398D01*
X123179536Y-103023398D02*
X123179536Y-103175779D01*
X123179536Y-103175779D02*
X123217631Y-103251969D01*
X123217631Y-103251969D02*
X123255726Y-103290064D01*
X123255726Y-103290064D02*
X123331917Y-103328160D01*
X101372059Y-103806255D02*
X101419679Y-103853874D01*
X101419679Y-103853874D02*
X101467298Y-103996731D01*
X101467298Y-103996731D02*
X101467298Y-104091969D01*
X101467298Y-104091969D02*
X101419679Y-104234826D01*
X101419679Y-104234826D02*
X101324440Y-104330064D01*
X101324440Y-104330064D02*
X101229202Y-104377683D01*
X101229202Y-104377683D02*
X101038726Y-104425302D01*
X101038726Y-104425302D02*
X100895869Y-104425302D01*
X100895869Y-104425302D02*
X100705393Y-104377683D01*
X100705393Y-104377683D02*
X100610155Y-104330064D01*
X100610155Y-104330064D02*
X100514917Y-104234826D01*
X100514917Y-104234826D02*
X100467298Y-104091969D01*
X100467298Y-104091969D02*
X100467298Y-103996731D01*
X100467298Y-103996731D02*
X100514917Y-103853874D01*
X100514917Y-103853874D02*
X100562536Y-103806255D01*
X101467298Y-102853874D02*
X101467298Y-103425302D01*
X101467298Y-103139588D02*
X100467298Y-103139588D01*
X100467298Y-103139588D02*
X100610155Y-103234826D01*
X100610155Y-103234826D02*
X100705393Y-103330064D01*
X100705393Y-103330064D02*
X100753012Y-103425302D01*
X103342170Y-83519954D02*
X102865979Y-83853287D01*
X103342170Y-84091382D02*
X102342170Y-84091382D01*
X102342170Y-84091382D02*
X102342170Y-83710430D01*
X102342170Y-83710430D02*
X102389789Y-83615192D01*
X102389789Y-83615192D02*
X102437408Y-83567573D01*
X102437408Y-83567573D02*
X102532646Y-83519954D01*
X102532646Y-83519954D02*
X102675503Y-83519954D01*
X102675503Y-83519954D02*
X102770741Y-83567573D01*
X102770741Y-83567573D02*
X102818360Y-83615192D01*
X102818360Y-83615192D02*
X102865979Y-83710430D01*
X102865979Y-83710430D02*
X102865979Y-84091382D01*
X102342170Y-83234239D02*
X103342170Y-82900906D01*
X103342170Y-82900906D02*
X102342170Y-82567573D01*
X103342170Y-81710430D02*
X103342170Y-82281858D01*
X103342170Y-81996144D02*
X102342170Y-81996144D01*
X102342170Y-81996144D02*
X102485027Y-82091382D01*
X102485027Y-82091382D02*
X102580265Y-82186620D01*
X102580265Y-82186620D02*
X102627884Y-82281858D01*
X125015812Y-88924408D02*
X124682479Y-88448217D01*
X124444384Y-88924408D02*
X124444384Y-87924408D01*
X124444384Y-87924408D02*
X124825336Y-87924408D01*
X124825336Y-87924408D02*
X124920574Y-87972027D01*
X124920574Y-87972027D02*
X124968193Y-88019646D01*
X124968193Y-88019646D02*
X125015812Y-88114884D01*
X125015812Y-88114884D02*
X125015812Y-88257741D01*
X125015812Y-88257741D02*
X124968193Y-88352979D01*
X124968193Y-88352979D02*
X124920574Y-88400598D01*
X124920574Y-88400598D02*
X124825336Y-88448217D01*
X124825336Y-88448217D02*
X124444384Y-88448217D01*
X125920574Y-87924408D02*
X125444384Y-87924408D01*
X125444384Y-87924408D02*
X125396765Y-88400598D01*
X125396765Y-88400598D02*
X125444384Y-88352979D01*
X125444384Y-88352979D02*
X125539622Y-88305360D01*
X125539622Y-88305360D02*
X125777717Y-88305360D01*
X125777717Y-88305360D02*
X125872955Y-88352979D01*
X125872955Y-88352979D02*
X125920574Y-88400598D01*
X125920574Y-88400598D02*
X125968193Y-88495836D01*
X125968193Y-88495836D02*
X125968193Y-88733931D01*
X125968193Y-88733931D02*
X125920574Y-88829169D01*
X125920574Y-88829169D02*
X125872955Y-88876789D01*
X125872955Y-88876789D02*
X125777717Y-88924408D01*
X125777717Y-88924408D02*
X125539622Y-88924408D01*
X125539622Y-88924408D02*
X125444384Y-88876789D01*
X125444384Y-88876789D02*
X125396765Y-88829169D01*
X101312059Y-106506255D02*
X101359679Y-106553874D01*
X101359679Y-106553874D02*
X101407298Y-106696731D01*
X101407298Y-106696731D02*
X101407298Y-106791969D01*
X101407298Y-106791969D02*
X101359679Y-106934826D01*
X101359679Y-106934826D02*
X101264440Y-107030064D01*
X101264440Y-107030064D02*
X101169202Y-107077683D01*
X101169202Y-107077683D02*
X100978726Y-107125302D01*
X100978726Y-107125302D02*
X100835869Y-107125302D01*
X100835869Y-107125302D02*
X100645393Y-107077683D01*
X100645393Y-107077683D02*
X100550155Y-107030064D01*
X100550155Y-107030064D02*
X100454917Y-106934826D01*
X100454917Y-106934826D02*
X100407298Y-106791969D01*
X100407298Y-106791969D02*
X100407298Y-106696731D01*
X100407298Y-106696731D02*
X100454917Y-106553874D01*
X100454917Y-106553874D02*
X100502536Y-106506255D01*
X100740631Y-105649112D02*
X101407298Y-105649112D01*
X100359679Y-105887207D02*
X101073964Y-106125302D01*
X101073964Y-106125302D02*
X101073964Y-105506255D01*
X118157298Y-110857683D02*
X117157298Y-110857683D01*
X117157298Y-110857683D02*
X117157298Y-110619588D01*
X117157298Y-110619588D02*
X117204917Y-110476731D01*
X117204917Y-110476731D02*
X117300155Y-110381493D01*
X117300155Y-110381493D02*
X117395393Y-110333874D01*
X117395393Y-110333874D02*
X117585869Y-110286255D01*
X117585869Y-110286255D02*
X117728726Y-110286255D01*
X117728726Y-110286255D02*
X117919202Y-110333874D01*
X117919202Y-110333874D02*
X118014440Y-110381493D01*
X118014440Y-110381493D02*
X118109679Y-110476731D01*
X118109679Y-110476731D02*
X118157298Y-110619588D01*
X118157298Y-110619588D02*
X118157298Y-110857683D01*
X118157298Y-109333874D02*
X118157298Y-109905302D01*
X118157298Y-109619588D02*
X117157298Y-109619588D01*
X117157298Y-109619588D02*
X117300155Y-109714826D01*
X117300155Y-109714826D02*
X117395393Y-109810064D01*
X117395393Y-109810064D02*
X117443012Y-109905302D01*
X107645812Y-89054408D02*
X107312479Y-88578217D01*
X107074384Y-89054408D02*
X107074384Y-88054408D01*
X107074384Y-88054408D02*
X107455336Y-88054408D01*
X107455336Y-88054408D02*
X107550574Y-88102027D01*
X107550574Y-88102027D02*
X107598193Y-88149646D01*
X107598193Y-88149646D02*
X107645812Y-88244884D01*
X107645812Y-88244884D02*
X107645812Y-88387741D01*
X107645812Y-88387741D02*
X107598193Y-88482979D01*
X107598193Y-88482979D02*
X107550574Y-88530598D01*
X107550574Y-88530598D02*
X107455336Y-88578217D01*
X107455336Y-88578217D02*
X107074384Y-88578217D01*
X108598193Y-89054408D02*
X108026765Y-89054408D01*
X108312479Y-89054408D02*
X108312479Y-88054408D01*
X108312479Y-88054408D02*
X108217241Y-88197265D01*
X108217241Y-88197265D02*
X108122003Y-88292503D01*
X108122003Y-88292503D02*
X108026765Y-88340122D01*
X104379145Y-83954408D02*
X104379145Y-84668693D01*
X104379145Y-84668693D02*
X104331526Y-84811550D01*
X104331526Y-84811550D02*
X104236288Y-84906789D01*
X104236288Y-84906789D02*
X104093431Y-84954408D01*
X104093431Y-84954408D02*
X103998193Y-84954408D01*
X104855336Y-84954408D02*
X104855336Y-83954408D01*
X104855336Y-83954408D02*
X105236288Y-83954408D01*
X105236288Y-83954408D02*
X105331526Y-84002027D01*
X105331526Y-84002027D02*
X105379145Y-84049646D01*
X105379145Y-84049646D02*
X105426764Y-84144884D01*
X105426764Y-84144884D02*
X105426764Y-84287741D01*
X105426764Y-84287741D02*
X105379145Y-84382979D01*
X105379145Y-84382979D02*
X105331526Y-84430598D01*
X105331526Y-84430598D02*
X105236288Y-84478217D01*
X105236288Y-84478217D02*
X104855336Y-84478217D01*
X106379145Y-84954408D02*
X105807717Y-84954408D01*
X106093431Y-84954408D02*
X106093431Y-83954408D01*
X106093431Y-83954408D02*
X105998193Y-84097265D01*
X105998193Y-84097265D02*
X105902955Y-84192503D01*
X105902955Y-84192503D02*
X105807717Y-84240122D01*
X101232059Y-109126255D02*
X101279679Y-109173874D01*
X101279679Y-109173874D02*
X101327298Y-109316731D01*
X101327298Y-109316731D02*
X101327298Y-109411969D01*
X101327298Y-109411969D02*
X101279679Y-109554826D01*
X101279679Y-109554826D02*
X101184440Y-109650064D01*
X101184440Y-109650064D02*
X101089202Y-109697683D01*
X101089202Y-109697683D02*
X100898726Y-109745302D01*
X100898726Y-109745302D02*
X100755869Y-109745302D01*
X100755869Y-109745302D02*
X100565393Y-109697683D01*
X100565393Y-109697683D02*
X100470155Y-109650064D01*
X100470155Y-109650064D02*
X100374917Y-109554826D01*
X100374917Y-109554826D02*
X100327298Y-109411969D01*
X100327298Y-109411969D02*
X100327298Y-109316731D01*
X100327298Y-109316731D02*
X100374917Y-109173874D01*
X100374917Y-109173874D02*
X100422536Y-109126255D01*
X100327298Y-108221493D02*
X100327298Y-108697683D01*
X100327298Y-108697683D02*
X100803488Y-108745302D01*
X100803488Y-108745302D02*
X100755869Y-108697683D01*
X100755869Y-108697683D02*
X100708250Y-108602445D01*
X100708250Y-108602445D02*
X100708250Y-108364350D01*
X100708250Y-108364350D02*
X100755869Y-108269112D01*
X100755869Y-108269112D02*
X100803488Y-108221493D01*
X100803488Y-108221493D02*
X100898726Y-108173874D01*
X100898726Y-108173874D02*
X101136821Y-108173874D01*
X101136821Y-108173874D02*
X101232059Y-108221493D01*
X101232059Y-108221493D02*
X101279679Y-108269112D01*
X101279679Y-108269112D02*
X101327298Y-108364350D01*
X101327298Y-108364350D02*
X101327298Y-108602445D01*
X101327298Y-108602445D02*
X101279679Y-108697683D01*
X101279679Y-108697683D02*
X101232059Y-108745302D01*
X121895812Y-88974408D02*
X121562479Y-88498217D01*
X121324384Y-88974408D02*
X121324384Y-87974408D01*
X121324384Y-87974408D02*
X121705336Y-87974408D01*
X121705336Y-87974408D02*
X121800574Y-88022027D01*
X121800574Y-88022027D02*
X121848193Y-88069646D01*
X121848193Y-88069646D02*
X121895812Y-88164884D01*
X121895812Y-88164884D02*
X121895812Y-88307741D01*
X121895812Y-88307741D02*
X121848193Y-88402979D01*
X121848193Y-88402979D02*
X121800574Y-88450598D01*
X121800574Y-88450598D02*
X121705336Y-88498217D01*
X121705336Y-88498217D02*
X121324384Y-88498217D01*
X122752955Y-88307741D02*
X122752955Y-88974408D01*
X122514860Y-87926789D02*
X122276765Y-88641074D01*
X122276765Y-88641074D02*
X122895812Y-88641074D01*
X102174384Y-131354408D02*
X102174384Y-130354408D01*
X102174384Y-130354408D02*
X102412479Y-130354408D01*
X102412479Y-130354408D02*
X102555336Y-130402027D01*
X102555336Y-130402027D02*
X102650574Y-130497265D01*
X102650574Y-130497265D02*
X102698193Y-130592503D01*
X102698193Y-130592503D02*
X102745812Y-130782979D01*
X102745812Y-130782979D02*
X102745812Y-130925836D01*
X102745812Y-130925836D02*
X102698193Y-131116312D01*
X102698193Y-131116312D02*
X102650574Y-131211550D01*
X102650574Y-131211550D02*
X102555336Y-131306789D01*
X102555336Y-131306789D02*
X102412479Y-131354408D01*
X102412479Y-131354408D02*
X102174384Y-131354408D01*
X103602955Y-130687741D02*
X103602955Y-131354408D01*
X103364860Y-130306789D02*
X103126765Y-131021074D01*
X103126765Y-131021074D02*
X103745812Y-131021074D01*
X104345812Y-89234408D02*
X104012479Y-88758217D01*
X103774384Y-89234408D02*
X103774384Y-88234408D01*
X103774384Y-88234408D02*
X104155336Y-88234408D01*
X104155336Y-88234408D02*
X104250574Y-88282027D01*
X104250574Y-88282027D02*
X104298193Y-88329646D01*
X104298193Y-88329646D02*
X104345812Y-88424884D01*
X104345812Y-88424884D02*
X104345812Y-88567741D01*
X104345812Y-88567741D02*
X104298193Y-88662979D01*
X104298193Y-88662979D02*
X104250574Y-88710598D01*
X104250574Y-88710598D02*
X104155336Y-88758217D01*
X104155336Y-88758217D02*
X103774384Y-88758217D01*
X104726765Y-88329646D02*
X104774384Y-88282027D01*
X104774384Y-88282027D02*
X104869622Y-88234408D01*
X104869622Y-88234408D02*
X105107717Y-88234408D01*
X105107717Y-88234408D02*
X105202955Y-88282027D01*
X105202955Y-88282027D02*
X105250574Y-88329646D01*
X105250574Y-88329646D02*
X105298193Y-88424884D01*
X105298193Y-88424884D02*
X105298193Y-88520122D01*
X105298193Y-88520122D02*
X105250574Y-88662979D01*
X105250574Y-88662979D02*
X104679146Y-89234408D01*
X104679146Y-89234408D02*
X105298193Y-89234408D01*
D18*
%TO.C,J1*%
X87062479Y-88699589D02*
X98112479Y-88699589D01*
X87062479Y-97899589D02*
X87062479Y-88699589D01*
X92212479Y-97899589D02*
X87062479Y-97899589D01*
X97262479Y-88499589D02*
X98312479Y-88499589D01*
X98112479Y-88699589D02*
X98112479Y-91299589D01*
X98112479Y-95199589D02*
X98112479Y-97899589D01*
X98112479Y-97899589D02*
X96212479Y-97899589D01*
X98312479Y-89549589D02*
X98312479Y-88499589D01*
%TO.C,J2*%
X38826157Y-117834446D02*
X38826157Y-115234446D01*
X41486157Y-115234446D02*
X38826157Y-115234446D01*
X41486157Y-117834446D02*
X38826157Y-117834446D01*
X41486157Y-117834446D02*
X41486157Y-115234446D01*
X41486157Y-119104446D02*
X41486157Y-120434446D01*
X41486157Y-120434446D02*
X40156157Y-120434446D01*
%TO.C,R10*%
X71061157Y-121804446D02*
X71061157Y-128344446D01*
X71061157Y-128344446D02*
X73801157Y-128344446D01*
X72431157Y-121034446D02*
X72431157Y-121804446D01*
X72431157Y-129114446D02*
X72431157Y-128344446D01*
X73801157Y-121804446D02*
X71061157Y-121804446D01*
X73801157Y-128344446D02*
X73801157Y-121804446D01*
%TO.C,C1*%
X47661157Y-105884446D02*
X47676157Y-105884446D01*
X47661157Y-110424446D02*
X47661157Y-105884446D01*
X47661157Y-110424446D02*
X47676157Y-110424446D01*
X49786157Y-105884446D02*
X49801157Y-105884446D01*
X49786157Y-110424446D02*
X49801157Y-110424446D01*
X49801157Y-110424446D02*
X49801157Y-105884446D01*
%TO.C,RV2*%
X55351157Y-84999446D02*
X55351157Y-80279446D01*
X55361157Y-76469446D02*
X55361157Y-73409446D01*
X56541157Y-84999446D02*
X55361157Y-84999446D01*
X59441157Y-84999446D02*
X58911157Y-84999446D01*
X61891157Y-84999446D02*
X61061157Y-84999446D01*
X65101157Y-73409446D02*
X55361157Y-73409446D01*
X65101157Y-76469446D02*
X65101157Y-73409446D01*
X65101157Y-84999446D02*
X63611157Y-84999446D01*
X65101157Y-84999446D02*
X65101157Y-80279446D01*
%TO.C,R7*%
X60321157Y-103004446D02*
X60321157Y-109544446D01*
X60321157Y-109544446D02*
X63061157Y-109544446D01*
X61691157Y-102234446D02*
X61691157Y-103004446D01*
X61691157Y-110314446D02*
X61691157Y-109544446D01*
X63061157Y-103004446D02*
X60321157Y-103004446D01*
X63061157Y-109544446D02*
X63061157Y-103004446D01*
%TO.C,R6*%
X46461157Y-92664446D02*
X46461157Y-99204446D01*
X46461157Y-99204446D02*
X49201157Y-99204446D01*
X47831157Y-91894446D02*
X47831157Y-92664446D01*
X47831157Y-99974446D02*
X47831157Y-99204446D01*
X49201157Y-92664446D02*
X46461157Y-92664446D01*
X49201157Y-99204446D02*
X49201157Y-92664446D01*
%TO.C,C3*%
X64671157Y-107394446D02*
X64671157Y-107409446D01*
X64671157Y-107394446D02*
X69211157Y-107394446D01*
X64671157Y-109519446D02*
X64671157Y-109534446D01*
X64671157Y-109534446D02*
X69211157Y-109534446D01*
X69211157Y-107394446D02*
X69211157Y-107409446D01*
X69211157Y-109519446D02*
X69211157Y-109534446D01*
%TO.C,R8*%
X49821157Y-92674446D02*
X49821157Y-99214446D01*
X49821157Y-99214446D02*
X52561157Y-99214446D01*
X51191157Y-91904446D02*
X51191157Y-92674446D01*
X51191157Y-99984446D02*
X51191157Y-99214446D01*
X52561157Y-92674446D02*
X49821157Y-92674446D01*
X52561157Y-99214446D02*
X52561157Y-92674446D01*
%TO.C,D2*%
X56701157Y-93284446D02*
X56701157Y-98724446D01*
X56701157Y-98724446D02*
X59641157Y-98724446D01*
X58171157Y-92264446D02*
X58171157Y-93284446D01*
X58171157Y-99744446D02*
X58171157Y-98724446D01*
X59641157Y-93284446D02*
X56701157Y-93284446D01*
X59641157Y-94064446D02*
X56701157Y-94064446D01*
X59641157Y-94184446D02*
X56701157Y-94184446D01*
X59641157Y-94304446D02*
X56701157Y-94304446D01*
X59641157Y-98724446D02*
X59641157Y-93284446D01*
%TO.C,C7*%
X64641157Y-104684446D02*
X64641157Y-104699446D01*
X64641157Y-104684446D02*
X69181157Y-104684446D01*
X64641157Y-106809446D02*
X64641157Y-106824446D01*
X64641157Y-106824446D02*
X69181157Y-106824446D01*
X69181157Y-104684446D02*
X69181157Y-104699446D01*
X69181157Y-106809446D02*
X69181157Y-106824446D01*
%TO.C,Q1*%
X54861157Y-104204446D02*
X51261157Y-104204446D01*
X53061157Y-108654446D02*
G75*
G02*
X51222679Y-104215968I0J2600000D01*
G01*
X54899635Y-104215968D02*
G75*
G02*
X53061157Y-108654447I-1838478J-1838478D01*
G01*
%TO.C,D3*%
X44841157Y-115109446D02*
X44841157Y-118199446D01*
X44841157Y-115109616D02*
G75*
G02*
X50391157Y-116654908I2560000J-1544830D01*
G01*
X50391157Y-116653984D02*
G75*
G02*
X44841157Y-118199276I-2990000J-462D01*
G01*
X49901157Y-116654446D02*
G75*
G02*
X44901157Y-116654446I-2500000J0D01*
G01*
X44901157Y-116654446D02*
G75*
G02*
X49901157Y-116654446I2500000J0D01*
G01*
%TO.C,RV1*%
X40851157Y-84999446D02*
X40851157Y-80279446D01*
X40861157Y-76469446D02*
X40861157Y-73409446D01*
X42041157Y-84999446D02*
X40861157Y-84999446D01*
X44941157Y-84999446D02*
X44411157Y-84999446D01*
X47391157Y-84999446D02*
X46561157Y-84999446D01*
X50601157Y-73409446D02*
X40861157Y-73409446D01*
X50601157Y-76469446D02*
X50601157Y-73409446D01*
X50601157Y-84999446D02*
X49111157Y-84999446D01*
X50601157Y-84999446D02*
X50601157Y-80279446D01*
%TO.C,R3*%
X43161157Y-92684446D02*
X43161157Y-99224446D01*
X43161157Y-99224446D02*
X45901157Y-99224446D01*
X44531157Y-91914446D02*
X44531157Y-92684446D01*
X44531157Y-99994446D02*
X44531157Y-99224446D01*
X45901157Y-92684446D02*
X43161157Y-92684446D01*
X45901157Y-99224446D02*
X45901157Y-92684446D01*
%TO.C,R5*%
X36561157Y-92684446D02*
X36561157Y-99224446D01*
X36561157Y-99224446D02*
X39301157Y-99224446D01*
X37931157Y-91914446D02*
X37931157Y-92684446D01*
X37931157Y-99994446D02*
X37931157Y-99224446D01*
X39301157Y-92684446D02*
X36561157Y-92684446D01*
X39301157Y-99224446D02*
X39301157Y-92684446D01*
%TO.C,R4*%
X39861157Y-92684446D02*
X39861157Y-99224446D01*
X39861157Y-99224446D02*
X42601157Y-99224446D01*
X41231157Y-91914446D02*
X41231157Y-92684446D01*
X41231157Y-99994446D02*
X41231157Y-99224446D01*
X42601157Y-92684446D02*
X39861157Y-92684446D01*
X42601157Y-99224446D02*
X42601157Y-92684446D01*
%TO.C,C9*%
X76941157Y-90294446D02*
X76941157Y-94834446D01*
X76956157Y-90294446D02*
X76941157Y-90294446D01*
X76956157Y-94834446D02*
X76941157Y-94834446D01*
X79081157Y-90294446D02*
X79066157Y-90294446D01*
X79081157Y-90294446D02*
X79081157Y-94834446D01*
X79081157Y-94834446D02*
X79066157Y-94834446D01*
%TO.C,RV3*%
X69851157Y-84999446D02*
X69851157Y-80279446D01*
X69861157Y-76469446D02*
X69861157Y-73409446D01*
X71041157Y-84999446D02*
X69861157Y-84999446D01*
X73941157Y-84999446D02*
X73411157Y-84999446D01*
X76391157Y-84999446D02*
X75561157Y-84999446D01*
X79601157Y-73409446D02*
X69861157Y-73409446D01*
X79601157Y-76469446D02*
X79601157Y-73409446D01*
X79601157Y-84999446D02*
X78111157Y-84999446D01*
X79601157Y-84999446D02*
X79601157Y-80279446D01*
%TO.C,R9*%
X62761157Y-90344446D02*
X63531157Y-90344446D01*
X63531157Y-88974446D02*
X63531157Y-91714446D01*
X63531157Y-91714446D02*
X70071157Y-91714446D01*
X70071157Y-88974446D02*
X63531157Y-88974446D01*
X70071157Y-91714446D02*
X70071157Y-88974446D01*
X70841157Y-90344446D02*
X70071157Y-90344446D01*
%TO.C,R1*%
X74281157Y-121774446D02*
X74281157Y-128314446D01*
X74281157Y-128314446D02*
X77021157Y-128314446D01*
X75651157Y-121004446D02*
X75651157Y-121774446D01*
X75651157Y-129084446D02*
X75651157Y-128314446D01*
X77021157Y-121774446D02*
X74281157Y-121774446D01*
X77021157Y-128314446D02*
X77021157Y-121774446D01*
%TO.C,R11*%
X73661157Y-91844446D02*
X73661157Y-98384446D01*
X73661157Y-98384446D02*
X76401157Y-98384446D01*
X75031157Y-91074446D02*
X75031157Y-91844446D01*
X75031157Y-99154446D02*
X75031157Y-98384446D01*
X76401157Y-91844446D02*
X73661157Y-91844446D01*
X76401157Y-98384446D02*
X76401157Y-91844446D01*
%TO.C,R12*%
X71751157Y-116914446D02*
X72521157Y-116914446D01*
X72521157Y-115544446D02*
X72521157Y-118284446D01*
X72521157Y-118284446D02*
X79061157Y-118284446D01*
X79061157Y-115544446D02*
X72521157Y-115544446D01*
X79061157Y-118284446D02*
X79061157Y-115544446D01*
X79831157Y-116914446D02*
X79061157Y-116914446D01*
%TO.C,C2*%
X35971459Y-106539446D02*
X36771459Y-106539446D01*
X36371459Y-106139446D02*
X36371459Y-106939446D01*
X40381157Y-104774446D02*
X40381157Y-112934446D01*
X40421157Y-104774446D02*
X40421157Y-112934446D01*
X40461157Y-104774446D02*
X40461157Y-112934446D01*
X40501157Y-104775446D02*
X40501157Y-112933446D01*
X40541157Y-104777446D02*
X40541157Y-112931446D01*
X40581157Y-104778446D02*
X40581157Y-112930446D01*
X40621157Y-104780446D02*
X40621157Y-112928446D01*
X40661157Y-104783446D02*
X40661157Y-112925446D01*
X40701157Y-104786446D02*
X40701157Y-112922446D01*
X40741157Y-104789446D02*
X40741157Y-112919446D01*
X40781157Y-104793446D02*
X40781157Y-112915446D01*
X40821157Y-104797446D02*
X40821157Y-112911446D01*
X40861157Y-104802446D02*
X40861157Y-112906446D01*
X40901157Y-104806446D02*
X40901157Y-112902446D01*
X40941157Y-104812446D02*
X40941157Y-112896446D01*
X40981157Y-104817446D02*
X40981157Y-112891446D01*
X41021157Y-104824446D02*
X41021157Y-112884446D01*
X41061157Y-104830446D02*
X41061157Y-112878446D01*
X41102157Y-104837446D02*
X41102157Y-107814446D01*
X41102157Y-109894446D02*
X41102157Y-112871446D01*
X41142157Y-104844446D02*
X41142157Y-107814446D01*
X41142157Y-109894446D02*
X41142157Y-112864446D01*
X41182157Y-104852446D02*
X41182157Y-107814446D01*
X41182157Y-109894446D02*
X41182157Y-112856446D01*
X41222157Y-104860446D02*
X41222157Y-107814446D01*
X41222157Y-109894446D02*
X41222157Y-112848446D01*
X41262157Y-104869446D02*
X41262157Y-107814446D01*
X41262157Y-109894446D02*
X41262157Y-112839446D01*
X41302157Y-104878446D02*
X41302157Y-107814446D01*
X41302157Y-109894446D02*
X41302157Y-112830446D01*
X41342157Y-104887446D02*
X41342157Y-107814446D01*
X41342157Y-109894446D02*
X41342157Y-112821446D01*
X41382157Y-104897446D02*
X41382157Y-107814446D01*
X41382157Y-109894446D02*
X41382157Y-112811446D01*
X41422157Y-104907446D02*
X41422157Y-107814446D01*
X41422157Y-109894446D02*
X41422157Y-112801446D01*
X41462157Y-104918446D02*
X41462157Y-107814446D01*
X41462157Y-109894446D02*
X41462157Y-112790446D01*
X41502157Y-104929446D02*
X41502157Y-107814446D01*
X41502157Y-109894446D02*
X41502157Y-112779446D01*
X41542157Y-104940446D02*
X41542157Y-107814446D01*
X41542157Y-109894446D02*
X41542157Y-112768446D01*
X41582157Y-104952446D02*
X41582157Y-107814446D01*
X41582157Y-109894446D02*
X41582157Y-112756446D01*
X41622157Y-104965446D02*
X41622157Y-107814446D01*
X41622157Y-109894446D02*
X41622157Y-112743446D01*
X41662157Y-104977446D02*
X41662157Y-107814446D01*
X41662157Y-109894446D02*
X41662157Y-112731446D01*
X41702157Y-104991446D02*
X41702157Y-107814446D01*
X41702157Y-109894446D02*
X41702157Y-112717446D01*
X41742157Y-105004446D02*
X41742157Y-107814446D01*
X41742157Y-109894446D02*
X41742157Y-112704446D01*
X41782157Y-105019446D02*
X41782157Y-107814446D01*
X41782157Y-109894446D02*
X41782157Y-112689446D01*
X41822157Y-105033446D02*
X41822157Y-107814446D01*
X41822157Y-109894446D02*
X41822157Y-112675446D01*
X41862157Y-105049446D02*
X41862157Y-107814446D01*
X41862157Y-109894446D02*
X41862157Y-112659446D01*
X41902157Y-105064446D02*
X41902157Y-107814446D01*
X41902157Y-109894446D02*
X41902157Y-112644446D01*
X41942157Y-105080446D02*
X41942157Y-107814446D01*
X41942157Y-109894446D02*
X41942157Y-112628446D01*
X41982157Y-105097446D02*
X41982157Y-107814446D01*
X41982157Y-109894446D02*
X41982157Y-112611446D01*
X42022157Y-105114446D02*
X42022157Y-107814446D01*
X42022157Y-109894446D02*
X42022157Y-112594446D01*
X42062157Y-105132446D02*
X42062157Y-107814446D01*
X42062157Y-109894446D02*
X42062157Y-112576446D01*
X42102157Y-105150446D02*
X42102157Y-107814446D01*
X42102157Y-109894446D02*
X42102157Y-112558446D01*
X42142157Y-105168446D02*
X42142157Y-107814446D01*
X42142157Y-109894446D02*
X42142157Y-112540446D01*
X42182157Y-105188446D02*
X42182157Y-107814446D01*
X42182157Y-109894446D02*
X42182157Y-112520446D01*
X42222157Y-105207446D02*
X42222157Y-107814446D01*
X42222157Y-109894446D02*
X42222157Y-112501446D01*
X42262157Y-105227446D02*
X42262157Y-107814446D01*
X42262157Y-109894446D02*
X42262157Y-112481446D01*
X42302157Y-105248446D02*
X42302157Y-107814446D01*
X42302157Y-109894446D02*
X42302157Y-112460446D01*
X42342157Y-105270446D02*
X42342157Y-107814446D01*
X42342157Y-109894446D02*
X42342157Y-112438446D01*
X42382157Y-105292446D02*
X42382157Y-107814446D01*
X42382157Y-109894446D02*
X42382157Y-112416446D01*
X42422157Y-105314446D02*
X42422157Y-107814446D01*
X42422157Y-109894446D02*
X42422157Y-112394446D01*
X42462157Y-105337446D02*
X42462157Y-107814446D01*
X42462157Y-109894446D02*
X42462157Y-112371446D01*
X42502157Y-105361446D02*
X42502157Y-107814446D01*
X42502157Y-109894446D02*
X42502157Y-112347446D01*
X42542157Y-105385446D02*
X42542157Y-107814446D01*
X42542157Y-109894446D02*
X42542157Y-112323446D01*
X42582157Y-105410446D02*
X42582157Y-107814446D01*
X42582157Y-109894446D02*
X42582157Y-112298446D01*
X42622157Y-105436446D02*
X42622157Y-107814446D01*
X42622157Y-109894446D02*
X42622157Y-112272446D01*
X42662157Y-105462446D02*
X42662157Y-107814446D01*
X42662157Y-109894446D02*
X42662157Y-112246446D01*
X42702157Y-105489446D02*
X42702157Y-107814446D01*
X42702157Y-109894446D02*
X42702157Y-112219446D01*
X42742157Y-105516446D02*
X42742157Y-107814446D01*
X42742157Y-109894446D02*
X42742157Y-112192446D01*
X42782157Y-105545446D02*
X42782157Y-107814446D01*
X42782157Y-109894446D02*
X42782157Y-112163446D01*
X42822157Y-105574446D02*
X42822157Y-107814446D01*
X42822157Y-109894446D02*
X42822157Y-112134446D01*
X42862157Y-105604446D02*
X42862157Y-107814446D01*
X42862157Y-109894446D02*
X42862157Y-112104446D01*
X42902157Y-105634446D02*
X42902157Y-107814446D01*
X42902157Y-109894446D02*
X42902157Y-112074446D01*
X42942157Y-105665446D02*
X42942157Y-107814446D01*
X42942157Y-109894446D02*
X42942157Y-112043446D01*
X42982157Y-105698446D02*
X42982157Y-107814446D01*
X42982157Y-109894446D02*
X42982157Y-112010446D01*
X43022157Y-105730446D02*
X43022157Y-107814446D01*
X43022157Y-109894446D02*
X43022157Y-111978446D01*
X43062157Y-105764446D02*
X43062157Y-107814446D01*
X43062157Y-109894446D02*
X43062157Y-111944446D01*
X43102157Y-105799446D02*
X43102157Y-107814446D01*
X43102157Y-109894446D02*
X43102157Y-111909446D01*
X43142157Y-105835446D02*
X43142157Y-107814446D01*
X43142157Y-109894446D02*
X43142157Y-111873446D01*
X43182157Y-105871446D02*
X43182157Y-111837446D01*
X43222157Y-105909446D02*
X43222157Y-111799446D01*
X43262157Y-105947446D02*
X43262157Y-111761446D01*
X43302157Y-105987446D02*
X43302157Y-111721446D01*
X43342157Y-106028446D02*
X43342157Y-111680446D01*
X43382157Y-106070446D02*
X43382157Y-111638446D01*
X43422157Y-106113446D02*
X43422157Y-111595446D01*
X43462157Y-106157446D02*
X43462157Y-111551446D01*
X43502157Y-106203446D02*
X43502157Y-111505446D01*
X43542157Y-106250446D02*
X43542157Y-111458446D01*
X43582157Y-106298446D02*
X43582157Y-111410446D01*
X43622157Y-106349446D02*
X43622157Y-111359446D01*
X43662157Y-106400446D02*
X43662157Y-111308446D01*
X43702157Y-106454446D02*
X43702157Y-111254446D01*
X43742157Y-106509446D02*
X43742157Y-111199446D01*
X43782157Y-106567446D02*
X43782157Y-111141446D01*
X43822157Y-106626446D02*
X43822157Y-111082446D01*
X43862157Y-106688446D02*
X43862157Y-111020446D01*
X43902157Y-106752446D02*
X43902157Y-110956446D01*
X43942157Y-106820446D02*
X43942157Y-110888446D01*
X43982157Y-106890446D02*
X43982157Y-110818446D01*
X44022157Y-106964446D02*
X44022157Y-110744446D01*
X44062157Y-107041446D02*
X44062157Y-110667446D01*
X44102157Y-107123446D02*
X44102157Y-110585446D01*
X44142157Y-107209446D02*
X44142157Y-110499446D01*
X44182157Y-107302446D02*
X44182157Y-110406446D01*
X44222157Y-107401446D02*
X44222157Y-110307446D01*
X44262157Y-107508446D02*
X44262157Y-110200446D01*
X44302157Y-107625446D02*
X44302157Y-110083446D01*
X44342157Y-107756446D02*
X44342157Y-109952446D01*
X44382157Y-107906446D02*
X44382157Y-109802446D01*
X44422157Y-108086446D02*
X44422157Y-109622446D01*
X44462157Y-108321446D02*
X44462157Y-109387446D01*
X44501157Y-108854446D02*
G75*
G02*
X36261157Y-108854446I-4120000J0D01*
G01*
X36261157Y-108854446D02*
G75*
G02*
X44501157Y-108854446I4120000J0D01*
G01*
%TO.C,C6*%
X60791157Y-93654446D02*
X60806157Y-93654446D01*
X60791157Y-98194446D02*
X60791157Y-93654446D01*
X60791157Y-98194446D02*
X60806157Y-98194446D01*
X62916157Y-93654446D02*
X62931157Y-93654446D01*
X62916157Y-98194446D02*
X62931157Y-98194446D01*
X62931157Y-98194446D02*
X62931157Y-93654446D01*
%TO.C,D1*%
X53181157Y-93254446D02*
X53181157Y-98694446D01*
X53181157Y-97674446D02*
X56121157Y-97674446D01*
X53181157Y-97794446D02*
X56121157Y-97794446D01*
X53181157Y-97914446D02*
X56121157Y-97914446D01*
X53181157Y-98694446D02*
X56121157Y-98694446D01*
X54651157Y-92234446D02*
X54651157Y-93254446D01*
X54651157Y-99714446D02*
X54651157Y-98694446D01*
X56121157Y-93254446D02*
X53181157Y-93254446D01*
X56121157Y-98694446D02*
X56121157Y-93254446D01*
%TO.C,C8*%
X73821157Y-105604446D02*
X73836157Y-105604446D01*
X73821157Y-110144446D02*
X73821157Y-105604446D01*
X73821157Y-110144446D02*
X73836157Y-110144446D01*
X75946157Y-105604446D02*
X75961157Y-105604446D01*
X75946157Y-110144446D02*
X75961157Y-110144446D01*
X75961157Y-110144446D02*
X75961157Y-105604446D01*
%TO.C,C5*%
X56201157Y-104164446D02*
X56201157Y-108704446D01*
X56216157Y-104164446D02*
X56201157Y-104164446D01*
X56216157Y-108704446D02*
X56201157Y-108704446D01*
X58341157Y-104164446D02*
X58326157Y-104164446D01*
X58341157Y-104164446D02*
X58341157Y-108704446D01*
X58341157Y-108704446D02*
X58326157Y-108704446D01*
%TO.C,U1*%
X65621157Y-93724446D02*
X65621157Y-104004446D01*
X65621157Y-104004446D02*
X70921157Y-104004446D01*
X67271157Y-93724446D02*
X65621157Y-93724446D01*
X70921157Y-93724446D02*
X69271157Y-93724446D01*
X70921157Y-104004446D02*
X70921157Y-93724446D01*
X69271157Y-93724446D02*
G75*
G02*
X67271157Y-93724446I-1000000J0D01*
G01*
%TO.C,R13*%
X80661157Y-121784446D02*
X80661157Y-128324446D01*
X80661157Y-128324446D02*
X83401157Y-128324446D01*
X82031157Y-121014446D02*
X82031157Y-121784446D01*
X82031157Y-129094446D02*
X82031157Y-128324446D01*
X83401157Y-121784446D02*
X80661157Y-121784446D01*
X83401157Y-128324446D02*
X83401157Y-121784446D01*
%TO.C,C4*%
X45061157Y-105884446D02*
X45061157Y-110424446D01*
X45076157Y-105884446D02*
X45061157Y-105884446D01*
X45076157Y-110424446D02*
X45061157Y-110424446D01*
X47201157Y-105884446D02*
X47186157Y-105884446D01*
X47201157Y-105884446D02*
X47201157Y-110424446D01*
X47201157Y-110424446D02*
X47186157Y-110424446D01*
%TO.C,R2*%
X77521157Y-121804446D02*
X77521157Y-128344446D01*
X77521157Y-128344446D02*
X80261157Y-128344446D01*
X78891157Y-121034446D02*
X78891157Y-121804446D01*
X78891157Y-129114446D02*
X78891157Y-128344446D01*
X80261157Y-121804446D02*
X77521157Y-121804446D01*
X80261157Y-128344446D02*
X80261157Y-121804446D01*
D12*
%TO.C,SW1*%
X87012479Y-102199589D02*
X87012479Y-104399589D01*
X87012479Y-108499589D02*
X87012479Y-110799589D01*
X91612479Y-102199589D02*
X91612479Y-110799589D01*
D18*
%TO.C,R6*%
X127542479Y-92429589D02*
X127542479Y-98969589D01*
X127542479Y-98969589D02*
X130282479Y-98969589D01*
X128912479Y-91659589D02*
X128912479Y-92429589D01*
X128912479Y-99739589D02*
X128912479Y-98969589D01*
X130282479Y-92429589D02*
X127542479Y-92429589D01*
X130282479Y-98969589D02*
X130282479Y-92429589D01*
%TO.C,RV3*%
X121107351Y-84969716D02*
X121107351Y-80249716D01*
X121117351Y-76439716D02*
X121117351Y-73379716D01*
X122297351Y-84969716D02*
X121117351Y-84969716D01*
X125197351Y-84969716D02*
X124667351Y-84969716D01*
X127647351Y-84969716D02*
X126817351Y-84969716D01*
X130857351Y-73379716D02*
X121117351Y-73379716D01*
X130857351Y-76439716D02*
X130857351Y-73379716D01*
X130857351Y-84969716D02*
X129367351Y-84969716D01*
X130857351Y-84969716D02*
X130857351Y-80249716D01*
%TO.C,R7*%
X120742479Y-115649589D02*
X120742479Y-122189589D01*
X120742479Y-122189589D02*
X123482479Y-122189589D01*
X122112479Y-114879589D02*
X122112479Y-115649589D01*
X122112479Y-122959589D02*
X122112479Y-122189589D01*
X123482479Y-115649589D02*
X120742479Y-115649589D01*
X123482479Y-122189589D02*
X123482479Y-115649589D01*
%TO.C,C2*%
X111542479Y-91329589D02*
X111542479Y-91344589D01*
X111542479Y-91329589D02*
X116082479Y-91329589D01*
X111542479Y-93454589D02*
X111542479Y-93469589D01*
X111542479Y-93469589D02*
X116082479Y-93469589D01*
X116082479Y-91329589D02*
X116082479Y-91344589D01*
X116082479Y-93454589D02*
X116082479Y-93469589D01*
%TO.C,R8*%
X99442479Y-115529589D02*
X99442479Y-122069589D01*
X99442479Y-122069589D02*
X102182479Y-122069589D01*
X100812479Y-114759589D02*
X100812479Y-115529589D01*
X100812479Y-122839589D02*
X100812479Y-122069589D01*
X102182479Y-115529589D02*
X99442479Y-115529589D01*
X102182479Y-122069589D02*
X102182479Y-115529589D01*
%TO.C,D3*%
X126342479Y-130444589D02*
X126342479Y-127354589D01*
X120792479Y-128900051D02*
G75*
G02*
X126342479Y-127354759I2990000J462D01*
G01*
X126342479Y-130444419D02*
G75*
G02*
X120792479Y-128899127I-2560000J1544830D01*
G01*
X126282479Y-128899589D02*
G75*
G02*
X121282479Y-128899589I-2500000J0D01*
G01*
X121282479Y-128899589D02*
G75*
G02*
X126282479Y-128899589I2500000J0D01*
G01*
%TO.C,RV2*%
X106607351Y-84969716D02*
X106607351Y-80249716D01*
X106617351Y-76439716D02*
X106617351Y-73379716D01*
X107797351Y-84969716D02*
X106617351Y-84969716D01*
X110697351Y-84969716D02*
X110167351Y-84969716D01*
X113147351Y-84969716D02*
X112317351Y-84969716D01*
X116357351Y-73379716D02*
X106617351Y-73379716D01*
X116357351Y-76439716D02*
X116357351Y-73379716D01*
X116357351Y-84969716D02*
X114867351Y-84969716D01*
X116357351Y-84969716D02*
X116357351Y-80249716D01*
%TO.C,R3*%
X99842479Y-92469589D02*
X99842479Y-99009589D01*
X99842479Y-99009589D02*
X102582479Y-99009589D01*
X101212479Y-91699589D02*
X101212479Y-92469589D01*
X101212479Y-99779589D02*
X101212479Y-99009589D01*
X102582479Y-92469589D02*
X99842479Y-92469589D01*
X102582479Y-99009589D02*
X102582479Y-92469589D01*
%TO.C,D2*%
X121052479Y-106599589D02*
X122072479Y-106599589D01*
X122072479Y-105129589D02*
X122072479Y-108069589D01*
X122072479Y-108069589D02*
X127512479Y-108069589D01*
X122852479Y-105129589D02*
X122852479Y-108069589D01*
X122972479Y-105129589D02*
X122972479Y-108069589D01*
X123092479Y-105129589D02*
X123092479Y-108069589D01*
X127512479Y-105129589D02*
X122072479Y-105129589D01*
X127512479Y-108069589D02*
X127512479Y-105129589D01*
X128532479Y-106599589D02*
X127512479Y-106599589D01*
%TO.C,C3*%
X111442479Y-88544589D02*
X111442479Y-88529589D01*
X111442479Y-90669589D02*
X111442479Y-90654589D01*
X115982479Y-88529589D02*
X111442479Y-88529589D01*
X115982479Y-88544589D02*
X115982479Y-88529589D01*
X115982479Y-90669589D02*
X111442479Y-90669589D01*
X115982479Y-90669589D02*
X115982479Y-90654589D01*
%TO.C,U1*%
X112572479Y-94369589D02*
X112572479Y-104649589D01*
X112572479Y-104649589D02*
X117872479Y-104649589D01*
X114222479Y-94369589D02*
X112572479Y-94369589D01*
X117872479Y-94369589D02*
X116222479Y-94369589D01*
X117872479Y-104649589D02*
X117872479Y-94369589D01*
X116222479Y-94369589D02*
G75*
G02*
X114222479Y-94369589I-1000000J0D01*
G01*
%TO.C,J2*%
X93542479Y-100869589D02*
X93542479Y-103529589D01*
X96142479Y-100869589D02*
X93542479Y-100869589D01*
X96142479Y-100869589D02*
X96142479Y-103529589D01*
X96142479Y-103529589D02*
X93542479Y-103529589D01*
X97412479Y-100869589D02*
X98742479Y-100869589D01*
X98742479Y-100869589D02*
X98742479Y-102199589D01*
%TO.C,C6*%
X125142479Y-102424589D02*
X125142479Y-102409589D01*
X125142479Y-104549589D02*
X125142479Y-104534589D01*
X129682479Y-102409589D02*
X125142479Y-102409589D01*
X129682479Y-102424589D02*
X129682479Y-102409589D01*
X129682479Y-104549589D02*
X125142479Y-104549589D01*
X129682479Y-104549589D02*
X129682479Y-104534589D01*
%TO.C,C1*%
X103042479Y-102629589D02*
X103042479Y-102644589D01*
X103042479Y-102629589D02*
X107582479Y-102629589D01*
X103042479Y-104754589D02*
X103042479Y-104769589D01*
X103042479Y-104769589D02*
X107582479Y-104769589D01*
X107582479Y-102629589D02*
X107582479Y-102644589D01*
X107582479Y-104754589D02*
X107582479Y-104769589D01*
%TO.C,RV1*%
X92107351Y-84969716D02*
X92107351Y-80249716D01*
X92117351Y-76439716D02*
X92117351Y-73379716D01*
X93297351Y-84969716D02*
X92117351Y-84969716D01*
X96197351Y-84969716D02*
X95667351Y-84969716D01*
X98647351Y-84969716D02*
X97817351Y-84969716D01*
X101857351Y-73379716D02*
X92117351Y-73379716D01*
X101857351Y-76439716D02*
X101857351Y-73379716D01*
X101857351Y-84969716D02*
X100367351Y-84969716D01*
X101857351Y-84969716D02*
X101857351Y-80249716D01*
%TO.C,R5*%
X124142479Y-92409589D02*
X124142479Y-98949589D01*
X124142479Y-98949589D02*
X126882479Y-98949589D01*
X125512479Y-91639589D02*
X125512479Y-92409589D01*
X125512479Y-99719589D02*
X125512479Y-98949589D01*
X126882479Y-92409589D02*
X124142479Y-92409589D01*
X126882479Y-98949589D02*
X126882479Y-92409589D01*
%TO.C,C4*%
X102982479Y-105294589D02*
X102982479Y-105279589D01*
X102982479Y-107419589D02*
X102982479Y-107404589D01*
X107522479Y-105279589D02*
X102982479Y-105279589D01*
X107522479Y-105294589D02*
X107522479Y-105279589D01*
X107522479Y-107419589D02*
X102982479Y-107419589D01*
X107522479Y-107419589D02*
X107522479Y-107404589D01*
%TO.C,D1*%
X121072479Y-110099589D02*
X122092479Y-110099589D01*
X122092479Y-108629589D02*
X122092479Y-111569589D01*
X122092479Y-111569589D02*
X127532479Y-111569589D01*
X126512479Y-111569589D02*
X126512479Y-108629589D01*
X126632479Y-111569589D02*
X126632479Y-108629589D01*
X126752479Y-111569589D02*
X126752479Y-108629589D01*
X127532479Y-108629589D02*
X122092479Y-108629589D01*
X127532479Y-111569589D02*
X127532479Y-108629589D01*
X128552479Y-110099589D02*
X127532479Y-110099589D01*
%TO.C,R1*%
X106442479Y-92429589D02*
X106442479Y-98969589D01*
X106442479Y-98969589D02*
X109182479Y-98969589D01*
X107812479Y-91659589D02*
X107812479Y-92429589D01*
X107812479Y-99739589D02*
X107812479Y-98969589D01*
X109182479Y-92429589D02*
X106442479Y-92429589D01*
X109182479Y-98969589D02*
X109182479Y-92429589D01*
%TO.C,JP1*%
X104012479Y-85399589D02*
X106812479Y-85399589D01*
X104012479Y-87399589D02*
X104012479Y-85399589D01*
X106812479Y-85399589D02*
X106812479Y-87399589D01*
X106812479Y-87399589D02*
X104012479Y-87399589D01*
%TO.C,C5*%
X103042479Y-107984589D02*
X103042479Y-107969589D01*
X103042479Y-110109589D02*
X103042479Y-110094589D01*
X107582479Y-107969589D02*
X103042479Y-107969589D01*
X107582479Y-107984589D02*
X107582479Y-107969589D01*
X107582479Y-110109589D02*
X103042479Y-110109589D01*
X107582479Y-110109589D02*
X107582479Y-110094589D01*
%TO.C,R4*%
X120842479Y-92429589D02*
X120842479Y-98969589D01*
X120842479Y-98969589D02*
X123582479Y-98969589D01*
X122212479Y-91659589D02*
X122212479Y-92429589D01*
X122212479Y-99739589D02*
X122212479Y-98969589D01*
X123582479Y-92429589D02*
X120842479Y-92429589D01*
X123582479Y-98969589D02*
X123582479Y-92429589D01*
%TO.C,D4*%
X96722479Y-127254589D02*
X96722479Y-130344589D01*
X96722479Y-127254759D02*
G75*
G02*
X102272479Y-128800051I2560000J-1544830D01*
G01*
X102272479Y-128799127D02*
G75*
G02*
X96722479Y-130344419I-2990000J-462D01*
G01*
X101782479Y-128799589D02*
G75*
G02*
X96782479Y-128799589I-2500000J0D01*
G01*
X96782479Y-128799589D02*
G75*
G02*
X101782479Y-128799589I2500000J0D01*
G01*
%TO.C,R2*%
X103142479Y-92429589D02*
X103142479Y-98969589D01*
X103142479Y-98969589D02*
X105882479Y-98969589D01*
X104512479Y-91659589D02*
X104512479Y-92429589D01*
X104512479Y-99739589D02*
X104512479Y-98969589D01*
X105882479Y-92429589D02*
X103142479Y-92429589D01*
X105882479Y-98969589D02*
X105882479Y-92429589D01*
%TD*%
M02*
