M48
; DRILL file {KiCad 8.0.3} date 2024-10-06T14:45:07+0300
; FORMAT={-:-/ absolute / metric / decimal}
; #@! TF.CreationDate,2024-10-06T14:45:07+03:00
; #@! TF.GenerationSoftware,Kicad,Pcbnew,8.0.3
; #@! TF.FileFunction,Plated,1,2,PTH
FMAT,2
METRIC
; #@! TA.AperFunction,Plated,PTH,ComponentDrill
T1C0.750
; #@! TA.AperFunction,Plated,PTH,ComponentDrill
T2C0.800
; #@! TA.AperFunction,Plated,PTH,ComponentDrill
T3C0.900
; #@! TA.AperFunction,Plated,PTH,ComponentDrill
T4C1.000
; #@! TA.AperFunction,Plated,PTH,ComponentDrill
T5C1.100
; #@! TA.AperFunction,Plated,PTH,ComponentDrill
T6C1.500
; #@! TA.AperFunction,Plated,PTH,ComponentDrill
T7C1.600
%
G90
G05
T1
X51.791Y-106.054
X53.061Y-106.054
X54.331Y-106.054
T2
X37.931Y-90.874
X37.931Y-101.034
X38.631Y-108.854
X41.231Y-90.874
X41.231Y-101.034
X42.131Y-108.854
X44.531Y-90.874
X44.531Y-101.034
X46.131Y-105.654
X46.131Y-110.654
X47.831Y-90.854
X47.831Y-101.014
X48.731Y-105.654
X48.731Y-110.654
X51.191Y-90.864
X51.191Y-101.024
X57.271Y-103.934
X57.271Y-108.934
X61.691Y-101.194
X61.691Y-111.354
X61.721Y-90.344
X61.861Y-93.424
X61.861Y-98.424
X64.411Y-105.754
X64.441Y-108.464
X64.461Y-95.054
X64.461Y-97.594
X64.461Y-100.134
X64.461Y-102.674
X69.411Y-105.754
X69.441Y-108.464
X70.711Y-116.914
X71.881Y-90.344
X72.081Y-95.054
X72.081Y-97.594
X72.081Y-100.134
X72.081Y-102.674
X72.431Y-119.994
X72.431Y-130.154
X74.891Y-105.374
X74.891Y-110.374
X75.031Y-90.034
X75.031Y-100.194
X75.651Y-119.964
X75.651Y-130.124
X78.011Y-90.064
X78.011Y-95.064
X78.891Y-119.994
X78.891Y-130.154
X80.871Y-116.914
X82.031Y-119.974
X82.031Y-130.134
X100.812Y-113.72
X100.812Y-123.88
X101.212Y-90.66
X101.212Y-100.82
X102.752Y-106.35
X102.812Y-103.7
X102.812Y-109.04
X104.512Y-90.62
X104.512Y-100.78
X107.752Y-106.35
X107.812Y-90.62
X107.812Y-100.78
X107.812Y-103.7
X107.812Y-109.04
X111.212Y-89.6
X111.312Y-92.4
X111.412Y-95.7
X111.412Y-98.24
X111.412Y-100.78
X111.412Y-103.32
X116.212Y-89.6
X116.312Y-92.4
X119.032Y-95.7
X119.032Y-98.24
X119.032Y-100.78
X119.032Y-103.32
X122.112Y-113.84
X122.112Y-124.0
X122.212Y-90.62
X122.212Y-100.78
X124.912Y-103.48
X125.512Y-90.6
X125.512Y-100.76
X128.912Y-90.62
X128.912Y-100.78
X129.912Y-103.48
T3
X46.131Y-116.654
X48.671Y-116.654
X89.312Y-104.5
X89.312Y-106.5
X89.312Y-108.5
X98.012Y-128.8
X100.552Y-128.8
X122.512Y-128.9
X125.052Y-128.9
T4
X40.156Y-116.564
X40.156Y-119.104
X43.231Y-85.879
X45.731Y-85.879
X48.231Y-85.879
X57.731Y-85.879
X60.231Y-85.879
X62.731Y-85.879
X72.231Y-85.879
X74.731Y-85.879
X77.231Y-85.879
X94.487Y-85.85
X94.872Y-102.2
X96.987Y-85.85
X97.412Y-102.2
X99.487Y-85.85
X108.987Y-85.85
X111.487Y-85.85
X113.987Y-85.85
X123.487Y-85.85
X125.987Y-85.85
X128.487Y-85.85
T5
X54.651Y-90.894
X54.651Y-101.054
X58.171Y-90.924
X58.171Y-101.084
X119.712Y-106.6
X119.732Y-110.1
X129.872Y-106.6
X129.892Y-110.1
T6
X89.312Y-102.4
X89.312Y-110.6
T7
X39.031Y-135.954
X39.031Y-152.154
X45.331Y-135.954
X45.331Y-152.154
X51.631Y-135.954
X51.631Y-152.154
X68.831Y-136.054
X68.831Y-152.254
X75.131Y-136.054
X75.131Y-152.254
X81.431Y-136.054
X81.431Y-152.254
X90.287Y-135.925
X90.287Y-152.125
X96.587Y-135.925
X96.587Y-152.125
X102.887Y-135.925
X102.887Y-152.125
X120.087Y-136.025
X120.087Y-152.225
X126.387Y-136.025
X126.387Y-152.225
X132.687Y-136.025
X132.687Y-152.225
T4
G00X55.731Y-118.054
M15
G01X55.731Y-118.454
M16
G05
G00X55.731Y-123.354
M15
G01X55.731Y-123.754
M16
G05
G00X55.731Y-128.654
M15
G01X55.731Y-129.054
M16
G05
G00X60.431Y-118.054
M15
G01X60.431Y-118.454
M16
G05
G00X60.431Y-123.354
M15
G01X60.431Y-123.754
M16
G05
G00X60.431Y-128.654
M15
G01X60.431Y-129.054
M16
G05
G00X65.131Y-118.054
M15
G01X65.131Y-118.454
M16
G05
G00X65.131Y-123.354
M15
G01X65.131Y-123.754
M16
G05
G00X65.131Y-128.654
M15
G01X65.131Y-129.054
M16
G05
G00X91.212Y-92.3
M15
G01X91.212Y-94.3
M16
G05
G00X93.212Y-98.0
M15
G01X95.212Y-98.0
M16
G05
G00X97.212Y-92.3
M15
G01X97.212Y-94.3
M16
G05
G00X106.987Y-118.025
M15
G01X106.987Y-118.425
M16
G05
G00X106.987Y-123.325
M15
G01X106.987Y-123.725
M16
G05
G00X106.987Y-128.625
M15
G01X106.987Y-129.025
M16
G05
G00X111.687Y-118.025
M15
G01X111.687Y-118.425
M16
G05
G00X111.687Y-123.325
M15
G01X111.687Y-123.725
M16
G05
G00X111.687Y-128.625
M15
G01X111.687Y-129.025
M16
G05
G00X116.387Y-118.025
M15
G01X116.387Y-118.425
M16
G05
G00X116.387Y-123.325
M15
G01X116.387Y-123.725
M16
G05
G00X116.387Y-128.625
M15
G01X116.387Y-129.025
M16
G05
T6
G00X40.931Y-78.679
M15
G01X40.931Y-78.079
M16
G05
G00X50.531Y-78.679
M15
G01X50.531Y-78.079
M16
G05
G00X55.431Y-78.679
M15
G01X55.431Y-78.079
M16
G05
G00X65.031Y-78.679
M15
G01X65.031Y-78.079
M16
G05
G00X69.931Y-78.679
M15
G01X69.931Y-78.079
M16
G05
G00X79.531Y-78.679
M15
G01X79.531Y-78.079
M16
G05
G00X92.187Y-78.65
M15
G01X92.187Y-78.05
M16
G05
G00X101.787Y-78.65
M15
G01X101.787Y-78.05
M16
G05
G00X106.687Y-78.65
M15
G01X106.687Y-78.05
M16
G05
G00X116.287Y-78.65
M15
G01X116.287Y-78.05
M16
G05
G00X121.187Y-78.65
M15
G01X121.187Y-78.05
M16
G05
G00X130.787Y-78.65
M15
G01X130.787Y-78.05
M16
G05
M30
