%TF.GenerationSoftware,KiCad,Pcbnew,8.0.3*%
%TF.CreationDate,2024-10-06T14:44:46+03:00*%
%TF.ProjectId,DistorsionPedals,44697374-6f72-4736-996f-6e506564616c,rev?*%
%TF.SameCoordinates,Original*%
%TF.FileFunction,Profile,NP*%
%FSLAX46Y46*%
G04 Gerber Fmt 4.6, Leading zero omitted, Abs format (unit mm)*
G04 Created by KiCad (PCBNEW 8.0.3) date 2024-10-06 14:44:46*
%MOMM*%
%LPD*%
G01*
G04 APERTURE LIST*
%TA.AperFunction,Profile*%
%ADD10C,0.050000*%
%TD*%
%TA.AperFunction,Profile*%
%ADD11C,0.100000*%
%TD*%
G04 APERTURE END LIST*
D10*
X84750000Y-153100000D02*
X86950000Y-153100000D01*
X86987351Y-69624716D02*
X86950000Y-81200000D01*
X84750000Y-81200000D02*
X84731157Y-69654446D01*
X84750000Y-153100000D02*
X84731157Y-158654446D01*
X86950000Y-153100000D02*
X86987351Y-158624716D01*
X84750000Y-81200000D02*
X86950000Y-81200000D01*
D11*
X40731156Y-158654447D02*
G75*
G02*
X37731156Y-158654447I-1500000J0D01*
G01*
X37731156Y-158654447D02*
G75*
G02*
X40731156Y-158654447I1500000J0D01*
G01*
X82731158Y-69654445D02*
G75*
G02*
X79731158Y-69654445I-1500000J0D01*
G01*
X79731158Y-69654445D02*
G75*
G02*
X82731158Y-69654445I1500000J0D01*
G01*
X81231157Y-162154446D02*
X39231157Y-162154446D01*
D10*
X39231157Y-66154446D02*
X81231157Y-66154446D01*
D11*
X40731156Y-69654445D02*
G75*
G02*
X37731156Y-69654445I-1500000J0D01*
G01*
X37731156Y-69654445D02*
G75*
G02*
X40731156Y-69654445I1500000J0D01*
G01*
X39231157Y-162154446D02*
G75*
G02*
X35731157Y-158654446I-1J3499999D01*
G01*
X81231157Y-66154446D02*
G75*
G02*
X84731154Y-69654446I43J-3499954D01*
G01*
X35731157Y-158654446D02*
X35731157Y-69654446D01*
X35731157Y-69654446D02*
G75*
G02*
X39231157Y-66154446I3499999J1D01*
G01*
X82731158Y-158654447D02*
G75*
G02*
X79731158Y-158654447I-1500000J0D01*
G01*
X79731158Y-158654447D02*
G75*
G02*
X82731158Y-158654447I1500000J0D01*
G01*
X84731157Y-158654446D02*
G75*
G02*
X81231157Y-162154447I-3499997J-4D01*
G01*
X90487351Y-162124716D02*
G75*
G02*
X86987352Y-158624716I28J3500027D01*
G01*
X86987351Y-69624716D02*
G75*
G02*
X90487351Y-66124716I3499934J66D01*
G01*
X132487351Y-66124716D02*
G75*
G02*
X135987352Y-69624716I28J-3499973D01*
G01*
X132487351Y-162124716D02*
X90487351Y-162124716D01*
X91987350Y-158624717D02*
G75*
G02*
X88987350Y-158624717I-1500000J0D01*
G01*
X88987350Y-158624717D02*
G75*
G02*
X91987350Y-158624717I1500000J0D01*
G01*
X135987351Y-158624716D02*
G75*
G02*
X132487351Y-162124721I-3500072J67D01*
G01*
X133987352Y-69624715D02*
G75*
G02*
X130987352Y-69624715I-1500000J0D01*
G01*
X130987352Y-69624715D02*
G75*
G02*
X133987352Y-69624715I1500000J0D01*
G01*
D10*
X90487351Y-66124716D02*
X132487351Y-66124716D01*
D11*
X135987351Y-69624716D02*
X135987351Y-158624716D01*
X91987350Y-69624715D02*
G75*
G02*
X88987350Y-69624715I-1500000J0D01*
G01*
X88987350Y-69624715D02*
G75*
G02*
X91987350Y-69624715I1500000J0D01*
G01*
X133987352Y-158624717D02*
G75*
G02*
X130987352Y-158624717I-1500000J0D01*
G01*
X130987352Y-158624717D02*
G75*
G02*
X133987352Y-158624717I1500000J0D01*
G01*
M02*
