%TF.GenerationSoftware,KiCad,Pcbnew,8.0.6*%
%TF.CreationDate,2024-12-07T22:30:06+02:00*%
%TF.ProjectId,DistorsionPedals,44697374-6f72-4736-996f-6e506564616c,rev?*%
%TF.SameCoordinates,Original*%
%TF.FileFunction,Soldermask,Top*%
%TF.FilePolarity,Negative*%
%FSLAX46Y46*%
G04 Gerber Fmt 4.6, Leading zero omitted, Abs format (unit mm)*
G04 Created by KiCad (PCBNEW 8.0.6) date 2024-12-07 22:30:06*
%MOMM*%
%LPD*%
G01*
G04 APERTURE LIST*
G04 Aperture macros list*
%AMRoundRect*
0 Rectangle with rounded corners*
0 $1 Rounding radius*
0 $2 $3 $4 $5 $6 $7 $8 $9 X,Y pos of 4 corners*
0 Add a 4 corners polygon primitive as box body*
4,1,4,$2,$3,$4,$5,$6,$7,$8,$9,$2,$3,0*
0 Add four circle primitives for the rounded corners*
1,1,$1+$1,$2,$3*
1,1,$1+$1,$4,$5*
1,1,$1+$1,$6,$7*
1,1,$1+$1,$8,$9*
0 Add four rect primitives between the rounded corners*
20,1,$1+$1,$2,$3,$4,$5,0*
20,1,$1+$1,$4,$5,$6,$7,0*
20,1,$1+$1,$6,$7,$8,$9,0*
20,1,$1+$1,$8,$9,$2,$3,0*%
G04 Aperture macros list end*
%ADD10O,2.400000X3.000000*%
%ADD11R,1.800000X1.800000*%
%ADD12C,1.800000*%
%ADD13C,1.600000*%
%ADD14O,1.600000X1.600000*%
%ADD15C,2.400000*%
%ADD16R,1.500000X1.050000*%
%ADD17O,1.500000X1.050000*%
%ADD18R,2.200000X2.200000*%
%ADD19O,2.200000X2.200000*%
%ADD20R,1.700000X1.700000*%
%ADD21O,1.700000X1.700000*%
%ADD22R,1.600000X1.600000*%
%ADD23O,1.800000X3.200000*%
%ADD24O,3.500000X2.200000*%
%ADD25R,2.500000X1.500000*%
%ADD26O,2.500000X1.500000*%
%ADD27R,3.500000X3.500000*%
%ADD28RoundRect,0.750000X-0.750000X-1.000000X0.750000X-1.000000X0.750000X1.000000X-0.750000X1.000000X0*%
%ADD29RoundRect,0.875000X-0.875000X-0.875000X0.875000X-0.875000X0.875000X0.875000X-0.875000X0.875000X0*%
G04 APERTURE END LIST*
D10*
%TO.C,RV2*%
X177975049Y-62050304D03*
X187575049Y-62050304D03*
D11*
X180275049Y-69550304D03*
D12*
X182775049Y-69550304D03*
X185275049Y-69550304D03*
%TD*%
D13*
%TO.C,C7*%
X190535049Y-89395304D03*
X195535049Y-89395304D03*
%TD*%
%TO.C,R14*%
X160755049Y-84655304D03*
D14*
X160755049Y-74495304D03*
%TD*%
D15*
%TO.C,J2*%
X203975049Y-119725304D03*
X203975049Y-135925304D03*
X191375049Y-135925304D03*
X191375049Y-119725304D03*
X197675049Y-135925304D03*
X197675049Y-119725304D03*
%TD*%
D11*
%TO.C,D4*%
X167575049Y-101150304D03*
D12*
X170115049Y-101150304D03*
%TD*%
D13*
%TO.C,R8*%
X177315049Y-74505304D03*
D14*
X177315049Y-84665304D03*
%TD*%
D13*
%TO.C,R6*%
X173955049Y-74495304D03*
D14*
X173955049Y-84655304D03*
%TD*%
D10*
%TO.C,RV3*%
X194175049Y-62000304D03*
X203775049Y-62000304D03*
D11*
X196475049Y-69500304D03*
D12*
X198975049Y-69500304D03*
X201475049Y-69500304D03*
%TD*%
D13*
%TO.C,R5*%
X164055049Y-74515304D03*
D14*
X164055049Y-84675304D03*
%TD*%
D11*
%TO.C,D3*%
X167575049Y-107900304D03*
D12*
X170115049Y-107900304D03*
%TD*%
D13*
%TO.C,R4*%
X167375049Y-74520304D03*
D14*
X167375049Y-84680304D03*
%TD*%
D16*
%TO.C,Q1*%
X171545049Y-88695304D03*
D17*
X171545049Y-89965304D03*
X171545049Y-91235304D03*
%TD*%
D13*
%TO.C,R10*%
X194805049Y-110910304D03*
D14*
X194805049Y-100750304D03*
%TD*%
D13*
%TO.C,R3*%
X170655049Y-84675304D03*
D14*
X170655049Y-74515304D03*
%TD*%
D10*
%TO.C,RV1*%
X161775049Y-61975304D03*
X171375049Y-61975304D03*
D11*
X164075049Y-69475304D03*
D12*
X166575049Y-69475304D03*
X169075049Y-69475304D03*
%TD*%
D13*
%TO.C,R7*%
X187815049Y-94995304D03*
D14*
X187815049Y-84835304D03*
%TD*%
D13*
%TO.C,C3*%
X195555049Y-94515304D03*
X190555049Y-94515304D03*
%TD*%
D18*
%TO.C,D2*%
X184295049Y-74565304D03*
D19*
X184295049Y-84725304D03*
%TD*%
D15*
%TO.C,J1*%
X161575049Y-135825304D03*
X161575049Y-119625304D03*
X174175049Y-119625304D03*
X174175049Y-135825304D03*
X167875049Y-119625304D03*
X167875049Y-135825304D03*
%TD*%
D20*
%TO.C,J3*%
X162700049Y-102775304D03*
D21*
X162700049Y-100235304D03*
%TD*%
D13*
%TO.C,C1*%
X176905049Y-93115304D03*
X176905049Y-88115304D03*
%TD*%
%TO.C,C9*%
X204135049Y-73705304D03*
X204135049Y-78705304D03*
%TD*%
%TO.C,R1*%
X198025049Y-110880304D03*
D14*
X198025049Y-100720304D03*
%TD*%
D13*
%TO.C,R11*%
X201155049Y-73675304D03*
D14*
X201155049Y-83835304D03*
%TD*%
D13*
%TO.C,R13*%
X204405049Y-100730304D03*
D14*
X204405049Y-110890304D03*
%TD*%
D13*
%TO.C,C4*%
X179955049Y-88115304D03*
X179955049Y-93115304D03*
%TD*%
%TO.C,C6*%
X187985049Y-82065304D03*
X187985049Y-77065304D03*
%TD*%
%TO.C,R12*%
X203245049Y-97670304D03*
D14*
X193085049Y-97670304D03*
%TD*%
D22*
%TO.C,C2*%
X166175049Y-90350304D03*
D13*
X162675049Y-90350304D03*
%TD*%
D23*
%TO.C,SW1*%
X178275049Y-101925304D03*
X182975049Y-101925304D03*
X187675049Y-101925304D03*
X178275049Y-107225304D03*
X182975049Y-107225304D03*
X187675049Y-107225304D03*
X178275049Y-112525304D03*
X182975049Y-112525304D03*
X187675049Y-112525304D03*
%TD*%
D18*
%TO.C,D1*%
X180775049Y-84695304D03*
D19*
X180775049Y-74535304D03*
%TD*%
D13*
%TO.C,C5*%
X182955049Y-88115304D03*
X182955049Y-93115304D03*
%TD*%
%TO.C,C8*%
X190555049Y-91965304D03*
X195555049Y-91965304D03*
%TD*%
%TO.C,R9*%
X198005049Y-73985304D03*
D14*
X187845049Y-73985304D03*
%TD*%
D13*
%TO.C,R2*%
X201265049Y-100750304D03*
D14*
X201265049Y-110910304D03*
%TD*%
D22*
%TO.C,U1*%
X190585049Y-78695304D03*
D14*
X190585049Y-81235304D03*
X190585049Y-83775304D03*
X190585049Y-86315304D03*
X198205049Y-86315304D03*
X198205049Y-83775304D03*
X198205049Y-81235304D03*
X198205049Y-78695304D03*
%TD*%
D24*
%TO.C,SW1*%
X109600050Y-86100050D03*
X109600050Y-94300050D03*
D25*
X109600050Y-88200050D03*
D26*
X109600050Y-90200050D03*
X109600050Y-92200050D03*
%TD*%
D13*
%TO.C,R6*%
X149200050Y-74320050D03*
D14*
X149200050Y-84480050D03*
%TD*%
D15*
%TO.C,J3*%
X110574922Y-135825177D03*
X110574922Y-119625177D03*
X123174922Y-119625177D03*
X123174922Y-135825177D03*
X116874922Y-119625177D03*
X116874922Y-135825177D03*
%TD*%
D10*
%TO.C,RV2*%
X126974922Y-62050177D03*
X136574922Y-62050177D03*
D11*
X129274922Y-69550177D03*
D12*
X131774922Y-69550177D03*
X134274922Y-69550177D03*
%TD*%
D11*
%TO.C,D3*%
X142774950Y-112525150D03*
D12*
X145314950Y-112525150D03*
%TD*%
D13*
%TO.C,R5*%
X142400050Y-97540050D03*
D14*
X142400050Y-107700050D03*
%TD*%
D10*
%TO.C,RV3*%
X143200050Y-62025050D03*
X152800050Y-62025050D03*
D11*
X145500050Y-69525050D03*
D12*
X148000050Y-69525050D03*
X150500050Y-69525050D03*
%TD*%
D23*
%TO.C,SW2*%
X127275050Y-101950050D03*
X131975050Y-101950050D03*
X136675050Y-101950050D03*
X127275050Y-107250050D03*
X131975050Y-107250050D03*
X136675050Y-107250050D03*
X127275050Y-112550050D03*
X131975050Y-112550050D03*
X136675050Y-112550050D03*
%TD*%
D27*
%TO.C,J1*%
X117500050Y-77000050D03*
D28*
X111500050Y-77000050D03*
D29*
X114500050Y-81700050D03*
%TD*%
D13*
%TO.C,R7*%
X121100050Y-97420050D03*
D14*
X121100050Y-107580050D03*
%TD*%
D15*
%TO.C,J4*%
X152974922Y-119725177D03*
X152974922Y-135925177D03*
X140374922Y-135925177D03*
X140374922Y-119725177D03*
X146674922Y-135925177D03*
X146674922Y-119725177D03*
%TD*%
D18*
%TO.C,D2*%
X140000050Y-90300050D03*
D19*
X150160050Y-90300050D03*
%TD*%
D13*
%TO.C,C3*%
X136674950Y-76075150D03*
X131674950Y-76075150D03*
%TD*%
%TO.C,C4*%
X128040050Y-90050050D03*
X123040050Y-90050050D03*
%TD*%
D18*
%TO.C,D1*%
X150180050Y-93800050D03*
D19*
X140020050Y-93800050D03*
%TD*%
D10*
%TO.C,RV1*%
X110800050Y-62050050D03*
X120400050Y-62050050D03*
D11*
X113100050Y-69550050D03*
D12*
X115600050Y-69550050D03*
X118100050Y-69550050D03*
%TD*%
D13*
%TO.C,C1*%
X123100050Y-87400050D03*
X128100050Y-87400050D03*
%TD*%
%TO.C,R1*%
X128100050Y-84480050D03*
D14*
X128100050Y-74320050D03*
%TD*%
D13*
%TO.C,C5*%
X128100050Y-92740050D03*
X123100050Y-92740050D03*
%TD*%
%TO.C,R4*%
X142500050Y-84480050D03*
D14*
X142500050Y-74320050D03*
%TD*%
D11*
%TO.C,D4*%
X120749950Y-112475150D03*
D12*
X118209950Y-112475150D03*
%TD*%
D13*
%TO.C,R3*%
X121500050Y-84520050D03*
D14*
X121500050Y-74360050D03*
%TD*%
D22*
%TO.C,U1*%
X131700050Y-79400050D03*
D14*
X131700050Y-81940050D03*
X131700050Y-84480050D03*
X131700050Y-87020050D03*
X139320050Y-87020050D03*
X139320050Y-84480050D03*
X139320050Y-81940050D03*
X139320050Y-79400050D03*
%TD*%
D13*
%TO.C,R2*%
X124800050Y-74320050D03*
D14*
X124800050Y-84480050D03*
%TD*%
D20*
%TO.C,JP1*%
X124724950Y-52425150D03*
D21*
X122184950Y-52425150D03*
%TD*%
D13*
%TO.C,C6*%
X150200050Y-87180050D03*
X145200050Y-87180050D03*
%TD*%
D20*
%TO.C,J2*%
X117700050Y-85900050D03*
D21*
X115160050Y-85900050D03*
%TD*%
M02*
