%TF.GenerationSoftware,KiCad,Pcbnew,8.0.6*%
%TF.CreationDate,2024-12-07T22:30:06+02:00*%
%TF.ProjectId,DistorsionPedals,44697374-6f72-4736-996f-6e506564616c,rev?*%
%TF.SameCoordinates,Original*%
%TF.FileFunction,Copper,L1,Top*%
%TF.FilePolarity,Positive*%
%FSLAX46Y46*%
G04 Gerber Fmt 4.6, Leading zero omitted, Abs format (unit mm)*
G04 Created by KiCad (PCBNEW 8.0.6) date 2024-12-07 22:30:06*
%MOMM*%
%LPD*%
G01*
G04 APERTURE LIST*
G04 Aperture macros list*
%AMRoundRect*
0 Rectangle with rounded corners*
0 $1 Rounding radius*
0 $2 $3 $4 $5 $6 $7 $8 $9 X,Y pos of 4 corners*
0 Add a 4 corners polygon primitive as box body*
4,1,4,$2,$3,$4,$5,$6,$7,$8,$9,$2,$3,0*
0 Add four circle primitives for the rounded corners*
1,1,$1+$1,$2,$3*
1,1,$1+$1,$4,$5*
1,1,$1+$1,$6,$7*
1,1,$1+$1,$8,$9*
0 Add four rect primitives between the rounded corners*
20,1,$1+$1,$2,$3,$4,$5,0*
20,1,$1+$1,$4,$5,$6,$7,0*
20,1,$1+$1,$6,$7,$8,$9,0*
20,1,$1+$1,$8,$9,$2,$3,0*%
G04 Aperture macros list end*
%TA.AperFunction,ComponentPad*%
%ADD10O,2.400000X3.000000*%
%TD*%
%TA.AperFunction,ComponentPad*%
%ADD11R,1.800000X1.800000*%
%TD*%
%TA.AperFunction,ComponentPad*%
%ADD12C,1.800000*%
%TD*%
%TA.AperFunction,ComponentPad*%
%ADD13C,1.600000*%
%TD*%
%TA.AperFunction,ComponentPad*%
%ADD14O,1.600000X1.600000*%
%TD*%
%TA.AperFunction,ComponentPad*%
%ADD15C,2.400000*%
%TD*%
%TA.AperFunction,ComponentPad*%
%ADD16R,1.500000X1.050000*%
%TD*%
%TA.AperFunction,ComponentPad*%
%ADD17O,1.500000X1.050000*%
%TD*%
%TA.AperFunction,ComponentPad*%
%ADD18R,2.200000X2.200000*%
%TD*%
%TA.AperFunction,ComponentPad*%
%ADD19O,2.200000X2.200000*%
%TD*%
%TA.AperFunction,ComponentPad*%
%ADD20R,1.700000X1.700000*%
%TD*%
%TA.AperFunction,ComponentPad*%
%ADD21O,1.700000X1.700000*%
%TD*%
%TA.AperFunction,ComponentPad*%
%ADD22R,1.600000X1.600000*%
%TD*%
%TA.AperFunction,ComponentPad*%
%ADD23O,1.800000X3.200000*%
%TD*%
%TA.AperFunction,ComponentPad*%
%ADD24O,3.500000X2.200000*%
%TD*%
%TA.AperFunction,ComponentPad*%
%ADD25R,2.500000X1.500000*%
%TD*%
%TA.AperFunction,ComponentPad*%
%ADD26O,2.500000X1.500000*%
%TD*%
%TA.AperFunction,ComponentPad*%
%ADD27R,3.500000X3.500000*%
%TD*%
%TA.AperFunction,ComponentPad*%
%ADD28RoundRect,0.750000X-0.750000X-1.000000X0.750000X-1.000000X0.750000X1.000000X-0.750000X1.000000X0*%
%TD*%
%TA.AperFunction,ComponentPad*%
%ADD29RoundRect,0.875000X-0.875000X-0.875000X0.875000X-0.875000X0.875000X0.875000X-0.875000X0.875000X0*%
%TD*%
%TA.AperFunction,ViaPad*%
%ADD30C,0.600000*%
%TD*%
%TA.AperFunction,Conductor*%
%ADD31C,1.000000*%
%TD*%
G04 APERTURE END LIST*
D10*
%TO.P,RV2,*%
%TO.N,*%
X177975049Y-62050304D03*
X187575049Y-62050304D03*
D11*
%TO.P,RV2,1,1*%
%TO.N,Net-(U1B-+)*%
X180275049Y-69550304D03*
D12*
%TO.P,RV2,2,2*%
%TO.N,Net-(C8-Pad2)*%
X182775049Y-69550304D03*
%TO.P,RV2,3,3*%
%TO.N,Net-(U1B--)*%
X185275049Y-69550304D03*
%TD*%
D13*
%TO.P,C7,1*%
%TO.N,GND*%
X190535049Y-89395304D03*
%TO.P,C7,2*%
%TO.N,Net-(U1B-+)*%
X195535049Y-89395304D03*
%TD*%
%TO.P,R14,1*%
%TO.N,N/C*%
X160755049Y-84655304D03*
D14*
%TO.P,R14,2*%
%TO.N,Net-(D4-A)*%
X160755049Y-74495304D03*
%TD*%
D15*
%TO.P,J2,CGND*%
%TO.N,+4.5V*%
X203975049Y-119725304D03*
%TO.P,J2,GND*%
X203975049Y-135925304D03*
%TO.P,J2,L*%
%TO.N,N/C*%
X191375049Y-135925304D03*
%TO.P,J2,LGND*%
%TO.N,+4.5V*%
X191375049Y-119725304D03*
%TO.P,J2,R*%
X197675049Y-135925304D03*
%TO.P,J2,RGND*%
X197675049Y-119725304D03*
%TD*%
D11*
%TO.P,D4,1,K*%
%TO.N,GND*%
X167575049Y-101150304D03*
D12*
%TO.P,D4,2,A*%
%TO.N,Net-(D4-A)*%
X170115049Y-101150304D03*
%TD*%
D13*
%TO.P,R8,1*%
%TO.N,N/C*%
X177315049Y-74505304D03*
D14*
%TO.P,R8,2*%
X177315049Y-84665304D03*
%TD*%
D13*
%TO.P,R6,1*%
%TO.N,Net-(D1-K)*%
X173955049Y-74495304D03*
D14*
%TO.P,R6,2*%
%TO.N,Net-(C4-Pad1)*%
X173955049Y-84655304D03*
%TD*%
D10*
%TO.P,RV3,*%
%TO.N,*%
X194175049Y-62000304D03*
X203775049Y-62000304D03*
D11*
%TO.P,RV3,1,1*%
%TO.N,N/C*%
X196475049Y-69500304D03*
D12*
%TO.P,RV3,2,2*%
X198975049Y-69500304D03*
%TO.P,RV3,3,3*%
%TO.N,GND*%
X201475049Y-69500304D03*
%TD*%
D13*
%TO.P,R5,1*%
%TO.N,GND*%
X164055049Y-74515304D03*
D14*
%TO.P,R5,2*%
%TO.N,N/C*%
X164055049Y-84675304D03*
%TD*%
D11*
%TO.P,D3,1,K*%
%TO.N,GND*%
X167575049Y-107900304D03*
D12*
%TO.P,D3,2,A*%
%TO.N,N/C*%
X170115049Y-107900304D03*
%TD*%
D13*
%TO.P,R4,1*%
%TO.N,N/C*%
X167375049Y-74520304D03*
D14*
%TO.P,R4,2*%
%TO.N,+4.5V*%
X167375049Y-84680304D03*
%TD*%
D16*
%TO.P,Q1,1,E*%
%TO.N,N/C*%
X171545049Y-88695304D03*
D17*
%TO.P,Q1,2,B*%
X171545049Y-89965304D03*
%TO.P,Q1,3,C*%
%TO.N,+9V*%
X171545049Y-91235304D03*
%TD*%
D13*
%TO.P,R10,1*%
%TO.N,+4.5V*%
X194805049Y-110910304D03*
D14*
%TO.P,R10,2*%
%TO.N,Net-(U1B-+)*%
X194805049Y-100750304D03*
%TD*%
D13*
%TO.P,R3,1*%
%TO.N,N/C*%
X170655049Y-84675304D03*
D14*
%TO.P,R3,2*%
%TO.N,Net-(C1-Pad2)*%
X170655049Y-74515304D03*
%TD*%
D10*
%TO.P,RV1,*%
%TO.N,*%
X161775049Y-61975304D03*
X171375049Y-61975304D03*
D11*
%TO.P,RV1,1,1*%
%TO.N,N/C*%
X164075049Y-69475304D03*
D12*
%TO.P,RV1,2,2*%
%TO.N,Net-(D1-K)*%
X166575049Y-69475304D03*
%TO.P,RV1,3,3*%
X169075049Y-69475304D03*
%TD*%
D13*
%TO.P,R7,1*%
%TO.N,+4.5V*%
X187815049Y-94995304D03*
D14*
%TO.P,R7,2*%
%TO.N,Net-(U1A-+)*%
X187815049Y-84835304D03*
%TD*%
D13*
%TO.P,C3,1*%
%TO.N,GND*%
X195555049Y-94515304D03*
%TO.P,C3,2*%
%TO.N,+4.5V*%
X190555049Y-94515304D03*
%TD*%
D18*
%TO.P,D2,1,K*%
%TO.N,N/C*%
X184295049Y-74565304D03*
D19*
%TO.P,D2,2,A*%
%TO.N,Net-(D1-K)*%
X184295049Y-84725304D03*
%TD*%
D15*
%TO.P,J1,CGND*%
%TO.N,+4.5V*%
X161575049Y-135825304D03*
%TO.P,J1,GND*%
X161575049Y-119625304D03*
%TO.P,J1,L*%
%TO.N,N/C*%
X174175049Y-119625304D03*
%TO.P,J1,LGND*%
%TO.N,+4.5V*%
X174175049Y-135825304D03*
%TO.P,J1,R*%
X167875049Y-119625304D03*
%TO.P,J1,RGND*%
X167875049Y-135825304D03*
%TD*%
D20*
%TO.P,J3,1,Pin_1*%
%TO.N,N/C*%
X162700049Y-102775304D03*
D21*
%TO.P,J3,2,Pin_2*%
%TO.N,GND*%
X162700049Y-100235304D03*
%TD*%
D13*
%TO.P,C1,1*%
%TO.N,N/C*%
X176905049Y-93115304D03*
%TO.P,C1,2*%
%TO.N,Net-(C1-Pad2)*%
X176905049Y-88115304D03*
%TD*%
%TO.P,C9,1*%
%TO.N,N/C*%
X204135049Y-73705304D03*
%TO.P,C9,2*%
X204135049Y-78705304D03*
%TD*%
%TO.P,R1,1*%
%TO.N,+4.5V*%
X198025049Y-110880304D03*
D14*
%TO.P,R1,2*%
%TO.N,+9V*%
X198025049Y-100720304D03*
%TD*%
D13*
%TO.P,R11,1*%
%TO.N,N/C*%
X201155049Y-73675304D03*
D14*
%TO.P,R11,2*%
%TO.N,Net-(U1B--)*%
X201155049Y-83835304D03*
%TD*%
D13*
%TO.P,R13,1*%
%TO.N,+9V*%
X204405049Y-100730304D03*
D14*
%TO.P,R13,2*%
%TO.N,N/C*%
X204405049Y-110890304D03*
%TD*%
D13*
%TO.P,C4,1*%
%TO.N,Net-(C4-Pad1)*%
X179955049Y-88115304D03*
%TO.P,C4,2*%
%TO.N,GND*%
X179955049Y-93115304D03*
%TD*%
%TO.P,C6,1*%
%TO.N,Net-(D1-K)*%
X187985049Y-82065304D03*
%TO.P,C6,2*%
%TO.N,N/C*%
X187985049Y-77065304D03*
%TD*%
%TO.P,R12,1*%
%TO.N,GND*%
X203245049Y-97670304D03*
D14*
%TO.P,R12,2*%
%TO.N,N/C*%
X193085049Y-97670304D03*
%TD*%
D22*
%TO.P,C2,1*%
%TO.N,+4.5V*%
X166175049Y-90350304D03*
D13*
%TO.P,C2,2*%
%TO.N,GND*%
X162675049Y-90350304D03*
%TD*%
D23*
%TO.P,SW1,1,C*%
%TO.N,N/C*%
X178275049Y-101925304D03*
%TO.P,SW1,2,B*%
X182975049Y-101925304D03*
%TO.P,SW1,3,A*%
X187675049Y-101925304D03*
%TO.P,SW1,4,C*%
X178275049Y-107225304D03*
%TO.P,SW1,5,B*%
X182975049Y-107225304D03*
%TO.P,SW1,6,A*%
X187675049Y-107225304D03*
%TO.P,SW1,7,C*%
%TO.N,+9V*%
X178275049Y-112525304D03*
%TO.P,SW1,8,B*%
%TO.N,N/C*%
X182975049Y-112525304D03*
%TO.P,SW1,9,A*%
X187675049Y-112525304D03*
%TD*%
D18*
%TO.P,D1,1,K*%
%TO.N,Net-(D1-K)*%
X180775049Y-84695304D03*
D19*
%TO.P,D1,2,A*%
%TO.N,N/C*%
X180775049Y-74535304D03*
%TD*%
D13*
%TO.P,C5,1*%
%TO.N,Net-(U1A-+)*%
X182955049Y-88115304D03*
%TO.P,C5,2*%
%TO.N,N/C*%
X182955049Y-93115304D03*
%TD*%
%TO.P,C8,1*%
%TO.N,N/C*%
X190555049Y-91965304D03*
%TO.P,C8,2*%
%TO.N,Net-(C8-Pad2)*%
X195555049Y-91965304D03*
%TD*%
%TO.P,R9,1*%
%TO.N,Net-(U1B-+)*%
X198005049Y-73985304D03*
D14*
%TO.P,R9,2*%
%TO.N,N/C*%
X187845049Y-73985304D03*
%TD*%
D13*
%TO.P,R2,1*%
%TO.N,GND*%
X201265049Y-100750304D03*
D14*
%TO.P,R2,2*%
%TO.N,+4.5V*%
X201265049Y-110910304D03*
%TD*%
D22*
%TO.P,U1,1*%
%TO.N,N/C*%
X190585049Y-78695304D03*
D14*
%TO.P,U1,2,-*%
%TO.N,Net-(D1-K)*%
X190585049Y-81235304D03*
%TO.P,U1,3,+*%
%TO.N,Net-(U1A-+)*%
X190585049Y-83775304D03*
%TO.P,U1,4,V-*%
%TO.N,GND*%
X190585049Y-86315304D03*
%TO.P,U1,5,+*%
%TO.N,Net-(U1B-+)*%
X198205049Y-86315304D03*
%TO.P,U1,6,-*%
%TO.N,Net-(U1B--)*%
X198205049Y-83775304D03*
%TO.P,U1,7*%
%TO.N,N/C*%
X198205049Y-81235304D03*
%TO.P,U1,8,V+*%
%TO.N,+9V*%
X198205049Y-78695304D03*
%TD*%
D24*
%TO.P,SW1,*%
%TO.N,GND*%
X109600050Y-86100050D03*
X109600050Y-94300050D03*
D25*
%TO.P,SW1,1,C*%
%TO.N,N/C*%
X109600050Y-88200050D03*
D26*
%TO.P,SW1,2,B*%
X109600050Y-90200050D03*
%TO.P,SW1,3,A*%
X109600050Y-92200050D03*
%TD*%
D13*
%TO.P,R6,1*%
%TO.N,N/C*%
X149200050Y-74320050D03*
D14*
%TO.P,R6,2*%
%TO.N,Net-(D1-K)*%
X149200050Y-84480050D03*
%TD*%
D15*
%TO.P,J3,CGND*%
%TO.N,N/C*%
X110574922Y-135825177D03*
%TO.P,J3,GND*%
X110574922Y-119625177D03*
%TO.P,J3,L*%
X123174922Y-119625177D03*
%TO.P,J3,LGND*%
X123174922Y-135825177D03*
%TO.P,J3,R*%
X116874922Y-119625177D03*
%TO.P,J3,RGND*%
X116874922Y-135825177D03*
%TD*%
D10*
%TO.P,RV2,*%
%TO.N,*%
X126974922Y-62050177D03*
X136574922Y-62050177D03*
D11*
%TO.P,RV2,1,1*%
%TO.N,N/C*%
X129274922Y-69550177D03*
D12*
%TO.P,RV2,2,2*%
X131774922Y-69550177D03*
%TO.P,RV2,3,3*%
X134274922Y-69550177D03*
%TD*%
D11*
%TO.P,D3,1,K*%
%TO.N,N/C*%
X142774950Y-112525150D03*
D12*
%TO.P,D3,2,A*%
X145314950Y-112525150D03*
%TD*%
D13*
%TO.P,R5,1*%
%TO.N,GND*%
X142400050Y-97540050D03*
D14*
%TO.P,R5,2*%
%TO.N,N/C*%
X142400050Y-107700050D03*
%TD*%
D10*
%TO.P,RV3,*%
%TO.N,*%
X143200050Y-62025050D03*
X152800050Y-62025050D03*
D11*
%TO.P,RV3,1,1*%
%TO.N,GND*%
X145500050Y-69525050D03*
D12*
%TO.P,RV3,2,2*%
%TO.N,N/C*%
X148000050Y-69525050D03*
%TO.P,RV3,3,3*%
%TO.N,Net-(D1-K)*%
X150500050Y-69525050D03*
%TD*%
D23*
%TO.P,SW2,1,C*%
%TO.N,N/C*%
X127275050Y-101950050D03*
%TO.P,SW2,2,B*%
X131975050Y-101950050D03*
%TO.P,SW2,3,A*%
X136675050Y-101950050D03*
%TO.P,SW2,4,C*%
X127275050Y-107250050D03*
%TO.P,SW2,5,B*%
X131975050Y-107250050D03*
%TO.P,SW2,6,A*%
X136675050Y-107250050D03*
%TO.P,SW2,7,C*%
X127275050Y-112550050D03*
%TO.P,SW2,8,B*%
X131975050Y-112550050D03*
%TO.P,SW2,9,A*%
X136675050Y-112550050D03*
%TD*%
D27*
%TO.P,J1,1*%
%TO.N,N/C*%
X117500050Y-77000050D03*
D28*
%TO.P,J1,2*%
%TO.N,GND*%
X111500050Y-77000050D03*
D29*
%TO.P,J1,3*%
X114500050Y-81700050D03*
%TD*%
D13*
%TO.P,R7,1*%
%TO.N,GND*%
X121100050Y-97420050D03*
D14*
%TO.P,R7,2*%
%TO.N,Net-(D4-K)*%
X121100050Y-107580050D03*
%TD*%
D15*
%TO.P,J4,CGND*%
%TO.N,N/C*%
X152974922Y-119725177D03*
%TO.P,J4,GND*%
X152974922Y-135925177D03*
%TO.P,J4,L*%
X140374922Y-135925177D03*
%TO.P,J4,LGND*%
X140374922Y-119725177D03*
%TO.P,J4,R*%
X146674922Y-135925177D03*
%TO.P,J4,RGND*%
X146674922Y-119725177D03*
%TD*%
D18*
%TO.P,D2,1,K*%
%TO.N,N/C*%
X140000050Y-90300050D03*
D19*
%TO.P,D2,2,A*%
%TO.N,Net-(D1-K)*%
X150160050Y-90300050D03*
%TD*%
D13*
%TO.P,C3,1*%
%TO.N,Net-(U1B-+)*%
X136674950Y-76075150D03*
%TO.P,C3,2*%
%TO.N,Net-(U1A--)*%
X131674950Y-76075150D03*
%TD*%
%TO.P,C4,1*%
%TO.N,GND*%
X128040050Y-90050050D03*
%TO.P,C4,2*%
%TO.N,N/C*%
X123040050Y-90050050D03*
%TD*%
D18*
%TO.P,D1,1,K*%
%TO.N,Net-(D1-K)*%
X150180050Y-93800050D03*
D19*
%TO.P,D1,2,A*%
%TO.N,N/C*%
X140020050Y-93800050D03*
%TD*%
D10*
%TO.P,RV1,*%
%TO.N,*%
X110800050Y-62050050D03*
X120400050Y-62050050D03*
D11*
%TO.P,RV1,1,1*%
%TO.N,N/C*%
X113100050Y-69550050D03*
D12*
%TO.P,RV1,2,2*%
X115600050Y-69550050D03*
%TO.P,RV1,3,3*%
%TO.N,Net-(U1B--)*%
X118100050Y-69550050D03*
%TD*%
D13*
%TO.P,C1,1*%
%TO.N,N/C*%
X123100050Y-87400050D03*
%TO.P,C1,2*%
%TO.N,Net-(U1A-+)*%
X128100050Y-87400050D03*
%TD*%
%TO.P,R1,1*%
%TO.N,N/C*%
X128100050Y-84480050D03*
D14*
%TO.P,R1,2*%
%TO.N,Net-(U1A-+)*%
X128100050Y-74320050D03*
%TD*%
D13*
%TO.P,C5,1*%
%TO.N,GND*%
X128100050Y-92740050D03*
%TO.P,C5,2*%
%TO.N,N/C*%
X123100050Y-92740050D03*
%TD*%
%TO.P,R4,1*%
%TO.N,Net-(U1B--)*%
X142500050Y-84480050D03*
D14*
%TO.P,R4,2*%
%TO.N,N/C*%
X142500050Y-74320050D03*
%TD*%
D11*
%TO.P,D4,1,K*%
%TO.N,Net-(D4-K)*%
X120749950Y-112475150D03*
D12*
%TO.P,D4,2,A*%
%TO.N,N/C*%
X118209950Y-112475150D03*
%TD*%
D13*
%TO.P,R3,1*%
%TO.N,GND*%
X121500050Y-84520050D03*
D14*
%TO.P,R3,2*%
%TO.N,N/C*%
X121500050Y-74360050D03*
%TD*%
D22*
%TO.P,U1,1*%
%TO.N,Net-(U1A--)*%
X131700050Y-79400050D03*
D14*
%TO.P,U1,2,-*%
X131700050Y-81940050D03*
%TO.P,U1,3,+*%
%TO.N,Net-(U1A-+)*%
X131700050Y-84480050D03*
%TO.P,U1,4,V-*%
%TO.N,GND*%
X131700050Y-87020050D03*
%TO.P,U1,5,+*%
%TO.N,Net-(U1B-+)*%
X139320050Y-87020050D03*
%TO.P,U1,6,-*%
%TO.N,Net-(U1B--)*%
X139320050Y-84480050D03*
%TO.P,U1,7*%
%TO.N,N/C*%
X139320050Y-81940050D03*
%TO.P,U1,8,V+*%
X139320050Y-79400050D03*
%TD*%
D13*
%TO.P,R2,1*%
%TO.N,N/C*%
X124800050Y-74320050D03*
D14*
%TO.P,R2,2*%
X124800050Y-84480050D03*
%TD*%
D20*
%TO.P,JP1,1,A*%
%TO.N,N/C*%
X124724950Y-52425150D03*
D21*
%TO.P,JP1,2,B*%
%TO.N,GND*%
X122184950Y-52425150D03*
%TD*%
D13*
%TO.P,C6,1*%
%TO.N,Net-(D1-K)*%
X150200050Y-87180050D03*
%TO.P,C6,2*%
%TO.N,N/C*%
X145200050Y-87180050D03*
%TD*%
D20*
%TO.P,J2,1,Pin_1*%
%TO.N,N/C*%
X117700050Y-85900050D03*
D21*
%TO.P,J2,2,Pin_2*%
%TO.N,GND*%
X115160050Y-85900050D03*
%TD*%
D30*
%TO.N,*%
X188795049Y-115845304D03*
%TD*%
D31*
%TO.N,*%
X162680049Y-107815304D02*
X162680049Y-102765304D01*
X182955049Y-117890304D02*
X178755049Y-122090304D01*
X172455049Y-122090304D02*
X170555049Y-120190304D01*
X188655049Y-98915304D02*
X193755049Y-104015304D01*
X181855049Y-98915304D02*
X188655049Y-98915304D01*
X200205049Y-67215304D02*
X198975049Y-68445304D01*
X203855049Y-104015304D02*
X205955049Y-101915304D01*
X187655049Y-101915304D02*
X187655049Y-107215304D01*
X180555049Y-106215304D02*
X180555049Y-116840304D01*
X180655049Y-100115304D02*
X181855049Y-98915304D01*
X170555049Y-71690304D02*
X166280049Y-71690304D01*
X180555049Y-116840304D02*
X177780049Y-119615304D01*
%TO.N,Net-(U1B--)*%
X198245049Y-83825304D02*
X198185049Y-83765304D01*
%TO.N,*%
X172305049Y-79665304D02*
X172305049Y-73440304D01*
X177780049Y-119615304D02*
X174155049Y-119615304D01*
%TO.N,Net-(U1B--)*%
X197565049Y-83775304D02*
X198205049Y-83775304D01*
X185275049Y-69550304D02*
X189190049Y-69550304D01*
%TO.N,*%
X206005049Y-136915304D02*
X206005049Y-109965304D01*
X177295049Y-84655304D02*
X172305049Y-79665304D01*
X167355049Y-74510304D02*
X167355049Y-81385304D01*
X193755049Y-104015304D02*
X203855049Y-104015304D01*
X185405049Y-129965304D02*
X191355049Y-135915304D01*
X182955049Y-107215304D02*
X185405049Y-109665304D01*
X170555049Y-115690304D02*
X162680049Y-107815304D01*
X159655049Y-85755304D02*
X159655049Y-137015304D01*
X170555049Y-120190304D02*
X170555049Y-115690304D01*
X185405049Y-109665304D02*
X185405049Y-129965304D01*
X167355049Y-81385304D02*
X170635049Y-84665304D01*
%TO.N,Net-(U1B--)*%
X189190049Y-69550304D02*
X196305049Y-76665304D01*
%TO.N,Net-(D4-A)*%
X167255049Y-88315304D02*
X169455049Y-90515304D01*
X162455049Y-86965304D02*
X163805049Y-88315304D01*
%TO.N,Net-(U1B--)*%
X196305049Y-82515304D02*
X197565049Y-83775304D01*
%TO.N,*%
X205955049Y-69665304D02*
X203505049Y-67215304D01*
X182955049Y-101915304D02*
X182955049Y-103815304D01*
%TO.N,Net-(U1B--)*%
X196305049Y-76665304D02*
X196305049Y-82515304D01*
%TO.N,*%
X178755049Y-122090304D02*
X172455049Y-122090304D01*
X198975049Y-68445304D02*
X198975049Y-69500304D01*
%TO.N,Net-(D4-A)*%
X169455049Y-100490304D02*
X170115049Y-101150304D01*
%TO.N,*%
X160755049Y-84655304D02*
X159655049Y-85755304D01*
X182955049Y-103815304D02*
X180555049Y-106215304D01*
X182955049Y-112515304D02*
X182955049Y-117890304D01*
X178275049Y-107225304D02*
X178275049Y-105845304D01*
X187675049Y-111145304D02*
X187675049Y-112525304D01*
X206005049Y-109965304D02*
X203805049Y-107765304D01*
X166280049Y-71690304D02*
X164055049Y-69465304D01*
X191055049Y-107765304D02*
X187675049Y-111145304D01*
X203805049Y-107765304D02*
X191055049Y-107765304D01*
X178275049Y-105845304D02*
X180655049Y-103465304D01*
X205955049Y-101915304D02*
X205955049Y-69665304D01*
X159655049Y-137015304D02*
X160605049Y-137965304D01*
%TO.N,Net-(U1B--)*%
X201135049Y-83825304D02*
X198245049Y-83825304D01*
%TO.N,Net-(D4-A)*%
X163805049Y-88315304D02*
X167255049Y-88315304D01*
%TO.N,*%
X180655049Y-103465304D02*
X180655049Y-100115304D01*
X204955049Y-137965304D02*
X206005049Y-136915304D01*
%TO.N,Net-(D4-A)*%
X160755049Y-74495304D02*
X162455049Y-76195304D01*
X162455049Y-76195304D02*
X162455049Y-86965304D01*
%TO.N,*%
X160605049Y-137965304D02*
X204955049Y-137965304D01*
X172305049Y-73440304D02*
X170555049Y-71690304D01*
X203505049Y-67215304D02*
X200205049Y-67215304D01*
%TO.N,Net-(D4-A)*%
X169455049Y-90515304D02*
X169455049Y-100490304D01*
%TO.N,*%
X199662549Y-79747804D02*
X198185049Y-81225304D01*
%TO.N,Net-(U1B-+)*%
X198205049Y-97350304D02*
X198205049Y-86315304D01*
%TO.N,*%
X192205049Y-96815304D02*
X192205049Y-93615304D01*
%TO.N,Net-(U1B-+)*%
X195515049Y-89385304D02*
X198135049Y-89385304D01*
X198185049Y-89335304D02*
X198185049Y-86305304D01*
%TO.N,Net-(D1-K)*%
X173935049Y-78670304D02*
X179950049Y-84685304D01*
%TO.N,Net-(U1B-+)*%
X194805049Y-100750304D02*
X198205049Y-97350304D01*
%TO.N,*%
X191695049Y-112945304D02*
X202350049Y-112945304D01*
X201135049Y-78275304D02*
X199662549Y-79747804D01*
X188795049Y-115845304D02*
X191695049Y-112945304D01*
X202350049Y-112945304D02*
X204405049Y-110890304D01*
X193050049Y-97660304D02*
X192205049Y-96815304D01*
%TO.N,Net-(D1-K)*%
X180755049Y-84685304D02*
X184245049Y-84685304D01*
%TO.N,Net-(C8-Pad2)*%
X193955049Y-76865304D02*
X188705049Y-71615304D01*
%TO.N,Net-(D1-K)*%
X171030049Y-69465304D02*
X173935049Y-72370304D01*
%TO.N,Net-(U1B-+)*%
X198135049Y-89385304D02*
X198185049Y-89335304D01*
%TO.N,Net-(D1-K)*%
X179950049Y-84685304D02*
X180755049Y-84685304D01*
%TO.N,*%
X200715049Y-78695304D02*
X199662549Y-79747804D01*
X193065049Y-97660304D02*
X193050049Y-97660304D01*
%TO.N,Net-(C8-Pad2)*%
X184840049Y-71615304D02*
X182775049Y-69550304D01*
X188705049Y-71615304D02*
X184840049Y-71615304D01*
X193955049Y-90365304D02*
X193955049Y-76865304D01*
X195555049Y-91965304D02*
X193955049Y-90365304D01*
%TO.N,*%
X204115049Y-78695304D02*
X200715049Y-78695304D01*
X192205049Y-93615304D02*
X190555049Y-91965304D01*
%TO.N,Net-(D1-K)*%
X184245049Y-84685304D02*
X184275049Y-84715304D01*
%TO.N,*%
X201135049Y-73665304D02*
X201135049Y-78275304D01*
%TO.N,Net-(U1A-+)*%
X188875049Y-83775304D02*
X190585049Y-83775304D01*
%TO.N,+4.5V*%
X161555049Y-135815304D02*
X174155049Y-135815304D01*
X167855049Y-119615304D02*
X167855049Y-135815304D01*
X197655049Y-135915304D02*
X203955049Y-135915304D01*
%TO.N,*%
X179805049Y-89965304D02*
X173755049Y-89965304D01*
X187825049Y-73975304D02*
X187305049Y-74495304D01*
X190565049Y-78685304D02*
X189595049Y-78685304D01*
%TO.N,+4.5V*%
X197655049Y-119715304D02*
X197655049Y-135915304D01*
%TO.N,*%
X187825049Y-76915304D02*
X187825049Y-73975304D01*
X172485049Y-88695304D02*
X171545049Y-88695304D01*
X171545049Y-88695304D02*
X169515049Y-86665304D01*
%TO.N,Net-(C4-Pad1)*%
X173955049Y-84655304D02*
X175665049Y-86365304D01*
X178205049Y-86365304D02*
X179955049Y-88115304D01*
%TO.N,+4.5V*%
X201215049Y-110870304D02*
X201245049Y-110900304D01*
%TO.N,*%
X189595049Y-78685304D02*
X187825049Y-76915304D01*
X169515049Y-86665304D02*
X166045049Y-86665304D01*
%TO.N,Net-(U1A-+)*%
X184535049Y-88115304D02*
X187815049Y-84835304D01*
%TO.N,*%
X173105049Y-89315304D02*
X172485049Y-88695304D01*
X166045049Y-86665304D02*
X164055049Y-84675304D01*
%TO.N,Net-(C4-Pad1)*%
X175665049Y-86365304D02*
X178205049Y-86365304D01*
%TO.N,+4.5V*%
X197975049Y-110900304D02*
X198005049Y-110870304D01*
%TO.N,Net-(D1-K)*%
X185305049Y-84715304D02*
X184275049Y-84715304D01*
X188795049Y-81225304D02*
X190565049Y-81225304D01*
X173935049Y-72370304D02*
X173935049Y-74485304D01*
X187965049Y-82055304D02*
X185305049Y-84715304D01*
X166555049Y-69465304D02*
X171030049Y-69465304D01*
%TO.N,*%
X187305049Y-74495304D02*
X177295049Y-74495304D01*
X173755049Y-89965304D02*
X173105049Y-89315304D01*
%TO.N,Net-(U1A-+)*%
X187815049Y-84835304D02*
X188875049Y-83775304D01*
%TO.N,*%
X182955049Y-93115304D02*
X179805049Y-89965304D01*
%TO.N,Net-(D1-K)*%
X173935049Y-74485304D02*
X173935049Y-78670304D01*
X187965049Y-82055304D02*
X188795049Y-81225304D01*
%TO.N,Net-(U1A-+)*%
X182955049Y-88115304D02*
X184535049Y-88115304D01*
%TO.N,+4.5V*%
X194785049Y-110900304D02*
X197975049Y-110900304D01*
%TO.N,+9V*%
X202590049Y-102515304D02*
X204385049Y-100720304D01*
X198005049Y-100710304D02*
X199810049Y-102515304D01*
X199810049Y-102515304D02*
X202590049Y-102515304D01*
%TO.N,GND*%
X162655049Y-90340304D02*
X162655049Y-100200304D01*
X167555049Y-101140304D02*
X167555049Y-107890304D01*
X166640049Y-100225304D02*
X167555049Y-101140304D01*
%TO.N,+9V*%
X171545049Y-91235304D02*
X176105049Y-95795304D01*
X176105049Y-95795304D02*
X176105049Y-110355304D01*
%TO.N,GND*%
X162680049Y-100225304D02*
X166640049Y-100225304D01*
X162655049Y-100200304D02*
X162680049Y-100225304D01*
%TO.N,Net-(C1-Pad2)*%
X172405049Y-83115304D02*
X170655049Y-81365304D01*
%TO.N,GND*%
X203225049Y-97660304D02*
X203205049Y-97640304D01*
%TO.N,Net-(C1-Pad2)*%
X176905049Y-88115304D02*
X174505049Y-88115304D01*
X170655049Y-81365304D02*
X170655049Y-74515304D01*
X172405049Y-86015304D02*
X172405049Y-83115304D01*
%TO.N,+9V*%
X176105049Y-110355304D02*
X178275049Y-112525304D01*
%TO.N,Net-(C1-Pad2)*%
X174505049Y-88115304D02*
X172405049Y-86015304D01*
%TO.N,+4.5V*%
X203955049Y-119715304D02*
X191355049Y-119715304D01*
X161555049Y-119615304D02*
X167855049Y-119615304D01*
X198005049Y-110870304D02*
X201215049Y-110870304D01*
%TO.N,*%
X178275049Y-94485304D02*
X178275049Y-101925304D01*
X176905049Y-93115304D02*
X178275049Y-94485304D01*
X148000050Y-68400050D02*
X148000050Y-69525050D01*
X152924950Y-68725150D02*
X151774950Y-67575150D01*
X134074950Y-95875150D02*
X152174950Y-95875150D01*
X148824950Y-67575150D02*
X148000050Y-68400050D01*
X129624950Y-103625150D02*
X129624950Y-100325150D01*
X151774950Y-67575150D02*
X148824950Y-67575150D01*
X129624950Y-100325150D02*
X134074950Y-95875150D01*
X127275050Y-107250050D02*
X127275050Y-105975050D01*
X152924950Y-95125150D02*
X152924950Y-68725150D01*
X125619950Y-87470150D02*
X123040050Y-90050050D01*
X127275050Y-105975050D02*
X129624950Y-103625150D01*
X128100050Y-84480050D02*
X128100050Y-84990050D01*
X152174950Y-95875150D02*
X152924950Y-95125150D01*
X123100050Y-90110050D02*
X123040050Y-90050050D01*
X116874922Y-119625177D02*
X116324950Y-119075205D01*
X116324950Y-119075205D02*
X116324950Y-91775150D01*
X128100050Y-84990050D02*
X125619950Y-87470150D01*
X121500050Y-74360050D02*
X124760050Y-74360050D01*
X142500050Y-74320050D02*
X149200050Y-74320050D01*
X128100050Y-84480050D02*
X128100050Y-77620050D01*
X124760050Y-74360050D02*
X124800050Y-74320050D01*
X121324950Y-94075150D02*
X127275050Y-100025250D01*
X128100050Y-77620050D02*
X124800050Y-74320050D01*
X122224950Y-85875150D02*
X124024950Y-85875150D01*
X116324950Y-91775150D02*
X122224950Y-85875150D01*
X124024950Y-85875150D02*
X125619950Y-87470150D01*
X123100050Y-92740050D02*
X123100050Y-90110050D01*
X134524950Y-109799950D02*
X134524950Y-130075205D01*
X121324950Y-89175150D02*
X121324950Y-94075150D01*
X134524950Y-130075205D02*
X140374922Y-135925177D01*
X129624950Y-116625150D02*
X129624950Y-106275150D01*
X136675050Y-107250050D02*
X136675050Y-101950050D01*
X126624923Y-119625177D02*
X129624950Y-116625150D01*
X131975050Y-107250050D02*
X134524950Y-109799950D01*
X127275050Y-100025250D02*
X127275050Y-101950050D01*
X129624950Y-106275150D02*
X131975050Y-103925050D01*
X123174922Y-119625177D02*
X126624923Y-119625177D01*
X123100050Y-87400050D02*
X121324950Y-89175150D01*
%TO.N,Net-(U1B--)*%
X118100050Y-69550050D02*
X118100050Y-69450050D01*
%TO.N,*%
X131975050Y-117625050D02*
X126924950Y-122675150D01*
X131975050Y-103925050D02*
X131975050Y-101950050D01*
X114424950Y-120475150D02*
X114424950Y-90550050D01*
%TO.N,Net-(D4-K)*%
X121100050Y-112125050D02*
X120749950Y-112475150D01*
%TO.N,*%
X117700050Y-87950050D02*
X117700050Y-85900050D01*
X109600050Y-90200050D02*
X114074950Y-90200050D01*
X131975050Y-112550050D02*
X131975050Y-117625050D01*
X115450050Y-90200050D02*
X117700050Y-87950050D01*
X126924950Y-122675150D02*
X116624950Y-122675150D01*
X114074950Y-90200050D02*
X115450050Y-90200050D01*
%TO.N,Net-(U1B--)*%
X134874950Y-67425150D02*
X139574950Y-72125150D01*
%TO.N,*%
X114424950Y-90550050D02*
X114074950Y-90200050D01*
X117500050Y-77000050D02*
X117700050Y-77200050D01*
X117700050Y-77200050D02*
X117700050Y-85900050D01*
%TO.N,Net-(D4-K)*%
X121100050Y-107580050D02*
X121100050Y-112125050D01*
%TO.N,*%
X116624950Y-122675150D02*
X114424950Y-120475150D01*
%TO.N,Net-(U1B--)*%
X118100050Y-69450050D02*
X120124950Y-67425150D01*
X139320050Y-84480050D02*
X142500050Y-84480050D01*
X139574950Y-72125150D02*
X139574950Y-76475150D01*
%TO.N,*%
X119474950Y-114575150D02*
X125249950Y-114575150D01*
%TO.N,Net-(U1B--)*%
X120124950Y-67425150D02*
X134874950Y-67425150D01*
%TO.N,*%
X125249950Y-114575150D02*
X127275050Y-112550050D01*
%TO.N,Net-(U1B--)*%
X137724950Y-78325150D02*
X137724950Y-82884950D01*
X139574950Y-76475150D02*
X137724950Y-78325150D01*
%TO.N,*%
X118209950Y-112475150D02*
X118209950Y-113310150D01*
%TO.N,Net-(U1B--)*%
X137724950Y-82884950D02*
X139320050Y-84480050D01*
%TO.N,*%
X113100050Y-69550050D02*
X115600050Y-69550050D01*
X140974950Y-81940050D02*
X142789850Y-81940050D01*
X140974950Y-71675150D02*
X140974950Y-81940050D01*
X139320050Y-81940050D02*
X140974950Y-81940050D01*
X119124950Y-66025150D02*
X135324950Y-66025150D01*
X145314950Y-112525150D02*
X145314950Y-113385150D01*
X140020050Y-93800050D02*
X140020050Y-90320050D01*
X140000050Y-90300050D02*
X134824950Y-85124950D01*
X134824950Y-85124950D02*
X134824950Y-70100205D01*
X131774922Y-69550177D02*
X134274922Y-69550177D01*
X140020050Y-90320050D02*
X140000050Y-90300050D01*
X144174950Y-114525150D02*
X138650150Y-114525150D01*
X142789850Y-81940050D02*
X145200050Y-84350250D01*
X118209950Y-113310150D02*
X119474950Y-114575150D01*
X135324950Y-66025150D02*
X140974950Y-71675150D01*
X138650150Y-114525150D02*
X136675050Y-112550050D01*
X145314950Y-113385150D02*
X144174950Y-114525150D01*
X115600050Y-69550050D02*
X119124950Y-66025150D01*
X145200050Y-84350250D02*
X145200050Y-87180050D01*
X134824950Y-70100205D02*
X134274922Y-69550177D01*
%TO.N,Net-(D1-K)*%
X150180050Y-85460050D02*
X149200050Y-84480050D01*
X150374950Y-83305150D02*
X149200050Y-84480050D01*
X150374950Y-83275150D02*
X150374950Y-83305150D01*
%TO.N,Net-(U1A-+)*%
X128100050Y-74320050D02*
X129574950Y-75794950D01*
X129574950Y-75794950D02*
X129574950Y-82354950D01*
X131020050Y-84480050D02*
X128100050Y-87400050D01*
X131700050Y-84480050D02*
X131020050Y-84480050D01*
X129574950Y-82354950D02*
X131700050Y-84480050D01*
%TO.N,GND*%
X109600050Y-86100050D02*
X114960050Y-86100050D01*
X131070050Y-87020050D02*
X128040050Y-90050050D01*
%TO.N,Net-(D1-K)*%
X150500050Y-69525050D02*
X150924950Y-69949950D01*
%TO.N,Net-(U1B-+)*%
X136274950Y-76475150D02*
X136274950Y-83974950D01*
%TO.N,Net-(D1-K)*%
X150924950Y-69949950D02*
X150924950Y-82725150D01*
%TO.N,GND*%
X111500050Y-77000050D02*
X112699850Y-77000050D01*
%TO.N,Net-(U1B-+)*%
X136674950Y-76075150D02*
X136274950Y-76475150D01*
%TO.N,GND*%
X128100050Y-92740050D02*
X128100050Y-90110050D01*
%TO.N,Net-(D1-K)*%
X150924950Y-82725150D02*
X150374950Y-83275150D01*
%TO.N,GND*%
X112699850Y-77000050D02*
X115160050Y-79460250D01*
X114960050Y-86100050D02*
X115160050Y-85900050D01*
X128100050Y-90110050D02*
X128040050Y-90050050D01*
X115160050Y-79460250D02*
X115160050Y-85900050D01*
%TO.N,Net-(U1B-+)*%
X136274950Y-83974950D02*
X139320050Y-87020050D01*
%TO.N,Net-(U1A--)*%
X131674950Y-76075150D02*
X131674950Y-79374950D01*
%TO.N,GND*%
X131700050Y-87020050D02*
X131070050Y-87020050D01*
%TO.N,*%
X142400050Y-112150250D02*
X142774950Y-112525150D01*
%TO.N,Net-(U1A--)*%
X131700050Y-81940050D02*
X131700050Y-79400050D01*
X131674950Y-79374950D02*
X131700050Y-79400050D01*
%TO.N,*%
X142400050Y-107700050D02*
X142400050Y-112150250D01*
%TO.N,Net-(D1-K)*%
X150180050Y-93800050D02*
X150180050Y-85460050D01*
%TD*%
M02*
