M48
; DRILL file {KiCad 8.0.6} date 2024-12-07T22:30:03+0200
; FORMAT={-:-/ absolute / inch / decimal}
; #@! TF.CreationDate,2024-12-07T22:30:03+02:00
; #@! TF.GenerationSoftware,Kicad,Pcbnew,8.0.6
; #@! TF.FileFunction,Plated,1,2,PTH
FMAT,2
INCH
; #@! TA.AperFunction,Plated,PTH,ViaDrill
T1C0.0118
; #@! TA.AperFunction,Plated,PTH,ComponentDrill
T2C0.0295
; #@! TA.AperFunction,Plated,PTH,ComponentDrill
T3C0.0315
; #@! TA.AperFunction,Plated,PTH,ComponentDrill
T4C0.0354
; #@! TA.AperFunction,Plated,PTH,ComponentDrill
T5C0.0394
; #@! TA.AperFunction,Plated,PTH,ComponentDrill
T6C0.0433
; #@! TA.AperFunction,Plated,PTH,ComponentDrill
T7C0.0591
; #@! TA.AperFunction,Plated,PTH,ComponentDrill
T8C0.0630
%
G90
G05
T1
X7.4329Y-4.5608
T2
X6.7537Y-3.4919
X6.7537Y-3.5419
X6.7537Y-3.5919
T3
X4.7677Y-3.8354
X4.7677Y-4.2354
X4.7835Y-2.9276
X4.7835Y-3.3276
X4.8441Y-3.5453
X4.8465Y-3.4409
X4.8465Y-3.6512
X4.9134Y-2.926
X4.9134Y-3.326
X5.0409Y-3.5453
X5.0433Y-2.926
X5.0433Y-3.326
X5.0433Y-3.4409
X5.0433Y-3.6512
X5.1841Y-2.9951
X5.185Y-3.126
X5.185Y-3.226
X5.185Y-3.326
X5.185Y-3.426
X5.3809Y-2.9951
X5.485Y-3.126
X5.485Y-3.226
X5.485Y-3.326
X5.485Y-3.426
X5.6063Y-3.8402
X5.6063Y-4.2402
X5.6102Y-2.926
X5.6102Y-3.326
X5.7165Y-3.4323
X5.874Y-2.926
X5.874Y-3.326
X5.9134Y-3.4323
X6.3289Y-2.9329
X6.3289Y-3.3329
X6.4045Y-3.5571
X6.4589Y-2.9337
X6.4589Y-3.3337
X6.5423Y-3.5571
X6.5896Y-2.9339
X6.5896Y-3.3339
X6.7187Y-2.9337
X6.7187Y-3.3337
X6.8486Y-2.9329
X6.8486Y-3.3329
X6.9648Y-3.4691
X6.9648Y-3.666
X6.9809Y-2.9333
X6.9809Y-3.3333
X7.0848Y-3.4691
X7.0848Y-3.666
X7.203Y-3.4691
X7.203Y-3.666
X7.3943Y-3.34
X7.3943Y-3.74
X7.3955Y-2.9128
X7.401Y-3.0341
X7.401Y-3.2309
X7.5014Y-3.5195
X7.5022Y-3.6207
X7.5022Y-3.7211
X7.5033Y-3.0982
X7.5033Y-3.1982
X7.5033Y-3.2982
X7.5033Y-3.3982
X7.6018Y-3.8453
X7.6695Y-3.9665
X7.6695Y-4.3665
X7.6982Y-3.5195
X7.699Y-3.6207
X7.699Y-3.7211
X7.7955Y-2.9128
X7.7963Y-3.9654
X7.7963Y-4.3654
X7.8033Y-3.0982
X7.8033Y-3.1982
X7.8033Y-3.2982
X7.8033Y-3.3982
X7.9195Y-2.9006
X7.9195Y-3.3006
X7.9238Y-3.9665
X7.9238Y-4.3665
X8.0018Y-3.8453
X8.0368Y-2.9018
X8.0368Y-3.0986
X8.0474Y-3.9658
X8.0474Y-4.3658
T4
X4.315Y-3.4724
X4.315Y-3.5512
X4.315Y-3.6299
X4.6539Y-4.4282
X4.7539Y-4.4282
X5.6211Y-4.4301
X5.7211Y-4.4301
X6.5974Y-3.9823
X6.5974Y-4.248
X6.6974Y-3.9823
X6.6974Y-4.248
T5
X4.4528Y-2.7382
X4.5339Y-3.3819
X4.5512Y-2.7382
X4.6339Y-3.3819
X4.6496Y-2.7382
X4.8104Y-2.064
X4.9104Y-2.064
X5.0896Y-2.7382
X5.188Y-2.7382
X5.2864Y-2.7382
X5.7283Y-2.7372
X5.8268Y-2.7372
X5.9252Y-2.7372
X6.4055Y-3.9463
X6.4055Y-4.0463
X6.4596Y-2.7352
X6.5581Y-2.7352
X6.6565Y-2.7352
X7.0974Y-2.7382
X7.1959Y-2.7382
X7.2943Y-2.7382
X7.7352Y-2.7362
X7.8337Y-2.7362
X7.9321Y-2.7362
T6
X5.5118Y-3.5551
X5.5126Y-3.6929
X5.9118Y-3.5551
X5.9126Y-3.6929
X7.1171Y-2.9345
X7.1171Y-3.3345
X7.2557Y-2.9356
X7.2557Y-3.3356
T7
X4.315Y-3.3898
X4.315Y-3.7126
T8
X4.3533Y-4.7097
X4.3533Y-5.3474
X4.6014Y-4.7097
X4.6014Y-5.3474
X4.8494Y-4.7097
X4.8494Y-5.3474
X5.5266Y-4.7136
X5.5266Y-5.3514
X5.7746Y-4.7136
X5.7746Y-5.3514
X6.0226Y-4.7136
X6.0226Y-5.3514
X6.3612Y-4.7097
X6.3612Y-5.3475
X6.6093Y-4.7097
X6.6093Y-5.3475
X6.8573Y-4.7097
X6.8573Y-5.3475
X7.5345Y-4.7136
X7.5345Y-5.3514
X7.7825Y-4.7136
X7.7825Y-5.3514
X8.0305Y-4.7136
X8.0305Y-5.3514
T5
G00X4.3898Y-2.9921
M15
G01X4.3898Y-3.0709
M16
G05
G00X4.4685Y-3.2165
M15
G01X4.5472Y-3.2165
M16
G05
G00X4.626Y-2.9921
M15
G01X4.626Y-3.0709
M16
G05
G00X5.0108Y-3.9902
M15
G01X5.0108Y-4.0374
M16
G05
G00X5.0108Y-4.1988
M15
G01X5.0108Y-4.2461
M16
G05
G00X5.0108Y-4.4075
M15
G01X5.0108Y-4.4547
M16
G05
G00X5.1959Y-3.9902
M15
G01X5.1959Y-4.0374
M16
G05
G00X5.1959Y-4.1988
M15
G01X5.1959Y-4.2461
M16
G05
G00X5.1959Y-4.4075
M15
G01X5.1959Y-4.4547
M16
G05
G00X5.3809Y-3.9902
M15
G01X5.3809Y-4.0374
M16
G05
G00X5.3809Y-4.1988
M15
G01X5.3809Y-4.2461
M16
G05
G00X5.3809Y-4.4075
M15
G01X5.3809Y-4.4547
M16
G05
G00X7.0187Y-3.9892
M15
G01X7.0187Y-4.0364
M16
G05
G00X7.0187Y-4.1978
M15
G01X7.0187Y-4.2451
M16
G05
G00X7.0187Y-4.4065
M15
G01X7.0187Y-4.4538
M16
G05
G00X7.2037Y-3.9892
M15
G01X7.2037Y-4.0364
M16
G05
G00X7.2037Y-4.1978
M15
G01X7.2037Y-4.2451
M16
G05
G00X7.2037Y-4.4065
M15
G01X7.2037Y-4.4538
M16
G05
G00X7.3888Y-3.9892
M15
G01X7.3888Y-4.0364
M16
G05
G00X7.3888Y-4.1978
M15
G01X7.3888Y-4.2451
M16
G05
G00X7.3888Y-4.4065
M15
G01X7.3888Y-4.4538
M16
G05
T7
G00X4.3622Y-2.4547
M15
G01X4.3622Y-2.4311
M16
G05
G00X4.7402Y-2.4547
M15
G01X4.7402Y-2.4311
M16
G05
G00X4.999Y-2.4547
M15
G01X4.999Y-2.4311
M16
G05
G00X5.377Y-2.4547
M15
G01X5.377Y-2.4311
M16
G05
G00X5.6378Y-2.4537
M15
G01X5.6378Y-2.4301
M16
G05
G00X6.0157Y-2.4537
M15
G01X6.0157Y-2.4301
M16
G05
G00X6.3691Y-2.4518
M15
G01X6.3691Y-2.4282
M16
G05
G00X6.747Y-2.4518
M15
G01X6.747Y-2.4282
M16
G05
G00X7.0069Y-2.4547
M15
G01X7.0069Y-2.4311
M16
G05
G00X7.3848Y-2.4547
M15
G01X7.3848Y-2.4311
M16
G05
G00X7.6447Y-2.4528
M15
G01X7.6447Y-2.4291
M16
G05
G00X8.0226Y-2.4528
M15
G01X8.0226Y-2.4291
M16
G05
M30
